G75*
%MOIN*%
%OFA0B0*%
%FSLAX24Y24*%
%IPPOS*%
%LPD*%
%AMOC8*
5,1,8,0,0,1.08239X$1,22.5*
%
%ADD10C,0.0000*%
%ADD11R,0.0631X0.0552*%
%ADD12R,0.0552X0.0631*%
%ADD13R,0.0700X0.0700*%
%ADD14OC8,0.0700*%
%ADD15R,0.1267X0.1267*%
%ADD16R,0.0955X0.0955*%
%ADD17R,0.0837X0.0837*%
%ADD18OC8,0.0640*%
%ADD19R,0.0591X0.1221*%
%ADD20R,0.0906X0.0276*%
%ADD21R,0.0434X0.0749*%
%ADD22R,0.0591X0.0591*%
D10*
X001160Y002930D02*
X001160Y010430D01*
X040530Y010430D01*
X040530Y002930D01*
X001160Y002930D01*
D11*
X006160Y006306D03*
X007410Y006306D03*
X008660Y006306D03*
X008660Y007054D03*
X007410Y007054D03*
X006160Y007054D03*
X013160Y004804D03*
X013160Y004056D03*
X014660Y006556D03*
X014660Y007304D03*
X016660Y008556D03*
X016660Y009304D03*
X020160Y007804D03*
X020160Y007056D03*
X025160Y007304D03*
X027660Y007104D03*
X025160Y006556D03*
X027660Y006356D03*
X027660Y004804D03*
X027660Y004056D03*
X027660Y008556D03*
X027660Y009304D03*
D12*
X026034Y009430D03*
X025286Y009430D03*
X023534Y009430D03*
X022786Y009430D03*
X021034Y009430D03*
X020286Y009430D03*
X014634Y009730D03*
X013886Y009730D03*
X012034Y009730D03*
X011286Y009730D03*
X013886Y008730D03*
X014634Y008730D03*
X003034Y007380D03*
X002286Y007380D03*
X002536Y003680D03*
X003284Y003680D03*
X008486Y003630D03*
X009234Y003630D03*
X015286Y003630D03*
X016034Y003630D03*
X016034Y004730D03*
X015286Y004730D03*
X023786Y004930D03*
X024534Y004930D03*
X038586Y006730D03*
X039334Y006730D03*
D13*
X037154Y005696D03*
X026404Y005696D03*
X015654Y005696D03*
D14*
X015654Y006680D03*
X015654Y007664D03*
X026404Y007664D03*
X026404Y006680D03*
X037154Y006680D03*
X037154Y007664D03*
D15*
X039910Y008452D03*
X029160Y008452D03*
X018410Y008452D03*
X018410Y004908D03*
X029160Y004908D03*
X039910Y004908D03*
D16*
X010491Y004730D03*
X007254Y004730D03*
X004891Y004730D03*
X001654Y004730D03*
X001654Y008630D03*
X004891Y008630D03*
X007254Y008630D03*
X010491Y008630D03*
D17*
X011711Y008630D03*
X006111Y008630D03*
X006111Y004730D03*
X011711Y004730D03*
D18*
X032160Y008930D03*
X033160Y008930D03*
X034160Y008930D03*
X035160Y008930D03*
X036160Y008930D03*
X036160Y009930D03*
X035160Y009930D03*
X034160Y009930D03*
X033160Y009930D03*
X032160Y009930D03*
D19*
X032160Y005875D03*
X035160Y005875D03*
X035160Y003985D03*
X032160Y003985D03*
D20*
X023684Y006180D03*
X023684Y006680D03*
X023684Y007180D03*
X023684Y007680D03*
X021636Y007680D03*
X021636Y007180D03*
X021636Y006680D03*
X021636Y006180D03*
X013184Y006180D03*
X013184Y006680D03*
X013184Y007180D03*
X013184Y007680D03*
X011136Y007680D03*
X011136Y007180D03*
X011136Y006680D03*
X011136Y006180D03*
D21*
X031109Y007430D03*
X032211Y007430D03*
X035109Y007430D03*
X036211Y007430D03*
D22*
X038360Y005378D03*
X038360Y003882D03*
X030360Y003582D03*
X030360Y005078D03*
M02*
