G75*
%MOIN*%
%OFA0B0*%
%FSLAX24Y24*%
%IPPOS*%
%LPD*%
%AMOC8*
5,1,8,0,0,1.08239X$1,22.5*
%
%ADD10C,0.0000*%
%ADD11R,0.0700X0.0700*%
%ADD12OC8,0.0700*%
%ADD13R,0.1267X0.1267*%
%ADD14R,0.0955X0.0955*%
%ADD15R,0.0837X0.0837*%
%ADD16OC8,0.0640*%
D10*
X001160Y002930D02*
X001160Y010430D01*
X040530Y010430D01*
X040530Y002930D01*
X001160Y002930D01*
D11*
X015654Y005696D03*
X026404Y005696D03*
X037154Y005696D03*
D12*
X037154Y006680D03*
X037154Y007664D03*
X026404Y007664D03*
X026404Y006680D03*
X015654Y006680D03*
X015654Y007664D03*
D13*
X018410Y008452D03*
X029160Y008452D03*
X039910Y008452D03*
X039910Y004908D03*
X029160Y004908D03*
X018410Y004908D03*
D14*
X010491Y004730D03*
X007254Y004730D03*
X004891Y004730D03*
X001654Y004730D03*
X001654Y008630D03*
X004891Y008630D03*
X007254Y008630D03*
X010491Y008630D03*
D15*
X011711Y008630D03*
X006111Y008630D03*
X006111Y004730D03*
X011711Y004730D03*
D16*
X032160Y008930D03*
X033160Y008930D03*
X034160Y008930D03*
X035160Y008930D03*
X036160Y008930D03*
X036160Y009930D03*
X035160Y009930D03*
X034160Y009930D03*
X033160Y009930D03*
X032160Y009930D03*
M02*
