%
M48
M72
T01C0.0120
T02C0.0400
T03C0.0433
T04C0.0531
T05C0.0610
T06C0.0827
%
T01
X8460Y4430
X13960Y5830
X12560Y6680
X13360Y8030
X17360Y8430
X21660Y8180
X22860Y7730
X25660Y6830
X28460Y7430
X27660Y7680
X30660Y8430
X28410Y9430
X26660Y9430
X24910Y8680
X22860Y6730
X21660Y5830
X22410Y5680
X23660Y5680
X19460Y6730
X14160Y3930
X8060Y6230
X5560Y7130
X3660Y7430
X26860Y3930
X34660Y7430
X39160Y7180
T02
X32160Y9930
X33160Y9930
X34160Y9930
X35160Y9930
X36160Y9930
X36160Y8930
X35160Y8930
X34160Y8930
X33160Y8930
X32160Y8930
T03
X15654Y7664
X15654Y6680
X15654Y5696
X26404Y5696
X26404Y6680
X26404Y7664
X37154Y7664
X37154Y6680
X37154Y5696
T04
X6111Y4730
X11711Y4730
X11711Y8630
X6111Y8630
T05
X1654Y8630
X4891Y8630
X7254Y8630
X10491Y8630
X10491Y4730
X7254Y4730
X4891Y4730
X1654Y4730
T06
X18410Y4908
X29160Y4908
X39910Y4908
X39910Y8452
X29160Y8452
X18410Y8452
M30
