G75*
%MOIN*%
%OFA0B0*%
%FSLAX24Y24*%
%IPPOS*%
%LPD*%
%AMOC8*
5,1,8,0,0,1.08239X$1,22.5*
%
%ADD10C,0.0000*%
%ADD11C,0.0020*%
%ADD12C,0.0030*%
%ADD13C,0.0200*%
%ADD14C,0.0060*%
%ADD15C,0.0050*%
%ADD16C,0.0090*%
%ADD17C,0.0040*%
%ADD18C,0.0120*%
%ADD19C,0.0010*%
D10*
X001160Y002930D02*
X001160Y010430D01*
X040530Y010430D01*
X040530Y002930D01*
X001160Y002930D01*
D11*
X001765Y003242D02*
X001765Y003357D01*
X001803Y003395D01*
X001880Y003395D01*
X001918Y003357D01*
X001918Y003242D01*
X001918Y003318D02*
X001995Y003395D01*
X001995Y003472D02*
X001841Y003625D01*
X001803Y003625D01*
X001765Y003587D01*
X001765Y003510D01*
X001803Y003472D01*
X001995Y003472D02*
X001995Y003625D01*
X001995Y003242D02*
X001765Y003242D01*
X003819Y003305D02*
X004049Y003305D01*
X004049Y003229D02*
X004049Y003382D01*
X004010Y003459D02*
X003857Y003612D01*
X004010Y003612D01*
X004049Y003574D01*
X004049Y003497D01*
X004010Y003459D01*
X003857Y003459D01*
X003819Y003497D01*
X003819Y003574D01*
X003857Y003612D01*
X003819Y003689D02*
X004049Y003689D01*
X003972Y003689D02*
X003895Y003804D01*
X003972Y003689D02*
X004049Y003804D01*
X003819Y003305D02*
X003895Y003229D01*
X007715Y003192D02*
X007715Y003307D01*
X007753Y003345D01*
X007830Y003345D01*
X007868Y003307D01*
X007868Y003192D01*
X007868Y003268D02*
X007945Y003345D01*
X007945Y003422D02*
X007945Y003575D01*
X007945Y003498D02*
X007715Y003498D01*
X007791Y003422D01*
X007791Y003652D02*
X007715Y003729D01*
X007945Y003729D01*
X007945Y003805D02*
X007945Y003652D01*
X007945Y003192D02*
X007715Y003192D01*
X009769Y003217D02*
X009807Y003179D01*
X009769Y003217D02*
X009769Y003294D01*
X009807Y003332D01*
X009845Y003332D01*
X009999Y003179D01*
X009999Y003332D01*
X009999Y003409D02*
X009960Y003409D01*
X009960Y003447D01*
X009999Y003447D01*
X009999Y003409D01*
X009999Y003524D02*
X009845Y003677D01*
X009807Y003677D01*
X009769Y003639D01*
X009769Y003562D01*
X009807Y003524D01*
X009999Y003524D02*
X009999Y003677D01*
X009999Y003754D02*
X009769Y003754D01*
X009845Y003869D02*
X009922Y003754D01*
X009999Y003869D01*
X012709Y003445D02*
X012785Y003521D01*
X012785Y003291D01*
X012709Y003291D02*
X012862Y003291D01*
X012939Y003330D02*
X013092Y003483D01*
X013092Y003330D01*
X013054Y003291D01*
X012977Y003291D01*
X012939Y003330D01*
X012939Y003483D01*
X012977Y003521D01*
X013054Y003521D01*
X013092Y003483D01*
X013169Y003483D02*
X013207Y003521D01*
X013284Y003521D01*
X013323Y003483D01*
X013169Y003330D01*
X013207Y003291D01*
X013284Y003291D01*
X013323Y003330D01*
X013323Y003483D01*
X013399Y003445D02*
X013514Y003445D01*
X013553Y003406D01*
X013553Y003291D01*
X013399Y003291D02*
X013399Y003445D01*
X013169Y003483D02*
X013169Y003330D01*
X014515Y003307D02*
X014515Y003230D01*
X014553Y003192D01*
X014706Y003192D01*
X014745Y003230D01*
X014745Y003307D01*
X014706Y003345D01*
X014706Y003422D02*
X014745Y003460D01*
X014745Y003537D01*
X014706Y003575D01*
X014630Y003575D01*
X014591Y003537D01*
X014591Y003498D01*
X014630Y003422D01*
X014515Y003422D01*
X014515Y003575D01*
X014553Y003345D02*
X014515Y003307D01*
X016569Y003294D02*
X016607Y003332D01*
X016645Y003332D01*
X016684Y003294D01*
X016722Y003332D01*
X016760Y003332D01*
X016799Y003294D01*
X016799Y003217D01*
X016760Y003179D01*
X016684Y003255D02*
X016684Y003294D01*
X016569Y003294D02*
X016569Y003217D01*
X016607Y003179D01*
X017180Y003170D02*
X017290Y003170D01*
X017327Y003207D01*
X017327Y003243D01*
X017290Y003280D01*
X017180Y003280D01*
X017180Y003170D02*
X017180Y003390D01*
X017290Y003390D01*
X017327Y003353D01*
X017327Y003317D01*
X017290Y003280D01*
X017401Y003317D02*
X017401Y003207D01*
X017438Y003170D01*
X017548Y003170D01*
X017548Y003133D02*
X017511Y003097D01*
X017474Y003097D01*
X017548Y003133D02*
X017548Y003317D01*
X017769Y003457D02*
X017769Y003677D01*
X017879Y003677D01*
X017916Y003640D01*
X017916Y003567D01*
X017879Y003530D01*
X017769Y003530D01*
X017695Y003530D02*
X017695Y003640D01*
X017658Y003677D01*
X017622Y003640D01*
X017622Y003530D01*
X017548Y003530D02*
X017548Y003677D01*
X017585Y003677D01*
X017622Y003640D01*
X017474Y003530D02*
X017401Y003530D01*
X017438Y003530D02*
X017438Y003677D01*
X017401Y003677D01*
X017438Y003750D02*
X017438Y003787D01*
X017327Y003713D02*
X017290Y003750D01*
X017217Y003750D01*
X017180Y003713D01*
X017180Y003677D01*
X017217Y003640D01*
X017290Y003640D01*
X017327Y003603D01*
X017327Y003567D01*
X017290Y003530D01*
X017217Y003530D01*
X017180Y003567D01*
X016799Y003524D02*
X016799Y003447D01*
X016760Y003409D01*
X016684Y003486D02*
X016684Y003524D01*
X016722Y003562D01*
X016760Y003562D01*
X016799Y003524D01*
X016799Y003639D02*
X016645Y003639D01*
X016645Y003754D01*
X016684Y003793D01*
X016799Y003793D01*
X016799Y003908D02*
X016607Y003908D01*
X016569Y003946D01*
X016684Y003946D02*
X016684Y003869D01*
X016645Y003562D02*
X016684Y003524D01*
X016645Y003562D02*
X016607Y003562D01*
X016569Y003524D01*
X016569Y003447D01*
X016607Y003409D01*
X017843Y003390D02*
X017990Y003390D01*
X017916Y003390D02*
X017916Y003170D01*
X018064Y003207D02*
X018101Y003170D01*
X018174Y003170D01*
X018211Y003207D01*
X018211Y003280D01*
X018174Y003317D01*
X018101Y003317D01*
X018064Y003280D01*
X018064Y003207D01*
X018285Y003170D02*
X018285Y003317D01*
X018322Y003317D01*
X018358Y003280D01*
X018395Y003317D01*
X018432Y003280D01*
X018432Y003170D01*
X018358Y003170D02*
X018358Y003280D01*
X018727Y003170D02*
X018800Y003243D01*
X018874Y003170D01*
X018874Y003390D01*
X018948Y003390D02*
X018948Y003170D01*
X018948Y003280D02*
X018985Y003317D01*
X019058Y003317D01*
X019095Y003280D01*
X019095Y003170D01*
X019169Y003170D02*
X019242Y003170D01*
X019206Y003170D02*
X019206Y003317D01*
X019169Y003317D01*
X019206Y003390D02*
X019206Y003427D01*
X019243Y003530D02*
X019353Y003530D01*
X019389Y003567D01*
X019389Y003713D01*
X019353Y003750D01*
X019243Y003750D01*
X019243Y003530D01*
X019353Y003353D02*
X019353Y003207D01*
X019390Y003170D01*
X019464Y003207D02*
X019500Y003170D01*
X019537Y003207D01*
X019574Y003170D01*
X019610Y003207D01*
X019610Y003317D01*
X019685Y003280D02*
X019721Y003317D01*
X019795Y003317D01*
X019831Y003280D01*
X019831Y003243D01*
X019685Y003243D01*
X019685Y003207D02*
X019685Y003280D01*
X019685Y003207D02*
X019721Y003170D01*
X019795Y003170D01*
X019906Y003170D02*
X019979Y003170D01*
X019942Y003170D02*
X019942Y003390D01*
X019906Y003390D01*
X019906Y003530D02*
X019979Y003530D01*
X019942Y003530D02*
X019942Y003677D01*
X019906Y003677D01*
X019831Y003677D02*
X019721Y003677D01*
X019685Y003640D01*
X019721Y003603D01*
X019795Y003603D01*
X019831Y003567D01*
X019795Y003530D01*
X019685Y003530D01*
X019610Y003603D02*
X019464Y003603D01*
X019464Y003567D02*
X019464Y003640D01*
X019500Y003677D01*
X019574Y003677D01*
X019610Y003640D01*
X019610Y003603D01*
X019574Y003530D02*
X019500Y003530D01*
X019464Y003567D01*
X018947Y003567D02*
X018911Y003530D01*
X018837Y003530D01*
X018801Y003567D01*
X018801Y003713D01*
X018837Y003750D01*
X018911Y003750D01*
X018947Y003713D01*
X018947Y003567D01*
X018947Y003530D02*
X018874Y003603D01*
X018726Y003530D02*
X018580Y003530D01*
X018580Y003750D01*
X018726Y003750D01*
X018653Y003640D02*
X018580Y003640D01*
X018284Y003640D02*
X018284Y003603D01*
X018138Y003603D01*
X018138Y003567D02*
X018138Y003640D01*
X018174Y003677D01*
X018248Y003677D01*
X018284Y003640D01*
X018248Y003530D02*
X018174Y003530D01*
X018138Y003567D01*
X018064Y003530D02*
X017990Y003530D01*
X018027Y003530D02*
X018027Y003750D01*
X017990Y003750D01*
X018727Y003390D02*
X018727Y003170D01*
X019316Y003317D02*
X019390Y003317D01*
X019464Y003317D02*
X019464Y003207D01*
X020053Y003170D02*
X020126Y003170D01*
X020090Y003170D02*
X020090Y003390D01*
X020053Y003390D01*
X020126Y003457D02*
X020163Y003457D01*
X020200Y003493D01*
X020200Y003677D01*
X020090Y003677D01*
X020053Y003640D01*
X020053Y003567D01*
X020090Y003530D01*
X020200Y003530D01*
X020274Y003530D02*
X020274Y003677D01*
X020384Y003677D01*
X020421Y003640D01*
X020421Y003530D01*
X020495Y003567D02*
X020495Y003640D01*
X020532Y003677D01*
X020605Y003677D01*
X020642Y003640D01*
X020642Y003603D01*
X020495Y003603D01*
X020495Y003567D02*
X020532Y003530D01*
X020605Y003530D01*
X020716Y003567D02*
X020716Y003640D01*
X020753Y003677D01*
X020863Y003677D01*
X020863Y003750D02*
X020863Y003530D01*
X020753Y003530D01*
X020716Y003567D01*
X020715Y003390D02*
X020715Y003170D01*
X020789Y003207D02*
X020826Y003243D01*
X020936Y003243D01*
X020936Y003280D02*
X020936Y003170D01*
X020826Y003170D01*
X020789Y003207D01*
X020826Y003317D02*
X020900Y003317D01*
X020936Y003280D01*
X021010Y003243D02*
X021084Y003317D01*
X021121Y003317D01*
X021195Y003280D02*
X021195Y003207D01*
X021231Y003170D01*
X021341Y003170D01*
X021416Y003170D02*
X021416Y003390D01*
X021452Y003317D02*
X021526Y003317D01*
X021562Y003280D01*
X021562Y003170D01*
X021416Y003280D02*
X021452Y003317D01*
X021341Y003317D02*
X021231Y003317D01*
X021195Y003280D01*
X021010Y003317D02*
X021010Y003170D01*
X020715Y003390D02*
X020642Y003317D01*
X020568Y003390D01*
X020568Y003170D01*
X020274Y003170D02*
X020237Y003170D01*
X020237Y003207D01*
X020274Y003207D01*
X020274Y003170D01*
X020200Y003097D01*
X021158Y003530D02*
X021231Y003530D01*
X021194Y003530D02*
X021194Y003677D01*
X021158Y003677D01*
X021194Y003750D02*
X021194Y003787D01*
X021305Y003677D02*
X021415Y003677D01*
X021452Y003640D01*
X021452Y003530D01*
X021305Y003530D02*
X021305Y003677D01*
X021747Y003640D02*
X021894Y003640D01*
X021968Y003640D02*
X022005Y003677D01*
X022078Y003677D01*
X022115Y003640D01*
X022115Y003603D01*
X021968Y003603D01*
X021968Y003567D02*
X021968Y003640D01*
X021968Y003567D02*
X022005Y003530D01*
X022078Y003530D01*
X022189Y003530D02*
X022189Y003677D01*
X022262Y003677D02*
X022299Y003677D01*
X022262Y003677D02*
X022189Y003603D01*
X022373Y003530D02*
X022373Y003677D01*
X022483Y003677D01*
X022520Y003640D01*
X022520Y003530D01*
X022594Y003567D02*
X022594Y003640D01*
X022631Y003677D01*
X022704Y003677D01*
X022741Y003640D01*
X022741Y003603D01*
X022594Y003603D01*
X022594Y003567D02*
X022631Y003530D01*
X022704Y003530D01*
X022631Y003390D02*
X022521Y003280D01*
X022667Y003280D01*
X022631Y003170D02*
X022631Y003390D01*
X022373Y003390D02*
X022300Y003317D01*
X022225Y003353D02*
X022079Y003207D01*
X022115Y003170D01*
X022189Y003170D01*
X022225Y003207D01*
X022225Y003353D01*
X022189Y003390D01*
X022115Y003390D01*
X022079Y003353D01*
X022079Y003207D01*
X022004Y003170D02*
X021858Y003170D01*
X022004Y003317D01*
X022004Y003353D01*
X021968Y003390D01*
X021894Y003390D01*
X021858Y003353D01*
X021894Y003530D02*
X021894Y003750D01*
X021747Y003750D02*
X021747Y003530D01*
X022373Y003390D02*
X022373Y003170D01*
X022300Y003170D02*
X022446Y003170D01*
X022963Y003170D02*
X022963Y003317D01*
X022999Y003317D01*
X023036Y003280D01*
X023073Y003317D01*
X023109Y003280D01*
X023109Y003170D01*
X023036Y003170D02*
X023036Y003280D01*
X023184Y003317D02*
X023184Y003207D01*
X023220Y003170D01*
X023330Y003170D01*
X023330Y003317D01*
X023404Y003280D02*
X023441Y003317D01*
X023551Y003317D01*
X023625Y003317D02*
X023662Y003317D01*
X023662Y003170D01*
X023625Y003170D02*
X023699Y003170D01*
X023773Y003207D02*
X023810Y003170D01*
X023920Y003170D01*
X024030Y003207D02*
X024067Y003170D01*
X024030Y003207D02*
X024030Y003353D01*
X023994Y003317D02*
X024067Y003317D01*
X024141Y003280D02*
X024178Y003317D01*
X024251Y003317D01*
X024288Y003280D01*
X024288Y003170D01*
X024362Y003170D02*
X024436Y003170D01*
X024399Y003170D02*
X024399Y003317D01*
X024362Y003317D01*
X024399Y003390D02*
X024399Y003427D01*
X024399Y003530D02*
X024435Y003567D01*
X024435Y003640D01*
X024399Y003677D01*
X024325Y003677D01*
X024288Y003640D01*
X024288Y003567D01*
X024325Y003530D01*
X024399Y003530D01*
X024509Y003530D02*
X024509Y003677D01*
X024620Y003677D01*
X024656Y003640D01*
X024656Y003530D01*
X024730Y003567D02*
X024730Y003640D01*
X024767Y003677D01*
X024877Y003677D01*
X024877Y003750D02*
X024877Y003530D01*
X024767Y003530D01*
X024730Y003567D01*
X024951Y003567D02*
X024988Y003530D01*
X025062Y003530D01*
X025098Y003567D01*
X025098Y003640D01*
X025062Y003677D01*
X024988Y003677D01*
X024951Y003640D01*
X024951Y003567D01*
X025172Y003530D02*
X025172Y003677D01*
X025282Y003677D01*
X025319Y003640D01*
X025319Y003530D01*
X025835Y003390D02*
X025835Y003170D01*
X025835Y003243D02*
X025945Y003170D01*
X025835Y003243D02*
X025945Y003317D01*
X025761Y003317D02*
X025761Y003170D01*
X025651Y003170D01*
X025614Y003207D01*
X025614Y003317D01*
X025541Y003207D02*
X025541Y003170D01*
X025504Y003170D01*
X025504Y003207D01*
X025541Y003207D01*
X025430Y003207D02*
X025430Y003280D01*
X025393Y003317D01*
X025320Y003317D01*
X025283Y003280D01*
X025283Y003207D01*
X025320Y003170D01*
X025393Y003170D01*
X025430Y003207D01*
X025209Y003170D02*
X025099Y003170D01*
X025062Y003207D01*
X025062Y003280D01*
X025099Y003317D01*
X025209Y003317D01*
X024988Y003207D02*
X024988Y003170D01*
X024951Y003170D01*
X024951Y003207D01*
X024988Y003207D01*
X024877Y003170D02*
X024767Y003170D01*
X024730Y003207D01*
X024730Y003280D01*
X024767Y003317D01*
X024877Y003317D01*
X024877Y003133D01*
X024841Y003097D01*
X024804Y003097D01*
X024656Y003170D02*
X024656Y003280D01*
X024620Y003317D01*
X024509Y003317D01*
X024509Y003170D01*
X024141Y003170D02*
X024141Y003390D01*
X024214Y003530D02*
X024067Y003530D01*
X024067Y003750D01*
X023589Y003750D02*
X023589Y003530D01*
X023625Y003530D02*
X023552Y003530D01*
X023478Y003530D02*
X023404Y003530D01*
X023441Y003530D02*
X023441Y003750D01*
X023404Y003750D01*
X023294Y003750D02*
X023294Y003787D01*
X023294Y003677D02*
X023294Y003530D01*
X023257Y003530D02*
X023331Y003530D01*
X023183Y003530D02*
X023183Y003750D01*
X023257Y003677D02*
X023294Y003677D01*
X023183Y003640D02*
X023036Y003640D01*
X023036Y003530D02*
X023036Y003750D01*
X023552Y003750D02*
X023589Y003750D01*
X023736Y003567D02*
X023736Y003530D01*
X023773Y003530D01*
X023773Y003567D01*
X023736Y003567D01*
X023773Y003530D02*
X023699Y003457D01*
X023662Y003427D02*
X023662Y003390D01*
X023773Y003280D02*
X023773Y003207D01*
X023773Y003280D02*
X023810Y003317D01*
X023920Y003317D01*
X023551Y003207D02*
X023515Y003243D01*
X023441Y003243D01*
X023404Y003280D01*
X023404Y003170D02*
X023515Y003170D01*
X023551Y003207D01*
X019942Y003750D02*
X019942Y003787D01*
X023015Y004492D02*
X023015Y004607D01*
X023053Y004645D01*
X023130Y004645D01*
X023168Y004607D01*
X023168Y004492D01*
X023168Y004568D02*
X023245Y004645D01*
X023245Y004722D02*
X023245Y004875D01*
X023245Y004798D02*
X023015Y004798D01*
X023091Y004722D01*
X023053Y004952D02*
X023015Y004990D01*
X023015Y005067D01*
X023053Y005105D01*
X023206Y004952D01*
X023245Y004990D01*
X023245Y005067D01*
X023206Y005105D01*
X023053Y005105D01*
X023053Y004952D02*
X023206Y004952D01*
X023245Y004492D02*
X023015Y004492D01*
X027222Y005384D02*
X027260Y005345D01*
X027337Y005345D01*
X027375Y005384D01*
X027452Y005345D02*
X027605Y005345D01*
X027528Y005345D02*
X027528Y005575D01*
X027452Y005499D01*
X027375Y005537D02*
X027337Y005575D01*
X027260Y005575D01*
X027222Y005537D01*
X027222Y005384D01*
X027682Y005345D02*
X027835Y005499D01*
X027835Y005537D01*
X027797Y005575D01*
X027720Y005575D01*
X027682Y005537D01*
X027682Y005345D02*
X027835Y005345D01*
X029942Y005591D02*
X030032Y005591D01*
X030062Y005621D01*
X030062Y005741D01*
X030032Y005771D01*
X029942Y005771D01*
X029942Y005591D01*
X030126Y005591D02*
X030246Y005591D01*
X030186Y005591D02*
X030186Y005771D01*
X030126Y005711D01*
X028633Y006590D02*
X028446Y006590D01*
X028540Y006590D02*
X028540Y006870D01*
X028446Y006777D01*
X028357Y006824D02*
X028310Y006870D01*
X028217Y006870D01*
X028170Y006824D01*
X028170Y006637D01*
X028217Y006590D01*
X028310Y006590D01*
X028357Y006637D01*
X025476Y006021D02*
X025438Y005983D01*
X025438Y005791D01*
X025399Y005906D02*
X025476Y005906D01*
X025323Y005906D02*
X025323Y005830D01*
X025284Y005791D01*
X025169Y005791D01*
X025169Y005715D02*
X025169Y005945D01*
X025284Y005945D01*
X025323Y005906D01*
X025092Y005945D02*
X024939Y005791D01*
X025092Y005791D01*
X024862Y005791D02*
X024709Y005791D01*
X024862Y005945D01*
X024862Y005983D01*
X024824Y006021D01*
X024747Y006021D01*
X024709Y005983D01*
X024939Y005983D02*
X024977Y006021D01*
X025054Y006021D01*
X025092Y005983D01*
X025092Y005945D01*
X020284Y006291D02*
X020169Y006368D01*
X020284Y006445D01*
X020169Y006521D02*
X020169Y006291D01*
X020092Y006330D02*
X020054Y006291D01*
X019977Y006291D01*
X019939Y006330D01*
X020092Y006483D01*
X020092Y006330D01*
X020092Y006483D02*
X020054Y006521D01*
X019977Y006521D01*
X019939Y006483D01*
X019939Y006330D01*
X019862Y006291D02*
X019709Y006291D01*
X019785Y006291D02*
X019785Y006521D01*
X019709Y006445D01*
X017053Y007791D02*
X017053Y007906D01*
X017014Y007945D01*
X016899Y007945D01*
X016899Y007791D01*
X016823Y007830D02*
X016784Y007791D01*
X016707Y007791D01*
X016669Y007830D01*
X016823Y007983D01*
X016823Y007830D01*
X016823Y007983D02*
X016784Y008021D01*
X016707Y008021D01*
X016669Y007983D01*
X016669Y007830D01*
X016592Y007830D02*
X016554Y007791D01*
X016477Y007791D01*
X016439Y007830D01*
X016592Y007983D01*
X016592Y007830D01*
X016592Y007983D02*
X016554Y008021D01*
X016477Y008021D01*
X016439Y007983D01*
X016439Y007830D01*
X016362Y007791D02*
X016209Y007791D01*
X016285Y007791D02*
X016285Y008021D01*
X016209Y007945D01*
X015399Y008317D02*
X015360Y008279D01*
X015284Y008279D01*
X015284Y008394D01*
X015322Y008432D01*
X015360Y008432D01*
X015399Y008394D01*
X015399Y008317D01*
X015284Y008279D02*
X015207Y008355D01*
X015169Y008432D01*
X015207Y008624D02*
X015245Y008624D01*
X015284Y008662D01*
X015284Y008739D01*
X015322Y008777D01*
X015360Y008777D01*
X015399Y008739D01*
X015399Y008662D01*
X015360Y008624D01*
X015322Y008624D01*
X015284Y008662D01*
X015284Y008739D02*
X015245Y008777D01*
X015207Y008777D01*
X015169Y008739D01*
X015169Y008662D01*
X015207Y008624D01*
X015360Y008547D02*
X015399Y008547D01*
X015399Y008509D01*
X015360Y008509D01*
X015360Y008547D01*
X015322Y008854D02*
X015245Y008969D01*
X015169Y008854D02*
X015399Y008854D01*
X015322Y008854D02*
X015399Y008969D01*
X015360Y009279D02*
X015399Y009317D01*
X015399Y009394D01*
X015360Y009432D01*
X015322Y009432D01*
X015284Y009394D01*
X015284Y009355D01*
X015284Y009394D02*
X015245Y009432D01*
X015207Y009432D01*
X015169Y009394D01*
X015169Y009317D01*
X015207Y009279D01*
X015207Y009509D02*
X015169Y009547D01*
X015169Y009624D01*
X015207Y009662D01*
X015245Y009662D01*
X015284Y009624D01*
X015322Y009662D01*
X015360Y009662D01*
X015399Y009624D01*
X015399Y009547D01*
X015360Y009509D01*
X015284Y009586D02*
X015284Y009624D01*
X015245Y009739D02*
X015245Y009854D01*
X015284Y009893D01*
X015399Y009893D01*
X015399Y010008D02*
X015207Y010008D01*
X015169Y010046D01*
X015284Y010046D02*
X015284Y009969D01*
X015245Y009739D02*
X015399Y009739D01*
X016222Y009884D02*
X016260Y009845D01*
X016337Y009845D01*
X016375Y009884D01*
X016452Y009845D02*
X016605Y009845D01*
X016528Y009845D02*
X016528Y010075D01*
X016452Y009999D01*
X016375Y010037D02*
X016337Y010075D01*
X016260Y010075D01*
X016222Y010037D01*
X016222Y009884D01*
X016682Y009845D02*
X016835Y009845D01*
X016759Y009845D02*
X016759Y010075D01*
X016682Y009999D01*
X019515Y009375D02*
X019515Y009222D01*
X019630Y009222D01*
X019591Y009298D01*
X019591Y009337D01*
X019630Y009375D01*
X019706Y009375D01*
X019745Y009337D01*
X019745Y009260D01*
X019706Y009222D01*
X019745Y009145D02*
X019668Y009068D01*
X019668Y009107D02*
X019668Y008992D01*
X019745Y008992D02*
X019515Y008992D01*
X019515Y009107D01*
X019553Y009145D01*
X019630Y009145D01*
X019668Y009107D01*
X019722Y008575D02*
X019837Y008575D01*
X019875Y008537D01*
X019875Y008460D01*
X019837Y008422D01*
X019722Y008422D01*
X019798Y008422D02*
X019875Y008345D01*
X019952Y008384D02*
X019990Y008345D01*
X020067Y008345D01*
X020105Y008384D01*
X020105Y008422D01*
X020067Y008460D01*
X020028Y008460D01*
X020067Y008460D02*
X020105Y008499D01*
X020105Y008537D01*
X020067Y008575D01*
X019990Y008575D01*
X019952Y008537D01*
X019722Y008575D02*
X019722Y008345D01*
X022015Y008992D02*
X022015Y009107D01*
X022053Y009145D01*
X022130Y009145D01*
X022168Y009107D01*
X022168Y008992D01*
X022168Y009068D02*
X022245Y009145D01*
X022206Y009222D02*
X022245Y009260D01*
X022245Y009337D01*
X022206Y009375D01*
X022168Y009375D01*
X022130Y009337D01*
X022130Y009222D01*
X022206Y009222D01*
X022130Y009222D02*
X022053Y009298D01*
X022015Y009375D01*
X022015Y008992D02*
X022245Y008992D01*
X024069Y009017D02*
X024107Y008979D01*
X024069Y009017D02*
X024069Y009094D01*
X024107Y009132D01*
X024145Y009132D01*
X024299Y008979D01*
X024299Y009132D01*
X024299Y009209D02*
X024145Y009362D01*
X024107Y009362D01*
X024069Y009324D01*
X024069Y009247D01*
X024107Y009209D01*
X024299Y009209D02*
X024299Y009362D01*
X024299Y009439D02*
X024069Y009439D01*
X024145Y009554D02*
X024222Y009439D01*
X024299Y009554D01*
X024515Y009375D02*
X024553Y009375D01*
X024706Y009222D01*
X024745Y009222D01*
X024745Y009145D02*
X024668Y009068D01*
X024668Y009107D02*
X024668Y008992D01*
X024745Y008992D02*
X024515Y008992D01*
X024515Y009107D01*
X024553Y009145D01*
X024630Y009145D01*
X024668Y009107D01*
X024515Y009222D02*
X024515Y009375D01*
X027222Y009884D02*
X027222Y010037D01*
X027260Y010075D01*
X027337Y010075D01*
X027375Y010037D01*
X027452Y010075D02*
X027605Y010075D01*
X027605Y010037D01*
X027452Y009884D01*
X027452Y009845D01*
X027375Y009884D02*
X027337Y009845D01*
X027260Y009845D01*
X027222Y009884D01*
X025067Y008075D02*
X024952Y007960D01*
X025105Y007960D01*
X025067Y007845D02*
X025067Y008075D01*
X024875Y008037D02*
X024837Y008075D01*
X024760Y008075D01*
X024722Y008037D01*
X024722Y007884D01*
X024760Y007845D01*
X024837Y007845D01*
X024875Y007884D01*
X027209Y007945D02*
X027285Y008021D01*
X027285Y007791D01*
X027209Y007791D02*
X027362Y007791D01*
X027439Y007830D02*
X027592Y007983D01*
X027592Y007830D01*
X027554Y007791D01*
X027477Y007791D01*
X027439Y007830D01*
X027439Y007983D01*
X027477Y008021D01*
X027554Y008021D01*
X027592Y007983D01*
X027669Y007983D02*
X027707Y008021D01*
X027784Y008021D01*
X027823Y007983D01*
X027669Y007830D01*
X027707Y007791D01*
X027784Y007791D01*
X027823Y007830D01*
X027823Y007983D01*
X027899Y007945D02*
X028014Y007945D01*
X028053Y007906D01*
X028053Y007791D01*
X027899Y007791D02*
X027899Y007945D01*
X027669Y007983D02*
X027669Y007830D01*
X037815Y006637D02*
X037815Y006560D01*
X037853Y006522D01*
X037853Y006445D02*
X037815Y006407D01*
X037815Y006330D01*
X037853Y006292D01*
X038006Y006292D01*
X038045Y006330D01*
X038045Y006407D01*
X038006Y006445D01*
X038045Y006522D02*
X037891Y006675D01*
X037853Y006675D01*
X037815Y006637D01*
X038045Y006675D02*
X038045Y006522D01*
X027823Y003483D02*
X027669Y003330D01*
X027707Y003291D01*
X027784Y003291D01*
X027823Y003330D01*
X027823Y003483D01*
X027784Y003521D01*
X027707Y003521D01*
X027669Y003483D01*
X027669Y003330D01*
X027592Y003330D02*
X027554Y003291D01*
X027477Y003291D01*
X027439Y003330D01*
X027592Y003483D01*
X027592Y003330D01*
X027439Y003330D02*
X027439Y003483D01*
X027477Y003521D01*
X027554Y003521D01*
X027592Y003483D01*
X027285Y003521D02*
X027209Y003445D01*
X027285Y003521D02*
X027285Y003291D01*
X027209Y003291D02*
X027362Y003291D01*
X027899Y003291D02*
X027899Y003445D01*
X028014Y003445D01*
X028053Y003406D01*
X028053Y003291D01*
X038442Y003371D02*
X038442Y003191D01*
X038532Y003191D01*
X038562Y003221D01*
X038562Y003341D01*
X038532Y003371D01*
X038442Y003371D01*
X038626Y003341D02*
X038656Y003371D01*
X038716Y003371D01*
X038746Y003341D01*
X038746Y003311D01*
X038626Y003191D01*
X038746Y003191D01*
X016799Y004317D02*
X016799Y004394D01*
X016760Y004432D01*
X016722Y004432D01*
X016684Y004394D01*
X016684Y004279D01*
X016760Y004279D01*
X016799Y004317D01*
X016684Y004279D02*
X016607Y004355D01*
X016569Y004432D01*
X016760Y004509D02*
X016760Y004547D01*
X016799Y004547D01*
X016799Y004509D01*
X016760Y004509D01*
X016760Y004624D02*
X016722Y004624D01*
X016684Y004662D01*
X016684Y004739D01*
X016722Y004777D01*
X016760Y004777D01*
X016799Y004739D01*
X016799Y004662D01*
X016760Y004624D01*
X016684Y004662D02*
X016645Y004624D01*
X016607Y004624D01*
X016569Y004662D01*
X016569Y004739D01*
X016607Y004777D01*
X016645Y004777D01*
X016684Y004739D01*
X016722Y004854D02*
X016645Y004969D01*
X016569Y004854D02*
X016799Y004854D01*
X016722Y004854D02*
X016799Y004969D01*
X014745Y004637D02*
X014745Y004560D01*
X014706Y004522D01*
X014630Y004560D02*
X014630Y004675D01*
X014706Y004675D02*
X014553Y004675D01*
X014515Y004637D01*
X014515Y004560D01*
X014553Y004522D01*
X014591Y004522D01*
X014630Y004560D01*
X014630Y004445D02*
X014668Y004407D01*
X014668Y004292D01*
X014668Y004368D02*
X014745Y004445D01*
X014630Y004445D02*
X014553Y004445D01*
X014515Y004407D01*
X014515Y004292D01*
X014745Y004292D01*
X014745Y004637D02*
X014706Y004675D01*
X013105Y005384D02*
X013067Y005345D01*
X012990Y005345D01*
X012952Y005384D01*
X012952Y005422D01*
X012990Y005460D01*
X013067Y005460D01*
X013105Y005422D01*
X013105Y005384D01*
X013067Y005460D02*
X013105Y005499D01*
X013105Y005537D01*
X013067Y005575D01*
X012990Y005575D01*
X012952Y005537D01*
X012952Y005499D01*
X012990Y005460D01*
X012875Y005384D02*
X012837Y005345D01*
X012760Y005345D01*
X012722Y005384D01*
X012722Y005537D01*
X012760Y005575D01*
X012837Y005575D01*
X012875Y005537D01*
X014658Y005823D02*
X014658Y005977D01*
X014696Y006015D01*
X014773Y006015D01*
X014812Y005977D01*
X014888Y005900D02*
X014965Y005977D01*
X015042Y006015D01*
X015003Y005900D02*
X014888Y005900D01*
X014888Y005823D01*
X014927Y005785D01*
X015003Y005785D01*
X015042Y005823D01*
X015042Y005862D01*
X015003Y005900D01*
X014812Y005823D02*
X014773Y005785D01*
X014696Y005785D01*
X014658Y005823D01*
X008784Y005695D02*
X008669Y005618D01*
X008784Y005541D01*
X008669Y005541D02*
X008669Y005771D01*
X008592Y005733D02*
X008439Y005580D01*
X008477Y005541D01*
X008554Y005541D01*
X008592Y005580D01*
X008592Y005733D01*
X008554Y005771D01*
X008477Y005771D01*
X008439Y005733D01*
X008439Y005580D01*
X008362Y005541D02*
X008209Y005541D01*
X008285Y005541D02*
X008285Y005771D01*
X008209Y005695D01*
X007803Y005733D02*
X007803Y005656D01*
X007764Y005618D01*
X007649Y005618D01*
X007649Y005541D02*
X007649Y005771D01*
X007764Y005771D01*
X007803Y005733D01*
X007726Y005618D02*
X007803Y005541D01*
X007573Y005580D02*
X007534Y005541D01*
X007457Y005541D01*
X007419Y005580D01*
X007573Y005733D01*
X007573Y005580D01*
X007573Y005733D02*
X007534Y005771D01*
X007457Y005771D01*
X007419Y005733D01*
X007419Y005580D01*
X007342Y005541D02*
X007189Y005541D01*
X007342Y005695D01*
X007342Y005733D01*
X007304Y005771D01*
X007227Y005771D01*
X007189Y005733D01*
X007112Y005733D02*
X007074Y005771D01*
X006997Y005771D01*
X006959Y005733D01*
X007112Y005733D02*
X007112Y005695D01*
X006959Y005541D01*
X007112Y005541D01*
X006284Y005541D02*
X006169Y005618D01*
X006284Y005695D01*
X006169Y005771D02*
X006169Y005541D01*
X006092Y005580D02*
X006054Y005541D01*
X005977Y005541D01*
X005939Y005580D01*
X006092Y005733D01*
X006092Y005580D01*
X006092Y005733D02*
X006054Y005771D01*
X005977Y005771D01*
X005939Y005733D01*
X005939Y005580D01*
X005862Y005541D02*
X005709Y005541D01*
X005785Y005541D02*
X005785Y005771D01*
X005709Y005695D01*
X004099Y006929D02*
X003945Y007082D01*
X003907Y007082D01*
X003869Y007044D01*
X003869Y006967D01*
X003907Y006929D01*
X004099Y006929D02*
X004099Y007082D01*
X004099Y007159D02*
X003945Y007312D01*
X003907Y007312D01*
X003869Y007274D01*
X003869Y007197D01*
X003907Y007159D01*
X004099Y007159D02*
X004099Y007312D01*
X004060Y007389D02*
X003907Y007543D01*
X004060Y007543D01*
X004099Y007504D01*
X004099Y007427D01*
X004060Y007389D01*
X003907Y007389D01*
X003869Y007427D01*
X003869Y007504D01*
X003907Y007543D01*
X003869Y007619D02*
X004099Y007619D01*
X004022Y007619D02*
X004022Y007734D01*
X003984Y007773D01*
X003907Y007773D01*
X003869Y007734D01*
X003869Y007619D01*
X004022Y007696D02*
X004099Y007773D01*
X005722Y007825D02*
X005722Y007595D01*
X005722Y007672D02*
X005837Y007672D01*
X005875Y007710D01*
X005875Y007787D01*
X005837Y007825D01*
X005722Y007825D01*
X005798Y007672D02*
X005875Y007595D01*
X005952Y007595D02*
X006105Y007595D01*
X006028Y007595D02*
X006028Y007825D01*
X005952Y007749D01*
X006972Y007825D02*
X006972Y007595D01*
X006972Y007672D02*
X007087Y007672D01*
X007125Y007710D01*
X007125Y007787D01*
X007087Y007825D01*
X006972Y007825D01*
X007048Y007672D02*
X007125Y007595D01*
X007202Y007595D02*
X007355Y007595D01*
X007278Y007595D02*
X007278Y007825D01*
X007202Y007749D01*
X007432Y007787D02*
X007470Y007825D01*
X007547Y007825D01*
X007585Y007787D01*
X007585Y007749D01*
X007547Y007710D01*
X007585Y007672D01*
X007585Y007634D01*
X007547Y007595D01*
X007470Y007595D01*
X007432Y007634D01*
X007509Y007710D02*
X007547Y007710D01*
X008222Y007672D02*
X008337Y007672D01*
X008375Y007710D01*
X008375Y007787D01*
X008337Y007825D01*
X008222Y007825D01*
X008222Y007595D01*
X008298Y007672D02*
X008375Y007595D01*
X008452Y007710D02*
X008605Y007710D01*
X008567Y007595D02*
X008567Y007825D01*
X008452Y007710D01*
X013115Y008292D02*
X013115Y008407D01*
X013153Y008445D01*
X013230Y008445D01*
X013268Y008407D01*
X013268Y008292D01*
X013268Y008368D02*
X013345Y008445D01*
X013345Y008522D02*
X013345Y008675D01*
X013345Y008598D02*
X013115Y008598D01*
X013191Y008522D01*
X013115Y008292D02*
X013345Y008292D01*
X013345Y008752D02*
X013191Y008905D01*
X013153Y008905D01*
X013115Y008867D01*
X013115Y008790D01*
X013153Y008752D01*
X013345Y008752D02*
X013345Y008905D01*
X013306Y009292D02*
X013345Y009330D01*
X013345Y009407D01*
X013306Y009445D01*
X013306Y009522D02*
X013345Y009560D01*
X013345Y009637D01*
X013306Y009675D01*
X013268Y009675D01*
X013230Y009637D01*
X013230Y009598D01*
X013230Y009637D02*
X013191Y009675D01*
X013153Y009675D01*
X013115Y009637D01*
X013115Y009560D01*
X013153Y009522D01*
X013153Y009445D02*
X013115Y009407D01*
X013115Y009330D01*
X013153Y009292D01*
X013306Y009292D01*
X012799Y009279D02*
X012645Y009432D01*
X012607Y009432D01*
X012569Y009394D01*
X012569Y009317D01*
X012607Y009279D01*
X012799Y009279D02*
X012799Y009432D01*
X012799Y009509D02*
X012799Y009547D01*
X012760Y009547D01*
X012760Y009509D01*
X012799Y009509D01*
X012799Y009624D02*
X012645Y009777D01*
X012607Y009777D01*
X012569Y009739D01*
X012569Y009662D01*
X012607Y009624D01*
X012799Y009624D02*
X012799Y009777D01*
X012799Y009854D02*
X012569Y009854D01*
X012645Y009969D02*
X012722Y009854D01*
X012799Y009969D01*
X010745Y009637D02*
X010745Y009560D01*
X010706Y009522D01*
X010668Y009522D01*
X010630Y009560D01*
X010630Y009637D01*
X010668Y009675D01*
X010706Y009675D01*
X010745Y009637D01*
X010630Y009637D02*
X010591Y009675D01*
X010553Y009675D01*
X010515Y009637D01*
X010515Y009560D01*
X010553Y009522D01*
X010591Y009522D01*
X010630Y009560D01*
X010630Y009445D02*
X010668Y009407D01*
X010668Y009292D01*
X010668Y009368D02*
X010745Y009445D01*
X010630Y009445D02*
X010553Y009445D01*
X010515Y009407D01*
X010515Y009292D01*
X010745Y009292D01*
X014287Y008031D02*
X014326Y008069D01*
X014402Y008069D01*
X014441Y008031D01*
X014441Y007992D01*
X014287Y007839D01*
X014441Y007839D01*
X014517Y007839D02*
X014671Y007992D01*
X014671Y008031D01*
X014633Y008069D01*
X014556Y008069D01*
X014517Y008031D01*
X014517Y007839D02*
X014671Y007839D01*
X014748Y007839D02*
X014863Y007839D01*
X014901Y007877D01*
X014901Y007954D01*
X014863Y007992D01*
X014748Y007992D01*
X014748Y007762D01*
X015016Y007839D02*
X015016Y008031D01*
X015055Y008069D01*
X015055Y007954D02*
X014978Y007954D01*
X001745Y007517D02*
X001515Y007517D01*
X001630Y007402D01*
X001630Y007555D01*
X001745Y007325D02*
X001745Y007172D01*
X001745Y007248D02*
X001515Y007248D01*
X001591Y007172D01*
X001553Y007095D02*
X001630Y007095D01*
X001668Y007057D01*
X001668Y006942D01*
X001668Y007018D02*
X001745Y007095D01*
X001745Y006942D02*
X001515Y006942D01*
X001515Y007057D01*
X001553Y007095D01*
D12*
X001810Y007183D02*
X001810Y006930D01*
X002410Y006930D01*
X003060Y006930D02*
X003510Y006930D01*
X003510Y007183D01*
X003510Y007577D02*
X003510Y007830D01*
X003060Y007830D01*
X002360Y007830D02*
X001810Y007830D01*
X001810Y007577D01*
X005710Y007530D02*
X005710Y006930D01*
X006610Y006980D02*
X006610Y007530D01*
X006357Y007530D01*
X005963Y007530D02*
X005710Y007530D01*
X006960Y007530D02*
X006960Y006930D01*
X007860Y006980D02*
X007860Y007530D01*
X007607Y007530D01*
X007213Y007530D02*
X006960Y007530D01*
X008210Y007530D02*
X008210Y006930D01*
X009110Y006980D02*
X009110Y007530D01*
X008857Y007530D01*
X008463Y007530D02*
X008210Y007530D01*
X008210Y006280D02*
X008210Y005830D01*
X008463Y005830D01*
X008857Y005830D02*
X009110Y005830D01*
X009110Y006280D01*
X007860Y006280D02*
X007860Y005830D01*
X007607Y005830D01*
X007213Y005830D02*
X006960Y005830D01*
X006960Y006280D01*
X006610Y006280D02*
X006610Y005830D01*
X006357Y005830D01*
X005963Y005830D02*
X005710Y005830D01*
X005710Y006280D01*
X012229Y006279D02*
X012274Y006234D01*
X012454Y006234D01*
X012500Y006279D01*
X012500Y006369D01*
X012454Y006414D01*
X012500Y006510D02*
X012319Y006690D01*
X012274Y006690D01*
X012229Y006645D01*
X012229Y006555D01*
X012274Y006510D01*
X012274Y006414D02*
X012229Y006369D01*
X012229Y006279D01*
X012229Y006140D02*
X012229Y006050D01*
X012229Y006095D02*
X012500Y006095D01*
X012500Y006050D02*
X012500Y006140D01*
X012500Y006510D02*
X012500Y006690D01*
X014210Y006630D02*
X014210Y006080D01*
X014463Y006080D01*
X014857Y006080D02*
X015110Y006080D01*
X015110Y006680D01*
X015110Y007330D02*
X015110Y007780D01*
X014857Y007780D01*
X014463Y007780D02*
X014210Y007780D01*
X014210Y007330D01*
X016210Y008080D02*
X016210Y008530D01*
X017110Y008530D02*
X017110Y008080D01*
X016857Y008080D01*
X016463Y008080D02*
X016210Y008080D01*
X015110Y008280D02*
X014660Y008280D01*
X015110Y008280D02*
X015110Y008533D01*
X015110Y008927D02*
X015110Y009180D01*
X014660Y009180D01*
X014660Y009280D02*
X015110Y009280D01*
X015110Y009533D01*
X014010Y009280D02*
X013410Y009280D01*
X013410Y009533D01*
X012510Y009533D02*
X012510Y009280D01*
X012060Y009280D01*
X011410Y009280D02*
X010810Y009280D01*
X010810Y009533D01*
X010810Y009927D02*
X010810Y010180D01*
X011360Y010180D01*
X012060Y010180D02*
X012510Y010180D01*
X012510Y009927D01*
X013410Y009927D02*
X013410Y010180D01*
X013960Y010180D01*
X014660Y010180D02*
X015110Y010180D01*
X015110Y009927D01*
X016210Y009780D02*
X016210Y009180D01*
X017110Y009230D02*
X017110Y009780D01*
X016857Y009780D01*
X016463Y009780D02*
X016210Y009780D01*
X013960Y009180D02*
X013410Y009180D01*
X013410Y008927D01*
X013410Y008533D02*
X013410Y008280D01*
X014010Y008280D01*
X019710Y008280D02*
X019710Y007680D01*
X020610Y007730D02*
X020610Y008280D01*
X020357Y008280D01*
X019963Y008280D02*
X019710Y008280D01*
X019810Y008980D02*
X020410Y008980D01*
X021060Y008980D02*
X021510Y008980D01*
X021510Y009233D01*
X022310Y009233D02*
X022310Y008980D01*
X022910Y008980D01*
X023560Y008980D02*
X024010Y008980D01*
X024010Y009233D01*
X024810Y009233D02*
X024810Y008980D01*
X025410Y008980D01*
X026060Y008980D02*
X026510Y008980D01*
X026510Y009233D01*
X027210Y009180D02*
X027210Y009780D01*
X027463Y009780D01*
X027857Y009780D02*
X028110Y009780D01*
X028110Y009230D01*
X026510Y009627D02*
X026510Y009880D01*
X026060Y009880D01*
X025360Y009880D02*
X024810Y009880D01*
X024810Y009627D01*
X024010Y009627D02*
X024010Y009880D01*
X023560Y009880D01*
X022860Y009880D02*
X022310Y009880D01*
X022310Y009627D01*
X021510Y009627D02*
X021510Y009880D01*
X021060Y009880D01*
X020360Y009880D02*
X019810Y009880D01*
X019810Y009627D01*
X019810Y009233D02*
X019810Y008980D01*
X024710Y007780D02*
X024710Y007180D01*
X025610Y007230D02*
X025610Y007780D01*
X025357Y007780D01*
X024963Y007780D02*
X024710Y007780D01*
X027210Y007580D02*
X027210Y006980D01*
X028110Y007030D02*
X028110Y007580D01*
X027857Y007580D01*
X027463Y007580D02*
X027210Y007580D01*
X027210Y008080D02*
X027210Y008530D01*
X028110Y008530D02*
X028110Y008080D01*
X027857Y008080D01*
X027463Y008080D02*
X027210Y008080D01*
X023000Y006690D02*
X023000Y006510D01*
X023000Y006600D02*
X022729Y006600D01*
X022819Y006510D01*
X022774Y006414D02*
X022729Y006369D01*
X022729Y006279D01*
X022774Y006234D01*
X022954Y006234D01*
X023000Y006279D01*
X023000Y006369D01*
X022954Y006414D01*
X023000Y006140D02*
X023000Y006050D01*
X023000Y006095D02*
X022729Y006095D01*
X022729Y006050D02*
X022729Y006140D01*
X024710Y006080D02*
X024710Y006530D01*
X025610Y006530D02*
X025610Y006080D01*
X025357Y006080D01*
X024963Y006080D02*
X024710Y006080D01*
X027210Y005880D02*
X027210Y006330D01*
X028110Y006330D02*
X028110Y005880D01*
X027857Y005880D01*
X027463Y005880D02*
X027210Y005880D01*
X027210Y005280D02*
X027210Y004680D01*
X028110Y004730D02*
X028110Y005280D01*
X027857Y005280D01*
X027463Y005280D02*
X027210Y005280D01*
X025010Y005380D02*
X025010Y005127D01*
X025010Y005380D02*
X024560Y005380D01*
X023860Y005380D02*
X023310Y005380D01*
X023310Y005127D01*
X023310Y004733D02*
X023310Y004480D01*
X023910Y004480D01*
X024560Y004480D02*
X025010Y004480D01*
X025010Y004733D01*
X027210Y004030D02*
X027210Y003580D01*
X027463Y003580D01*
X027857Y003580D02*
X028110Y003580D01*
X028110Y004030D01*
X031397Y004714D02*
X031582Y004529D01*
X031582Y004776D01*
X031706Y004897D02*
X031767Y004897D01*
X031706Y004897D02*
X031459Y005144D01*
X031397Y005144D01*
X031397Y004897D01*
X031397Y004714D02*
X031767Y004714D01*
X032568Y004714D02*
X032568Y004591D01*
X032630Y004529D01*
X032877Y004529D01*
X032939Y004591D01*
X032939Y004714D01*
X032877Y004776D01*
X032939Y004897D02*
X032939Y005144D01*
X032939Y005021D02*
X032568Y005021D01*
X032692Y004897D01*
X032630Y004776D02*
X032568Y004714D01*
X032630Y005266D02*
X032568Y005327D01*
X032568Y005451D01*
X032630Y005513D01*
X032877Y005266D01*
X032939Y005327D01*
X032939Y005451D01*
X032877Y005513D01*
X032630Y005513D01*
X032630Y005266D02*
X032877Y005266D01*
X031767Y005327D02*
X031767Y005513D01*
X031521Y005513D01*
X031706Y005266D02*
X031767Y005327D01*
X031706Y005266D02*
X031521Y005266D01*
X034381Y004809D02*
X034381Y004686D01*
X034443Y004624D01*
X034504Y004624D01*
X034566Y004686D01*
X034566Y004871D01*
X034443Y004871D02*
X034381Y004809D01*
X034443Y004871D02*
X034690Y004871D01*
X034751Y004809D01*
X034751Y004686D01*
X034690Y004624D01*
X034690Y004503D02*
X034751Y004441D01*
X034751Y004318D01*
X034690Y004256D01*
X034443Y004256D01*
X034381Y004318D01*
X034381Y004441D01*
X034443Y004503D01*
X035552Y004441D02*
X035737Y004256D01*
X035737Y004503D01*
X035861Y004624D02*
X035923Y004624D01*
X035861Y004624D02*
X035614Y004871D01*
X035552Y004871D01*
X035552Y004624D01*
X035552Y004441D02*
X035923Y004441D01*
X035861Y004993D02*
X035923Y005054D01*
X035923Y005240D01*
X035676Y005240D01*
X035676Y004993D02*
X035861Y004993D01*
X038110Y006280D02*
X038710Y006280D01*
X039360Y006280D02*
X039810Y006280D01*
X039810Y006533D01*
X039810Y006927D02*
X039810Y007180D01*
X039360Y007180D01*
X038660Y007180D02*
X038110Y007180D01*
X038110Y006927D01*
X038110Y006533D02*
X038110Y006280D01*
X037192Y008662D02*
X037085Y008662D01*
X037032Y008716D01*
X037032Y008876D01*
X037032Y008769D02*
X036925Y008662D01*
X036925Y008876D02*
X037245Y008876D01*
X037245Y008716D01*
X037192Y008662D01*
X037245Y008985D02*
X037245Y009198D01*
X036925Y009198D01*
X036925Y008985D01*
X037085Y009091D02*
X037085Y009198D01*
X036925Y009307D02*
X037245Y009307D01*
X037032Y009414D02*
X036925Y009307D01*
X037032Y009414D02*
X036925Y009520D01*
X037245Y009520D01*
X037192Y009629D02*
X037245Y009683D01*
X037245Y009789D01*
X037192Y009843D01*
X036978Y009843D01*
X036925Y009789D01*
X036925Y009683D01*
X036978Y009629D01*
X037192Y009629D01*
X037192Y009951D02*
X037085Y009951D01*
X037032Y010005D01*
X037032Y010165D01*
X036925Y010165D02*
X037245Y010165D01*
X037245Y010005D01*
X037192Y009951D01*
X020610Y007030D02*
X020610Y006580D01*
X020357Y006580D01*
X019963Y006580D02*
X019710Y006580D01*
X019710Y007030D01*
X013610Y005280D02*
X013357Y005280D01*
X013610Y005280D02*
X013610Y004730D01*
X012710Y004680D02*
X012710Y005280D01*
X012963Y005280D01*
X014810Y005180D02*
X014810Y004927D01*
X014810Y005180D02*
X015360Y005180D01*
X016060Y005180D02*
X016510Y005180D01*
X016510Y004927D01*
X016510Y004533D02*
X016510Y004280D01*
X016060Y004280D01*
X016060Y004080D02*
X016510Y004080D01*
X016510Y003827D01*
X016510Y003433D02*
X016510Y003180D01*
X016060Y003180D01*
X015410Y003180D02*
X014810Y003180D01*
X014810Y003433D01*
X014810Y003827D02*
X014810Y004080D01*
X015360Y004080D01*
X015410Y004280D02*
X014810Y004280D01*
X014810Y004533D01*
X013610Y004030D02*
X013610Y003580D01*
X013357Y003580D01*
X012963Y003580D02*
X012710Y003580D01*
X012710Y004030D01*
X009710Y004080D02*
X009710Y003827D01*
X009710Y004080D02*
X009260Y004080D01*
X008560Y004080D02*
X008010Y004080D01*
X008010Y003827D01*
X008010Y003433D02*
X008010Y003180D01*
X008610Y003180D01*
X009260Y003180D02*
X009710Y003180D01*
X009710Y003433D01*
X003760Y003483D02*
X003760Y003230D01*
X003310Y003230D01*
X002660Y003230D02*
X002060Y003230D01*
X002060Y003483D01*
X002060Y003877D02*
X002060Y004130D01*
X002610Y004130D01*
X003310Y004130D02*
X003760Y004130D01*
X003760Y003877D01*
D13*
X031660Y008180D02*
X031660Y010680D01*
D14*
X036410Y010430D02*
X036660Y010180D01*
X036660Y008680D01*
X036410Y008430D01*
D15*
X035239Y010444D02*
X035073Y010444D01*
X035031Y010486D01*
X035031Y010569D01*
X035073Y010611D01*
X035156Y010611D02*
X035156Y010528D01*
X035156Y010611D02*
X035239Y010611D01*
X035281Y010569D01*
X035281Y010486D01*
X035239Y010444D01*
X035281Y010720D02*
X035031Y010720D01*
X035281Y010887D01*
X035031Y010887D01*
X035031Y010997D02*
X035031Y011122D01*
X035073Y011164D01*
X035239Y011164D01*
X035281Y011122D01*
X035281Y010997D01*
X035031Y010997D01*
X034288Y011007D02*
X034288Y011133D01*
X034247Y011174D01*
X034080Y011174D01*
X034038Y011133D01*
X034038Y011007D01*
X034288Y011007D01*
X034288Y010898D02*
X034038Y010898D01*
X034038Y010731D02*
X034288Y010898D01*
X034288Y010731D02*
X034038Y010731D01*
X034080Y010622D02*
X034038Y010580D01*
X034038Y010497D01*
X034080Y010455D01*
X034247Y010455D01*
X034288Y010497D01*
X034288Y010580D01*
X034247Y010622D01*
X034163Y010622D01*
X034163Y010538D01*
X033296Y010507D02*
X033254Y010466D01*
X033087Y010466D01*
X033045Y010507D01*
X033045Y010591D01*
X033087Y010633D01*
X033171Y010633D02*
X033171Y010549D01*
X033171Y010633D02*
X033254Y010633D01*
X033296Y010591D01*
X033296Y010507D01*
X033296Y010742D02*
X033045Y010742D01*
X033296Y010909D01*
X033045Y010909D01*
X033045Y011018D02*
X033045Y011143D01*
X033087Y011185D01*
X033254Y011185D01*
X033296Y011143D01*
X033296Y011018D01*
X033045Y011018D01*
X023108Y007875D02*
X022409Y007875D01*
X022409Y005985D01*
X022212Y005985D01*
X022212Y007875D01*
X022409Y007875D01*
X023108Y007875D02*
X023108Y005985D01*
X022409Y005985D01*
X030110Y004330D02*
X030360Y004080D01*
X030610Y004330D01*
X030110Y004330D01*
X030152Y004288D02*
X030568Y004288D01*
X030520Y004240D02*
X030200Y004240D01*
X030249Y004191D02*
X030471Y004191D01*
X030423Y004143D02*
X030297Y004143D01*
X030346Y004094D02*
X030374Y004094D01*
X030610Y004080D02*
X030110Y004080D01*
X030360Y003930D02*
X030360Y004630D01*
X038110Y004630D02*
X038360Y004380D01*
X038610Y004630D01*
X038110Y004630D01*
X038112Y004628D02*
X038608Y004628D01*
X038559Y004579D02*
X038161Y004579D01*
X038209Y004531D02*
X038511Y004531D01*
X038462Y004482D02*
X038258Y004482D01*
X038306Y004434D02*
X038414Y004434D01*
X038365Y004385D02*
X038355Y004385D01*
X038360Y004230D02*
X038360Y004930D01*
X038110Y004380D02*
X038610Y004380D01*
X012608Y005985D02*
X012608Y007875D01*
X011909Y007875D01*
X011909Y005985D01*
X011712Y005985D01*
X011712Y007875D01*
X011909Y007875D01*
X011909Y005985D02*
X012608Y005985D01*
D16*
X032160Y010475D02*
X032160Y010815D01*
X035994Y010665D02*
X036334Y010665D01*
X036164Y010835D02*
X036164Y010495D01*
D17*
X036062Y008360D02*
X035857Y008360D01*
X035857Y007950D01*
X035857Y007875D02*
X036501Y007875D01*
X036501Y007627D01*
X036545Y007950D02*
X036271Y007950D01*
X036271Y008360D01*
X036545Y008360D01*
X036130Y008292D02*
X036130Y008155D01*
X036062Y008087D01*
X035857Y008087D01*
X035717Y007950D02*
X035580Y007950D01*
X035649Y007950D02*
X035649Y008360D01*
X035717Y008360D02*
X035580Y008360D01*
X035440Y008292D02*
X035440Y008155D01*
X035371Y008087D01*
X035166Y008087D01*
X035303Y008087D02*
X035440Y007950D01*
X035463Y007875D02*
X034819Y007875D01*
X034819Y007627D01*
X034889Y007950D02*
X034889Y008360D01*
X035025Y008360D02*
X034752Y008360D01*
X034611Y008292D02*
X034543Y008360D01*
X034406Y008360D01*
X034337Y008292D01*
X034337Y008224D01*
X034406Y008155D01*
X034543Y008155D01*
X034611Y008087D01*
X034611Y008018D01*
X034543Y007950D01*
X034406Y007950D01*
X034337Y008018D01*
X033782Y008018D02*
X033782Y008292D01*
X033714Y008360D01*
X033509Y008360D01*
X033509Y007950D01*
X033714Y007950D01*
X033782Y008018D01*
X033368Y007950D02*
X033094Y007950D01*
X033094Y008360D01*
X033368Y008360D01*
X032954Y008292D02*
X032954Y008155D01*
X032885Y008087D01*
X032680Y008087D01*
X032817Y008087D02*
X032954Y007950D01*
X033094Y008155D02*
X033231Y008155D01*
X032680Y007950D02*
X032680Y008360D01*
X032885Y008360D01*
X032954Y008292D01*
X032501Y007875D02*
X031857Y007875D01*
X031463Y007875D02*
X030819Y007875D01*
X030819Y007627D01*
X030819Y007233D02*
X030819Y006985D01*
X031463Y006985D01*
X031857Y006985D02*
X032501Y006985D01*
X032501Y007233D01*
X032501Y007627D02*
X032501Y007875D01*
X034819Y007233D02*
X034819Y006985D01*
X035463Y006985D01*
X035857Y006985D02*
X036501Y006985D01*
X036501Y007233D01*
X035166Y007950D02*
X035166Y008360D01*
X035371Y008360D01*
X035440Y008292D01*
X036062Y008360D02*
X036130Y008292D01*
X036271Y008155D02*
X036408Y008155D01*
X035770Y006210D02*
X035534Y006210D01*
X035770Y006210D02*
X036440Y005540D01*
X036440Y003650D01*
X035534Y003650D01*
X034786Y003650D02*
X033880Y003650D01*
X033880Y005540D01*
X034550Y006210D01*
X034786Y006210D01*
X033440Y006210D02*
X033440Y004320D01*
X032770Y003650D01*
X032534Y003650D01*
X031786Y003650D02*
X031550Y003650D01*
X030880Y004320D01*
X030880Y006210D01*
X031786Y006210D01*
X032534Y006210D02*
X033440Y006210D01*
X030786Y005513D02*
X030786Y004987D01*
X029934Y004987D02*
X029934Y005513D01*
X030163Y005513D01*
X030557Y005513D02*
X030786Y005513D01*
X032534Y006091D02*
X032598Y006069D01*
X032661Y006042D01*
X032723Y006012D01*
X032782Y005979D01*
X032840Y005943D01*
X032896Y005903D01*
X032949Y005860D01*
X033000Y005815D01*
X033048Y005767D01*
X033093Y005716D01*
X033136Y005662D01*
X033175Y005606D01*
X033212Y005549D01*
X033245Y005489D01*
X033274Y005427D01*
X033300Y005364D01*
X033323Y005300D01*
X033342Y005234D01*
X033357Y005167D01*
X033368Y005100D01*
X033376Y005032D01*
X033380Y004964D01*
X033380Y004896D01*
X033376Y004828D01*
X033368Y004760D01*
X033357Y004693D01*
X033342Y004626D01*
X033323Y004560D01*
X033300Y004496D01*
X033274Y004433D01*
X033245Y004371D01*
X033212Y004311D01*
X033175Y004254D01*
X033136Y004198D01*
X033093Y004144D01*
X033048Y004093D01*
X033000Y004045D01*
X032949Y004000D01*
X032896Y003957D01*
X032840Y003917D01*
X032782Y003881D01*
X032723Y003848D01*
X032661Y003818D01*
X032598Y003791D01*
X032534Y003769D01*
X030786Y003673D02*
X030786Y003147D01*
X030557Y003147D01*
X030163Y003147D02*
X029934Y003147D01*
X029934Y003673D01*
X029934Y004067D02*
X029934Y004593D01*
X030786Y004593D02*
X030786Y004067D01*
X031786Y003769D02*
X031722Y003791D01*
X031659Y003818D01*
X031597Y003848D01*
X031538Y003881D01*
X031480Y003917D01*
X031424Y003957D01*
X031371Y004000D01*
X031320Y004045D01*
X031272Y004093D01*
X031227Y004144D01*
X031184Y004198D01*
X031145Y004254D01*
X031108Y004311D01*
X031075Y004371D01*
X031046Y004433D01*
X031020Y004496D01*
X030997Y004560D01*
X030978Y004626D01*
X030963Y004693D01*
X030952Y004760D01*
X030944Y004828D01*
X030940Y004896D01*
X030940Y004964D01*
X030944Y005032D01*
X030952Y005100D01*
X030963Y005167D01*
X030978Y005234D01*
X030997Y005300D01*
X031020Y005364D01*
X031046Y005427D01*
X031075Y005489D01*
X031108Y005549D01*
X031145Y005606D01*
X031184Y005662D01*
X031227Y005716D01*
X031272Y005767D01*
X031320Y005815D01*
X031371Y005860D01*
X031424Y005903D01*
X031480Y005943D01*
X031538Y005979D01*
X031597Y006012D01*
X031659Y006042D01*
X031722Y006069D01*
X031786Y006091D01*
X035534Y006091D02*
X035598Y006069D01*
X035661Y006042D01*
X035723Y006012D01*
X035782Y005979D01*
X035840Y005943D01*
X035896Y005903D01*
X035949Y005860D01*
X036000Y005815D01*
X036048Y005767D01*
X036093Y005716D01*
X036136Y005662D01*
X036175Y005606D01*
X036212Y005549D01*
X036245Y005489D01*
X036274Y005427D01*
X036300Y005364D01*
X036323Y005300D01*
X036342Y005234D01*
X036357Y005167D01*
X036368Y005100D01*
X036376Y005032D01*
X036380Y004964D01*
X036380Y004896D01*
X036376Y004828D01*
X036368Y004760D01*
X036357Y004693D01*
X036342Y004626D01*
X036323Y004560D01*
X036300Y004496D01*
X036274Y004433D01*
X036245Y004371D01*
X036212Y004311D01*
X036175Y004254D01*
X036136Y004198D01*
X036093Y004144D01*
X036048Y004093D01*
X036000Y004045D01*
X035949Y004000D01*
X035896Y003957D01*
X035840Y003917D01*
X035782Y003881D01*
X035723Y003848D01*
X035661Y003818D01*
X035598Y003791D01*
X035534Y003769D01*
X037934Y003973D02*
X037934Y003447D01*
X038163Y003447D01*
X038557Y003447D02*
X038786Y003447D01*
X038786Y003973D01*
X038786Y004367D02*
X038786Y004893D01*
X037934Y004893D02*
X037934Y004367D01*
X034786Y003769D02*
X034722Y003791D01*
X034659Y003818D01*
X034597Y003848D01*
X034538Y003881D01*
X034480Y003917D01*
X034424Y003957D01*
X034371Y004000D01*
X034320Y004045D01*
X034272Y004093D01*
X034227Y004144D01*
X034184Y004198D01*
X034145Y004254D01*
X034108Y004311D01*
X034075Y004371D01*
X034046Y004433D01*
X034020Y004496D01*
X033997Y004560D01*
X033978Y004626D01*
X033963Y004693D01*
X033952Y004760D01*
X033944Y004828D01*
X033940Y004896D01*
X033940Y004964D01*
X033944Y005032D01*
X033952Y005100D01*
X033963Y005167D01*
X033978Y005234D01*
X033997Y005300D01*
X034020Y005364D01*
X034046Y005427D01*
X034075Y005489D01*
X034108Y005549D01*
X034145Y005606D01*
X034184Y005662D01*
X034227Y005716D01*
X034272Y005767D01*
X034320Y005815D01*
X034371Y005860D01*
X034424Y005903D01*
X034480Y005943D01*
X034538Y005979D01*
X034597Y006012D01*
X034659Y006042D01*
X034722Y006069D01*
X034786Y006091D01*
X037934Y005813D02*
X037934Y005287D01*
X038786Y005287D02*
X038786Y005813D01*
X038557Y005813D01*
X038163Y005813D02*
X037934Y005813D01*
X022491Y007696D02*
X022493Y007716D01*
X022499Y007734D01*
X022508Y007752D01*
X022520Y007767D01*
X022535Y007779D01*
X022553Y007788D01*
X022571Y007794D01*
X022591Y007796D01*
X022611Y007794D01*
X022629Y007788D01*
X022647Y007779D01*
X022662Y007767D01*
X022674Y007752D01*
X022683Y007734D01*
X022689Y007716D01*
X022691Y007696D01*
X022689Y007676D01*
X022683Y007658D01*
X022674Y007640D01*
X022662Y007625D01*
X022647Y007613D01*
X022629Y007604D01*
X022611Y007598D01*
X022591Y007596D01*
X022571Y007598D01*
X022553Y007604D01*
X022535Y007613D01*
X022520Y007625D01*
X022508Y007640D01*
X022499Y007658D01*
X022493Y007676D01*
X022491Y007696D01*
X011991Y007696D02*
X011993Y007716D01*
X011999Y007734D01*
X012008Y007752D01*
X012020Y007767D01*
X012035Y007779D01*
X012053Y007788D01*
X012071Y007794D01*
X012091Y007796D01*
X012111Y007794D01*
X012129Y007788D01*
X012147Y007779D01*
X012162Y007767D01*
X012174Y007752D01*
X012183Y007734D01*
X012189Y007716D01*
X012191Y007696D01*
X012189Y007676D01*
X012183Y007658D01*
X012174Y007640D01*
X012162Y007625D01*
X012147Y007613D01*
X012129Y007604D01*
X012111Y007598D01*
X012091Y007596D01*
X012071Y007598D01*
X012053Y007604D01*
X012035Y007613D01*
X012020Y007625D01*
X012008Y007640D01*
X011999Y007658D01*
X011993Y007676D01*
X011991Y007696D01*
D18*
X031910Y008180D02*
X032160Y007930D01*
X031910Y008180D02*
X032160Y008430D01*
X032410Y008180D02*
X031910Y008180D01*
D19*
X032565Y007763D02*
X032590Y007788D01*
X032615Y007788D01*
X032715Y007688D01*
X032715Y007788D01*
X032565Y007763D02*
X032565Y007713D01*
X032590Y007688D01*
X032565Y007640D02*
X032565Y007540D01*
X032715Y007540D01*
X032640Y007540D02*
X032640Y007590D01*
X034605Y007232D02*
X034755Y007232D01*
X034755Y007182D02*
X034755Y007282D01*
X034655Y007182D02*
X034605Y007232D01*
X034605Y007135D02*
X034605Y007035D01*
X034755Y007035D01*
X034680Y007035D02*
X034680Y007085D01*
X036605Y007060D02*
X036605Y006985D01*
X036755Y006985D01*
X036705Y006985D02*
X036705Y007060D01*
X036680Y007085D01*
X036630Y007085D01*
X036605Y007060D01*
X036605Y007132D02*
X036605Y007232D01*
X036605Y007182D02*
X036755Y007182D01*
X036730Y007280D02*
X036755Y007305D01*
X036755Y007355D01*
X036730Y007380D01*
X036730Y007427D02*
X036755Y007452D01*
X036755Y007502D01*
X036730Y007527D01*
X036705Y007527D01*
X036680Y007502D01*
X036680Y007452D01*
X036655Y007427D01*
X036630Y007427D01*
X036605Y007452D01*
X036605Y007502D01*
X036630Y007527D01*
X036605Y007574D02*
X036655Y007624D01*
X036605Y007674D01*
X036755Y007674D01*
X036755Y007722D02*
X036755Y007797D01*
X036730Y007822D01*
X036630Y007822D01*
X036605Y007797D01*
X036605Y007722D01*
X036755Y007722D01*
X036755Y007574D02*
X036605Y007574D01*
X036630Y007380D02*
X036605Y007355D01*
X036605Y007305D01*
X036630Y007280D01*
X036730Y007280D01*
X030715Y007321D02*
X030715Y007371D01*
X030690Y007396D01*
X030690Y007443D02*
X030715Y007468D01*
X030715Y007518D01*
X030690Y007543D01*
X030665Y007543D01*
X030640Y007518D01*
X030640Y007468D01*
X030615Y007443D01*
X030590Y007443D01*
X030565Y007468D01*
X030565Y007518D01*
X030590Y007543D01*
X030565Y007590D02*
X030615Y007640D01*
X030565Y007690D01*
X030715Y007690D01*
X030715Y007738D02*
X030715Y007813D01*
X030690Y007838D01*
X030590Y007838D01*
X030565Y007813D01*
X030565Y007738D01*
X030715Y007738D01*
X030715Y007590D02*
X030565Y007590D01*
X030590Y007396D02*
X030565Y007371D01*
X030565Y007321D01*
X030590Y007296D01*
X030690Y007296D01*
X030715Y007321D01*
X030715Y007198D02*
X030565Y007198D01*
X030565Y007148D02*
X030565Y007248D01*
X030590Y007101D02*
X030640Y007101D01*
X030665Y007076D01*
X030665Y007001D01*
X030715Y007001D02*
X030565Y007001D01*
X030565Y007076D01*
X030590Y007101D01*
M02*
