G75*
%MOIN*%
%OFA0B0*%
%FSLAX24Y24*%
%IPPOS*%
%LPD*%
%AMOC8*
5,1,8,0,0,1.08239X$1,22.5*
%
%ADD10C,0.0000*%
%ADD11R,0.0591X0.0512*%
%ADD12R,0.0512X0.0591*%
%ADD13R,0.0660X0.0660*%
%ADD14OC8,0.0660*%
%ADD15R,0.1227X0.1227*%
%ADD16C,0.0650*%
%ADD17OC8,0.0600*%
%ADD18R,0.0551X0.1181*%
%ADD19R,0.0866X0.0236*%
%ADD20R,0.0394X0.0709*%
%ADD21R,0.0551X0.0551*%
%ADD22C,0.0120*%
%ADD23C,0.0240*%
%ADD24C,0.0160*%
D10*
X001160Y002930D02*
X001160Y010430D01*
X040530Y010430D01*
X040530Y002930D01*
X001160Y002930D01*
D11*
X006160Y006306D03*
X007410Y006306D03*
X008660Y006306D03*
X008660Y007054D03*
X007410Y007054D03*
X006160Y007054D03*
X013160Y004804D03*
X013160Y004056D03*
X014660Y006556D03*
X014660Y007304D03*
X016660Y008556D03*
X016660Y009304D03*
X020160Y007804D03*
X020160Y007056D03*
X025160Y007304D03*
X027660Y007104D03*
X025160Y006556D03*
X027660Y006356D03*
X027660Y004804D03*
X027660Y004056D03*
X027660Y008556D03*
X027660Y009304D03*
D12*
X026034Y009430D03*
X025286Y009430D03*
X023534Y009430D03*
X022786Y009430D03*
X021034Y009430D03*
X020286Y009430D03*
X014634Y009730D03*
X013886Y009730D03*
X012034Y009730D03*
X011286Y009730D03*
X013886Y008730D03*
X014634Y008730D03*
X003034Y007380D03*
X002286Y007380D03*
X002536Y003680D03*
X003284Y003680D03*
X008486Y003630D03*
X009234Y003630D03*
X015286Y003630D03*
X016034Y003630D03*
X016034Y004730D03*
X015286Y004730D03*
X023786Y004930D03*
X024534Y004930D03*
X038586Y006730D03*
X039334Y006730D03*
D13*
X037154Y005696D03*
X026404Y005696D03*
X015654Y005696D03*
D14*
X015654Y006680D03*
X015654Y007664D03*
X026404Y007664D03*
X026404Y006680D03*
X037154Y006680D03*
X037154Y007664D03*
D15*
X039910Y008452D03*
X029160Y008452D03*
X018410Y008452D03*
X018410Y004908D03*
X029160Y004908D03*
X039910Y004908D03*
D16*
X011719Y004730D03*
X010538Y004730D03*
X007191Y004730D03*
X006119Y004730D03*
X004938Y004730D03*
X001591Y004730D03*
X001591Y008630D03*
X004938Y008630D03*
X006119Y008630D03*
X007191Y008630D03*
X010538Y008630D03*
X011719Y008630D03*
D17*
X032160Y008930D03*
X033160Y008930D03*
X034160Y008930D03*
X035160Y008930D03*
X036160Y008930D03*
X036160Y009930D03*
X035160Y009930D03*
X034160Y009930D03*
X033160Y009930D03*
X032160Y009930D03*
D18*
X032160Y005875D03*
X035160Y005875D03*
X035160Y003985D03*
X032160Y003985D03*
D19*
X023684Y006180D03*
X023684Y006680D03*
X023684Y007180D03*
X023684Y007680D03*
X021636Y007680D03*
X021636Y007180D03*
X021636Y006680D03*
X021636Y006180D03*
X013184Y006180D03*
X013184Y006680D03*
X013184Y007180D03*
X013184Y007680D03*
X011136Y007680D03*
X011136Y007180D03*
X011136Y006680D03*
X011136Y006180D03*
D20*
X031109Y007430D03*
X032211Y007430D03*
X035109Y007430D03*
X036211Y007430D03*
D21*
X038360Y005378D03*
X038360Y003882D03*
X030360Y003582D03*
X030360Y005078D03*
D22*
X030756Y005063D02*
X035994Y005063D01*
X035876Y005182D02*
X035502Y005182D01*
X035485Y005164D02*
X035556Y005235D01*
X035556Y005502D01*
X036296Y004761D01*
X036355Y004702D01*
X036462Y004596D01*
X036741Y004480D01*
X037067Y004480D01*
X037197Y004471D01*
X037448Y004404D01*
X037672Y004275D01*
X037770Y004189D01*
X037824Y004136D01*
X037964Y003995D01*
X037964Y003557D01*
X038035Y003486D01*
X038685Y003486D01*
X038756Y003557D01*
X038756Y004207D01*
X038685Y004278D01*
X038247Y004278D01*
X038106Y004418D01*
X038053Y004472D01*
X037923Y004602D01*
X037605Y004785D01*
X037251Y004880D01*
X036892Y004880D01*
X036822Y004887D01*
X036692Y004941D01*
X036638Y004985D01*
X036579Y005044D01*
X035665Y005958D01*
X035556Y006067D01*
X035556Y006515D01*
X035485Y006585D01*
X035309Y006585D01*
X035309Y006956D01*
X035355Y006956D01*
X035426Y007026D01*
X035426Y007834D01*
X035355Y007904D01*
X034862Y007904D01*
X034792Y007834D01*
X034792Y007635D01*
X034708Y007670D01*
X034612Y007670D01*
X034524Y007633D01*
X034457Y007566D01*
X034420Y007478D01*
X034420Y007382D01*
X034457Y007294D01*
X034524Y007227D01*
X034612Y007190D01*
X034708Y007190D01*
X034792Y007225D01*
X034792Y007026D01*
X034862Y006956D01*
X034909Y006956D01*
X034909Y006585D01*
X034835Y006585D01*
X034764Y006515D01*
X034764Y005235D01*
X034835Y005164D01*
X035485Y005164D01*
X035556Y005300D02*
X035757Y005300D01*
X035639Y005419D02*
X035556Y005419D01*
X036086Y005537D02*
X036704Y005537D01*
X036704Y005419D02*
X036204Y005419D01*
X036323Y005300D02*
X036720Y005300D01*
X036704Y005316D02*
X036774Y005246D01*
X037534Y005246D01*
X037604Y005316D01*
X037604Y006075D01*
X037534Y006146D01*
X036774Y006146D01*
X036704Y006075D01*
X036704Y005316D01*
X036441Y005182D02*
X037924Y005182D01*
X037924Y005081D02*
X037935Y005041D01*
X037956Y005004D01*
X037986Y004974D01*
X038023Y004953D01*
X038063Y004942D01*
X038300Y004942D01*
X038300Y005318D01*
X038420Y005318D01*
X038420Y004942D01*
X038657Y004942D01*
X038697Y004953D01*
X038734Y004974D01*
X038764Y005004D01*
X038785Y005041D01*
X038796Y005081D01*
X038796Y005318D01*
X038420Y005318D01*
X038420Y005438D01*
X038796Y005438D01*
X038796Y005675D01*
X038785Y005715D01*
X038764Y005752D01*
X038734Y005782D01*
X038697Y005803D01*
X038657Y005814D01*
X038420Y005814D01*
X038420Y005438D01*
X038300Y005438D01*
X038300Y005318D01*
X037924Y005318D01*
X037924Y005081D01*
X037929Y005063D02*
X036560Y005063D01*
X036579Y005044D02*
X036579Y005044D01*
X036687Y004945D02*
X038056Y004945D01*
X038300Y004945D02*
X038420Y004945D01*
X038420Y005063D02*
X038300Y005063D01*
X038300Y005182D02*
X038420Y005182D01*
X038420Y005300D02*
X038300Y005300D01*
X038300Y005419D02*
X037604Y005419D01*
X037604Y005537D02*
X037924Y005537D01*
X037924Y005438D02*
X037924Y005675D01*
X037935Y005715D01*
X037956Y005752D01*
X037986Y005782D01*
X038023Y005803D01*
X038063Y005814D01*
X038300Y005814D01*
X038300Y005438D01*
X037924Y005438D01*
X037924Y005300D02*
X037588Y005300D01*
X038300Y005537D02*
X038420Y005537D01*
X038420Y005419D02*
X039177Y005419D01*
X039177Y005537D02*
X038796Y005537D01*
X038796Y005656D02*
X040370Y005656D01*
X040370Y005642D02*
X039247Y005642D01*
X039177Y005571D01*
X039177Y004245D01*
X039247Y004175D01*
X040370Y004175D01*
X040370Y003090D01*
X001320Y003090D01*
X001320Y004372D01*
X001340Y004353D01*
X001503Y004285D01*
X001680Y004285D01*
X001843Y004353D01*
X001910Y004420D01*
X002028Y004382D01*
X002113Y004341D01*
X002251Y004212D01*
X002301Y004095D01*
X002230Y004095D01*
X002160Y004025D01*
X002160Y003335D01*
X002230Y003265D01*
X002842Y003265D01*
X002910Y003333D01*
X002978Y003265D01*
X003590Y003265D01*
X003660Y003335D01*
X003660Y003480D01*
X007667Y003480D01*
X007870Y003564D01*
X008026Y003720D01*
X008110Y003923D01*
X008110Y004284D01*
X008113Y004314D01*
X008136Y004369D01*
X008155Y004392D01*
X008204Y004441D01*
X008214Y004451D01*
X008220Y004457D01*
X008220Y004382D01*
X008257Y004294D01*
X008285Y004265D01*
X008292Y004045D01*
X008180Y004045D01*
X008110Y003975D01*
X008110Y003285D01*
X008180Y003215D01*
X008792Y003215D01*
X008860Y003283D01*
X008928Y003215D01*
X009540Y003215D01*
X009610Y003285D01*
X009610Y003450D01*
X014910Y003450D01*
X014910Y003285D01*
X014980Y003215D01*
X015592Y003215D01*
X015660Y003283D01*
X015728Y003215D01*
X016340Y003215D01*
X016410Y003285D01*
X016410Y003975D01*
X016340Y004045D01*
X016214Y004045D01*
X016214Y004315D01*
X016340Y004315D01*
X016410Y004385D01*
X016410Y005075D01*
X016340Y005145D01*
X016214Y005145D01*
X016214Y005390D01*
X016104Y005500D01*
X016104Y006075D01*
X016034Y006146D01*
X015274Y006146D01*
X015204Y006075D01*
X015204Y005316D01*
X015274Y005246D01*
X015850Y005246D01*
X015854Y005241D01*
X015854Y005145D01*
X015728Y005145D01*
X015660Y005077D01*
X015592Y005145D01*
X014980Y005145D01*
X014910Y005075D01*
X014910Y004910D01*
X014296Y004910D01*
X014208Y004923D01*
X014044Y005000D01*
X013992Y005046D01*
X013893Y005252D01*
X013892Y005288D01*
X013862Y005316D01*
X013844Y005354D01*
X013810Y005366D01*
X013754Y005418D01*
X013754Y005419D02*
X015204Y005419D01*
X015204Y005537D02*
X013366Y005537D01*
X013358Y005538D02*
X013351Y005533D01*
X013254Y005537D01*
X013356Y005537D01*
X013358Y005538D02*
X013425Y005530D01*
X013492Y005528D01*
X013498Y005522D01*
X013546Y005516D01*
X013546Y005516D01*
X013754Y005418D01*
X013754Y005418D01*
X013879Y005300D02*
X015220Y005300D01*
X015654Y005696D02*
X016034Y005316D01*
X016034Y004730D01*
X016034Y003630D01*
X016410Y003641D02*
X027340Y003641D01*
X027344Y003640D02*
X027600Y003640D01*
X027600Y003996D01*
X027205Y003996D01*
X027205Y003779D01*
X027216Y003738D01*
X027237Y003702D01*
X027266Y003672D01*
X027303Y003651D01*
X027344Y003640D01*
X027210Y003760D02*
X027029Y003760D01*
X026996Y003727D02*
X027063Y003794D01*
X027100Y003882D01*
X027100Y003914D01*
X027256Y004116D01*
X027600Y004116D01*
X027600Y003996D01*
X027720Y003996D01*
X027720Y004116D01*
X028115Y004116D01*
X028115Y004333D01*
X028104Y004374D01*
X028083Y004410D01*
X028054Y004440D01*
X028030Y004453D01*
X028075Y004498D01*
X028075Y005039D01*
X028427Y005527D01*
X028427Y004245D01*
X028497Y004175D01*
X029823Y004175D01*
X029893Y004245D01*
X029893Y005571D01*
X029823Y005642D01*
X028509Y005642D01*
X028517Y005652D01*
X028533Y005675D01*
X030160Y005675D01*
X030160Y005474D01*
X030035Y005474D01*
X029964Y005403D01*
X029964Y004753D01*
X030035Y004682D01*
X030685Y004682D01*
X030756Y004753D01*
X030756Y005403D01*
X030685Y005474D01*
X030560Y005474D01*
X030560Y005675D01*
X031764Y005675D01*
X031764Y005235D01*
X031835Y005164D01*
X032485Y005164D01*
X032556Y005235D01*
X032556Y006515D01*
X032485Y006585D01*
X032411Y006585D01*
X032411Y006956D01*
X032458Y006956D01*
X032528Y007026D01*
X032528Y007834D01*
X032458Y007904D01*
X031965Y007904D01*
X031894Y007834D01*
X031894Y007026D01*
X031965Y006956D01*
X032011Y006956D01*
X032011Y006585D01*
X031835Y006585D01*
X031764Y006515D01*
X031764Y006075D01*
X028436Y006075D01*
X028266Y005988D01*
X028266Y005988D01*
X028266Y005988D01*
X028258Y005977D01*
X028216Y005919D01*
X028210Y005910D01*
X028161Y005843D01*
X028161Y005843D01*
X027684Y005180D01*
X027315Y005180D01*
X027245Y005110D01*
X027245Y004756D01*
X026783Y004158D01*
X026724Y004133D01*
X026657Y004066D01*
X026620Y003978D01*
X026620Y003882D01*
X026657Y003794D01*
X026724Y003727D01*
X026812Y003690D01*
X026908Y003690D01*
X026996Y003727D01*
X027098Y003878D02*
X027205Y003878D01*
X027164Y003997D02*
X027600Y003997D01*
X027600Y004115D02*
X027255Y004115D01*
X026841Y004234D02*
X019132Y004234D01*
X019143Y004245D02*
X019143Y005571D01*
X019073Y005642D01*
X017747Y005642D01*
X017677Y005571D01*
X017677Y004245D01*
X017747Y004175D01*
X019073Y004175D01*
X019143Y004245D01*
X019143Y004352D02*
X026933Y004352D01*
X027024Y004471D02*
X019143Y004471D01*
X019143Y004589D02*
X023410Y004589D01*
X023410Y004585D02*
X023480Y004515D01*
X024092Y004515D01*
X024160Y004583D01*
X024228Y004515D01*
X024840Y004515D01*
X024910Y004585D01*
X024910Y004991D01*
X025564Y005492D01*
X025580Y005502D01*
X025615Y005514D01*
X025634Y005516D01*
X025954Y005516D01*
X025954Y005316D01*
X026024Y005246D01*
X026784Y005246D01*
X026854Y005316D01*
X026854Y005992D01*
X026994Y006176D01*
X027245Y006176D01*
X027245Y006050D01*
X027315Y005980D01*
X028005Y005980D01*
X028075Y006050D01*
X028075Y006662D01*
X028007Y006730D01*
X028075Y006798D01*
X028075Y007410D01*
X028005Y007480D01*
X027840Y007480D01*
X027840Y007521D01*
X027863Y007544D01*
X027900Y007632D01*
X027900Y007728D01*
X027863Y007816D01*
X027796Y007883D01*
X027708Y007920D01*
X027612Y007920D01*
X027524Y007883D01*
X027457Y007816D01*
X027420Y007728D01*
X027420Y007632D01*
X027457Y007544D01*
X027480Y007521D01*
X027480Y007480D01*
X027315Y007480D01*
X027245Y007410D01*
X027245Y006798D01*
X027313Y006730D01*
X027245Y006662D01*
X027245Y006536D01*
X026965Y006536D01*
X026953Y006544D01*
X026892Y006536D01*
X026854Y006536D01*
X026854Y006866D01*
X026853Y006868D01*
X026879Y006895D01*
X026879Y006895D01*
X026962Y006977D01*
X026962Y006977D01*
X027079Y007181D01*
X027140Y007407D01*
X027140Y009653D01*
X027053Y009863D01*
X026893Y010023D01*
X026893Y010023D01*
X026683Y010110D01*
X023185Y010110D01*
X022889Y009988D01*
X022799Y009897D01*
X022760Y009879D01*
X022748Y009846D01*
X022747Y009845D01*
X022480Y009845D01*
X022410Y009775D01*
X022410Y009085D01*
X022480Y009015D01*
X023092Y009015D01*
X023160Y009083D01*
X023228Y009015D01*
X023840Y009015D01*
X023910Y009085D01*
X023910Y009250D01*
X024910Y009250D01*
X024910Y009085D01*
X024980Y009015D01*
X025106Y009015D01*
X025106Y008925D01*
X025244Y008591D01*
X025319Y008516D01*
X025466Y008369D01*
X025519Y008317D01*
X025581Y008246D01*
X025675Y008083D01*
X025724Y007901D01*
X025730Y007807D01*
X025730Y007061D01*
X025708Y007070D01*
X025700Y007070D01*
X025575Y007228D01*
X025575Y007610D01*
X025505Y007680D01*
X024815Y007680D01*
X024745Y007610D01*
X024745Y007360D01*
X024225Y007360D01*
X024166Y007418D01*
X023201Y007418D01*
X023131Y007348D01*
X023131Y007255D01*
X022845Y006970D01*
X022812Y006970D01*
X022724Y006933D01*
X022657Y006866D01*
X022620Y006778D01*
X022620Y006682D01*
X022657Y006594D01*
X022724Y006527D01*
X022780Y006503D01*
X022780Y005800D01*
X022882Y005553D01*
X022924Y005511D01*
X023410Y005025D01*
X023410Y004585D01*
X023410Y004708D02*
X019143Y004708D01*
X019143Y004826D02*
X023410Y004826D01*
X023410Y004945D02*
X019143Y004945D01*
X019143Y005063D02*
X023372Y005063D01*
X023254Y005182D02*
X019143Y005182D01*
X019143Y005300D02*
X023135Y005300D01*
X023017Y005419D02*
X019143Y005419D01*
X019143Y005537D02*
X022898Y005537D01*
X022882Y005553D02*
X022882Y005553D01*
X022840Y005656D02*
X021825Y005656D01*
X021796Y005627D02*
X021863Y005694D01*
X021900Y005782D01*
X021900Y005878D01*
X021873Y005942D01*
X022119Y005942D01*
X022189Y006012D01*
X022189Y006348D01*
X022126Y006411D01*
X022131Y006413D01*
X022168Y006434D01*
X022197Y006464D01*
X022219Y006500D01*
X022229Y006541D01*
X022229Y006680D01*
X022229Y006819D01*
X022219Y006860D01*
X022197Y006896D01*
X022168Y006926D01*
X022131Y006947D01*
X022126Y006949D01*
X022189Y007012D01*
X022189Y007348D01*
X022119Y007418D01*
X021154Y007418D01*
X021095Y007360D01*
X020575Y007360D01*
X020575Y007362D01*
X020507Y007430D01*
X020575Y007498D01*
X020575Y007500D01*
X021095Y007500D01*
X021154Y007442D01*
X022119Y007442D01*
X022189Y007512D01*
X022189Y007848D01*
X022119Y007918D01*
X021840Y007918D01*
X021840Y008021D01*
X021863Y008044D01*
X021900Y008132D01*
X021900Y008228D01*
X021863Y008316D01*
X021796Y008383D01*
X021708Y008420D01*
X021612Y008420D01*
X021524Y008383D01*
X021457Y008316D01*
X021420Y008228D01*
X021420Y008132D01*
X021457Y008044D01*
X021480Y008021D01*
X021480Y007918D01*
X021154Y007918D01*
X021095Y007860D01*
X020575Y007860D01*
X020575Y008110D01*
X020505Y008180D01*
X020466Y008180D01*
X020466Y009015D01*
X020592Y009015D01*
X020660Y009083D01*
X020728Y009015D01*
X021071Y009015D01*
X021085Y009000D01*
X021378Y008707D01*
X021378Y008707D01*
X021450Y008635D01*
X021450Y008635D01*
X021450Y008635D01*
X021776Y008500D01*
X024751Y008500D01*
X024774Y008477D01*
X024862Y008440D01*
X024958Y008440D01*
X025046Y008477D01*
X025113Y008544D01*
X025150Y008632D01*
X025150Y008728D01*
X025113Y008816D01*
X025046Y008883D01*
X024958Y008920D01*
X024862Y008920D01*
X024774Y008883D01*
X024751Y008860D01*
X021953Y008860D01*
X021850Y008870D01*
X021660Y008949D01*
X021580Y009014D01*
X021410Y009185D01*
X021410Y009775D01*
X021340Y009845D01*
X020728Y009845D01*
X020660Y009777D01*
X020592Y009845D01*
X019980Y009845D01*
X019910Y009775D01*
X019910Y009085D01*
X019980Y009015D01*
X020106Y009015D01*
X020106Y008180D01*
X019815Y008180D01*
X019745Y008110D01*
X019745Y007498D01*
X019813Y007430D01*
X019745Y007362D01*
X019745Y006910D01*
X019619Y006910D01*
X019596Y006933D01*
X019508Y006970D01*
X019412Y006970D01*
X019324Y006933D01*
X019257Y006866D01*
X019220Y006778D01*
X019220Y006682D01*
X019257Y006594D01*
X019324Y006527D01*
X019412Y006490D01*
X019508Y006490D01*
X019596Y006527D01*
X019619Y006550D01*
X019909Y006550D01*
X020039Y006680D01*
X020505Y006680D01*
X020575Y006750D01*
X020575Y007000D01*
X021095Y007000D01*
X021147Y006949D01*
X021142Y006947D01*
X021105Y006926D01*
X021075Y006896D01*
X021054Y006860D01*
X021043Y006819D01*
X021043Y006680D01*
X021043Y006541D01*
X021054Y006500D01*
X021075Y006464D01*
X021105Y006434D01*
X021142Y006413D01*
X021147Y006411D01*
X021083Y006348D01*
X021083Y006012D01*
X021154Y005942D01*
X021436Y005942D01*
X021436Y005917D01*
X021420Y005878D01*
X021420Y005782D01*
X021457Y005694D01*
X021524Y005627D01*
X021612Y005590D01*
X021708Y005590D01*
X021796Y005627D01*
X021897Y005774D02*
X022791Y005774D01*
X022780Y005893D02*
X021894Y005893D01*
X021660Y005830D02*
X021636Y005830D01*
X021426Y005893D02*
X016104Y005893D01*
X016104Y006011D02*
X021084Y006011D01*
X021083Y006130D02*
X016050Y006130D01*
X015858Y006248D02*
X021083Y006248D01*
X021102Y006367D02*
X015977Y006367D01*
X016095Y006485D02*
X021063Y006485D01*
X021043Y006604D02*
X019962Y006604D01*
X019834Y006730D02*
X020160Y007056D01*
X020160Y007180D01*
X021636Y007180D01*
X021136Y006959D02*
X020575Y006959D01*
X020575Y006841D02*
X021049Y006841D01*
X021043Y006722D02*
X020547Y006722D01*
X021043Y006680D02*
X021636Y006680D01*
X021043Y006680D01*
X021636Y006680D02*
X021636Y006680D01*
X022229Y006680D01*
X021636Y006680D01*
X021636Y006680D01*
X022136Y006959D02*
X022786Y006959D01*
X022646Y006841D02*
X022224Y006841D01*
X022229Y006722D02*
X022620Y006722D01*
X022653Y006604D02*
X022229Y006604D01*
X022210Y006485D02*
X022780Y006485D01*
X022780Y006367D02*
X022171Y006367D01*
X022189Y006248D02*
X022780Y006248D01*
X022780Y006130D02*
X022189Y006130D01*
X022188Y006011D02*
X022780Y006011D01*
X022960Y005934D02*
X022960Y006630D01*
X022860Y006730D01*
X023310Y007180D01*
X023684Y007180D01*
X025036Y007180D01*
X025160Y007304D01*
X025286Y007304D01*
X025660Y006830D01*
X025910Y006680D02*
X025760Y006530D01*
X025186Y006530D01*
X025160Y006556D01*
X025134Y006656D01*
X023910Y006680D01*
X023684Y006680D01*
X024173Y006449D02*
X024218Y006494D01*
X024745Y006484D01*
X024745Y006250D01*
X024815Y006180D01*
X025505Y006180D01*
X025575Y006250D01*
X025575Y006350D01*
X025835Y006350D01*
X025940Y006455D01*
X025966Y006482D01*
X026218Y006230D01*
X026583Y006230D01*
X026519Y006146D01*
X026024Y006146D01*
X025954Y006075D01*
X025954Y005876D01*
X025556Y005876D01*
X025407Y005826D01*
X025405Y005823D01*
X025298Y005742D01*
X025286Y005733D01*
X025286Y005733D01*
X024780Y005345D01*
X024228Y005345D01*
X024160Y005277D01*
X024092Y005345D01*
X023599Y005345D01*
X023284Y005660D01*
X023245Y005700D01*
X023232Y005713D01*
X023193Y005760D01*
X023146Y005873D01*
X023140Y005934D01*
X023140Y005946D01*
X023152Y005934D01*
X023189Y005913D01*
X023229Y005902D01*
X023684Y005902D01*
X024138Y005902D01*
X024178Y005913D01*
X024215Y005934D01*
X024245Y005964D01*
X024266Y006000D01*
X024277Y006041D01*
X024277Y006180D01*
X024277Y006319D01*
X024266Y006360D01*
X024245Y006396D01*
X024215Y006426D01*
X024178Y006447D01*
X024173Y006449D01*
X024210Y006485D02*
X024672Y006485D01*
X024745Y006367D02*
X024262Y006367D01*
X024277Y006248D02*
X024747Y006248D01*
X024277Y006180D02*
X023684Y006180D01*
X023684Y006180D01*
X024277Y006180D01*
X024277Y006130D02*
X026008Y006130D01*
X025954Y006011D02*
X024269Y006011D01*
X023684Y006011D02*
X023684Y006011D01*
X023684Y005902D02*
X023684Y006180D01*
X023684Y006180D01*
X023684Y005902D01*
X023104Y005586D02*
X023075Y005618D01*
X023049Y005652D01*
X023026Y005688D01*
X023006Y005726D01*
X022990Y005766D01*
X022977Y005807D01*
X022967Y005849D01*
X022962Y005891D01*
X022960Y005934D01*
X023144Y005893D02*
X025954Y005893D01*
X025634Y005696D02*
X026404Y005696D01*
X026904Y006356D01*
X027660Y006356D01*
X028075Y006367D02*
X031764Y006367D01*
X031764Y006485D02*
X028075Y006485D01*
X028075Y006604D02*
X032011Y006604D01*
X032011Y006722D02*
X028015Y006722D01*
X028075Y006841D02*
X032011Y006841D01*
X031961Y006959D02*
X031359Y006959D01*
X031355Y006956D02*
X031426Y007026D01*
X031426Y007413D01*
X032256Y008244D01*
X032276Y008263D01*
X032360Y008466D01*
X032360Y008536D01*
X032580Y008756D01*
X032580Y009104D01*
X032360Y009324D01*
X032360Y009536D01*
X032580Y009756D01*
X032580Y010104D01*
X032414Y010270D01*
X032849Y010270D01*
X032700Y010121D01*
X032700Y009970D01*
X033120Y009970D01*
X033120Y009890D01*
X033200Y009890D01*
X033200Y009970D01*
X033620Y009970D01*
X033620Y010121D01*
X033471Y010270D01*
X033849Y010270D01*
X033700Y010121D01*
X033700Y009970D01*
X034120Y009970D01*
X034120Y009890D01*
X034200Y009890D01*
X034200Y009970D01*
X034620Y009970D01*
X034620Y010121D01*
X034471Y010270D01*
X034849Y010270D01*
X034700Y010121D01*
X034700Y009970D01*
X035120Y009970D01*
X035120Y009890D01*
X035200Y009890D01*
X035200Y009970D01*
X035620Y009970D01*
X035620Y010121D01*
X035471Y010270D01*
X035906Y010270D01*
X035740Y010104D01*
X035740Y009756D01*
X035986Y009510D01*
X036334Y009510D01*
X036580Y009756D01*
X036580Y010104D01*
X036414Y010270D01*
X040370Y010270D01*
X040370Y009185D01*
X039247Y009185D01*
X039177Y009115D01*
X039177Y007789D01*
X039247Y007718D01*
X040370Y007718D01*
X040370Y005642D01*
X040370Y005774D02*
X038741Y005774D01*
X038420Y005774D02*
X038300Y005774D01*
X038300Y005656D02*
X038420Y005656D01*
X037979Y005774D02*
X037604Y005774D01*
X037604Y005656D02*
X037924Y005656D01*
X037604Y005893D02*
X040370Y005893D01*
X040370Y006011D02*
X037604Y006011D01*
X037550Y006130D02*
X040370Y006130D01*
X040370Y006248D02*
X037358Y006248D01*
X037340Y006230D02*
X037604Y006494D01*
X037604Y006550D01*
X038210Y006550D01*
X038210Y006385D01*
X038280Y006315D01*
X038892Y006315D01*
X038960Y006383D01*
X039028Y006315D01*
X039640Y006315D01*
X039710Y006385D01*
X039710Y007075D01*
X039640Y007145D01*
X039400Y007145D01*
X039400Y007228D01*
X039363Y007316D01*
X039296Y007383D01*
X039208Y007420D01*
X039112Y007420D01*
X039024Y007383D01*
X038957Y007316D01*
X038920Y007228D01*
X038920Y007132D01*
X038931Y007106D01*
X038892Y007145D01*
X038280Y007145D01*
X038210Y007075D01*
X038210Y006910D01*
X037560Y006910D01*
X037340Y007130D01*
X036968Y007130D01*
X036704Y006866D01*
X036704Y006494D01*
X036968Y006230D01*
X037340Y006230D01*
X037477Y006367D02*
X038229Y006367D01*
X038210Y006485D02*
X037595Y006485D01*
X037204Y006730D02*
X037154Y006680D01*
X037204Y006730D02*
X038586Y006730D01*
X039160Y006904D02*
X039334Y006730D01*
X039160Y006904D02*
X039160Y007180D01*
X039400Y007196D02*
X040370Y007196D01*
X040370Y007078D02*
X039707Y007078D01*
X039710Y006959D02*
X040370Y006959D01*
X040370Y006841D02*
X039710Y006841D01*
X039710Y006722D02*
X040370Y006722D01*
X040370Y006604D02*
X039710Y006604D01*
X039710Y006485D02*
X040370Y006485D01*
X040370Y006367D02*
X039691Y006367D01*
X038977Y006367D02*
X038943Y006367D01*
X036950Y006248D02*
X035556Y006248D01*
X035556Y006130D02*
X036758Y006130D01*
X036704Y006011D02*
X035612Y006011D01*
X035665Y005958D02*
X035665Y005958D01*
X035730Y005893D02*
X036704Y005893D01*
X036704Y005774D02*
X035849Y005774D01*
X035967Y005656D02*
X036704Y005656D01*
X034764Y005656D02*
X032556Y005656D01*
X032556Y005774D02*
X034764Y005774D01*
X034764Y005893D02*
X032556Y005893D01*
X032556Y006011D02*
X034764Y006011D01*
X034764Y006130D02*
X032556Y006130D01*
X032556Y006248D02*
X034764Y006248D01*
X034764Y006367D02*
X032556Y006367D01*
X032556Y006485D02*
X034764Y006485D01*
X034909Y006604D02*
X032411Y006604D01*
X032411Y006722D02*
X034909Y006722D01*
X034909Y006841D02*
X032411Y006841D01*
X032461Y006959D02*
X034859Y006959D01*
X034792Y007078D02*
X032528Y007078D01*
X032528Y007196D02*
X034598Y007196D01*
X034722Y007196D02*
X034792Y007196D01*
X034448Y007315D02*
X032528Y007315D01*
X032528Y007433D02*
X034420Y007433D01*
X034451Y007552D02*
X032528Y007552D01*
X032528Y007670D02*
X034792Y007670D01*
X034792Y007789D02*
X032528Y007789D01*
X032157Y008144D02*
X035960Y008144D01*
X035960Y008026D02*
X032038Y008026D01*
X031920Y007907D02*
X035960Y007907D01*
X035960Y007900D02*
X035894Y007834D01*
X035894Y007026D01*
X035965Y006956D01*
X036458Y006956D01*
X036528Y007026D01*
X036528Y007834D01*
X036458Y007904D01*
X036360Y007904D01*
X036360Y008536D01*
X036580Y008756D01*
X036580Y009104D01*
X036334Y009350D01*
X035986Y009350D01*
X035740Y009104D01*
X035740Y008756D01*
X035960Y008536D01*
X035960Y007900D01*
X035894Y007789D02*
X035426Y007789D01*
X035426Y007670D02*
X035894Y007670D01*
X035894Y007552D02*
X035426Y007552D01*
X035426Y007433D02*
X035894Y007433D01*
X035894Y007315D02*
X035426Y007315D01*
X035426Y007196D02*
X035894Y007196D01*
X035894Y007078D02*
X035426Y007078D01*
X035359Y006959D02*
X035961Y006959D01*
X035309Y006841D02*
X036704Y006841D01*
X036704Y006722D02*
X035309Y006722D01*
X035309Y006604D02*
X036704Y006604D01*
X036713Y006485D02*
X035556Y006485D01*
X035556Y006367D02*
X036831Y006367D01*
X036797Y006959D02*
X036461Y006959D01*
X036528Y007078D02*
X036915Y007078D01*
X036968Y007214D02*
X037340Y007214D01*
X037604Y007478D01*
X037604Y007851D01*
X037340Y008114D01*
X036968Y008114D01*
X036704Y007851D01*
X036704Y007478D01*
X036968Y007214D01*
X036867Y007315D02*
X036528Y007315D01*
X036528Y007433D02*
X036749Y007433D01*
X036704Y007552D02*
X036528Y007552D01*
X036528Y007670D02*
X036704Y007670D01*
X036704Y007789D02*
X036528Y007789D01*
X036360Y007907D02*
X036760Y007907D01*
X036879Y008026D02*
X036360Y008026D01*
X036360Y008144D02*
X039177Y008144D01*
X039177Y008026D02*
X037429Y008026D01*
X037548Y007907D02*
X039177Y007907D01*
X039177Y007789D02*
X037604Y007789D01*
X037604Y007670D02*
X040370Y007670D01*
X040370Y007552D02*
X037604Y007552D01*
X037559Y007433D02*
X040370Y007433D01*
X040370Y007315D02*
X039364Y007315D01*
X038956Y007315D02*
X037441Y007315D01*
X037393Y007078D02*
X038213Y007078D01*
X038210Y006959D02*
X037511Y006959D01*
X036528Y007196D02*
X038920Y007196D01*
X039177Y008263D02*
X036360Y008263D01*
X036360Y008381D02*
X039177Y008381D01*
X039177Y008500D02*
X036360Y008500D01*
X036442Y008618D02*
X039177Y008618D01*
X039177Y008737D02*
X036560Y008737D01*
X036580Y008855D02*
X039177Y008855D01*
X039177Y008974D02*
X036580Y008974D01*
X036580Y009092D02*
X039177Y009092D01*
X040370Y009211D02*
X036473Y009211D01*
X036355Y009329D02*
X040370Y009329D01*
X040370Y009448D02*
X032360Y009448D01*
X032360Y009329D02*
X032908Y009329D01*
X032969Y009390D02*
X032700Y009121D01*
X032700Y008970D01*
X033120Y008970D01*
X033120Y009390D01*
X032969Y009390D01*
X032969Y009470D02*
X033120Y009470D01*
X033120Y009890D01*
X032700Y009890D01*
X032700Y009739D01*
X032969Y009470D01*
X032873Y009566D02*
X032390Y009566D01*
X032508Y009685D02*
X032755Y009685D01*
X032700Y009803D02*
X032580Y009803D01*
X032580Y009922D02*
X033120Y009922D01*
X033200Y009922D02*
X034120Y009922D01*
X034120Y009890D02*
X033700Y009890D01*
X033700Y009739D01*
X033969Y009470D01*
X034120Y009470D01*
X034120Y009890D01*
X034200Y009890D02*
X034200Y009470D01*
X034351Y009470D01*
X034620Y009739D01*
X034620Y009890D01*
X034200Y009890D01*
X034200Y009922D02*
X035120Y009922D01*
X035120Y009890D02*
X034700Y009890D01*
X034700Y009739D01*
X034969Y009470D01*
X035120Y009470D01*
X035120Y009890D01*
X035200Y009890D02*
X035200Y009470D01*
X035351Y009470D01*
X035620Y009739D01*
X035620Y009890D01*
X035200Y009890D01*
X035200Y009922D02*
X035740Y009922D01*
X035740Y010040D02*
X035620Y010040D01*
X035582Y010159D02*
X035795Y010159D01*
X036525Y010159D02*
X040370Y010159D01*
X040370Y010040D02*
X036580Y010040D01*
X036580Y009922D02*
X040370Y009922D01*
X040370Y009803D02*
X036580Y009803D01*
X036508Y009685D02*
X040370Y009685D01*
X040370Y009566D02*
X036390Y009566D01*
X035930Y009566D02*
X035447Y009566D01*
X035565Y009685D02*
X035812Y009685D01*
X035740Y009803D02*
X035620Y009803D01*
X035200Y009803D02*
X035120Y009803D01*
X035120Y009685D02*
X035200Y009685D01*
X035200Y009566D02*
X035120Y009566D01*
X034873Y009566D02*
X034447Y009566D01*
X034565Y009685D02*
X034755Y009685D01*
X034700Y009803D02*
X034620Y009803D01*
X034200Y009803D02*
X034120Y009803D01*
X034120Y009685D02*
X034200Y009685D01*
X034200Y009566D02*
X034120Y009566D01*
X033873Y009566D02*
X033447Y009566D01*
X033351Y009470D02*
X033620Y009739D01*
X033620Y009890D01*
X033200Y009890D01*
X033200Y009470D01*
X033351Y009470D01*
X033351Y009390D02*
X033200Y009390D01*
X033200Y008970D01*
X033620Y008970D01*
X033620Y009121D01*
X033351Y009390D01*
X033412Y009329D02*
X033908Y009329D01*
X033969Y009390D02*
X033700Y009121D01*
X033700Y008970D01*
X034120Y008970D01*
X034120Y009390D01*
X033969Y009390D01*
X034120Y009329D02*
X034200Y009329D01*
X034200Y009390D02*
X034351Y009390D01*
X034620Y009121D01*
X034620Y008970D01*
X034200Y008970D01*
X034200Y008890D01*
X034620Y008890D01*
X034620Y008739D01*
X034351Y008470D01*
X034200Y008470D01*
X034200Y008890D01*
X034120Y008890D01*
X034120Y008470D01*
X033969Y008470D01*
X033700Y008739D01*
X033700Y008890D01*
X034120Y008890D01*
X034120Y008970D01*
X034200Y008970D01*
X034200Y009390D01*
X034200Y009211D02*
X034120Y009211D01*
X034120Y009092D02*
X034200Y009092D01*
X034200Y008974D02*
X034120Y008974D01*
X034120Y008855D02*
X034200Y008855D01*
X034200Y008737D02*
X034120Y008737D01*
X034120Y008618D02*
X034200Y008618D01*
X034200Y008500D02*
X034120Y008500D01*
X033940Y008500D02*
X033380Y008500D01*
X033351Y008470D02*
X033620Y008739D01*
X033620Y008890D01*
X033200Y008890D01*
X033200Y008970D01*
X033120Y008970D01*
X033120Y008890D01*
X033200Y008890D01*
X033200Y008470D01*
X033351Y008470D01*
X033200Y008500D02*
X033120Y008500D01*
X033120Y008470D02*
X033120Y008890D01*
X032700Y008890D01*
X032700Y008739D01*
X032969Y008470D01*
X033120Y008470D01*
X033120Y008618D02*
X033200Y008618D01*
X033200Y008737D02*
X033120Y008737D01*
X033120Y008855D02*
X033200Y008855D01*
X033200Y008974D02*
X033120Y008974D01*
X033120Y009092D02*
X033200Y009092D01*
X033200Y009211D02*
X033120Y009211D01*
X033120Y009329D02*
X033200Y009329D01*
X033530Y009211D02*
X033790Y009211D01*
X033700Y009092D02*
X033620Y009092D01*
X033620Y008974D02*
X033700Y008974D01*
X033700Y008855D02*
X033620Y008855D01*
X033617Y008737D02*
X033703Y008737D01*
X033821Y008618D02*
X033499Y008618D01*
X032940Y008500D02*
X032360Y008500D01*
X032325Y008381D02*
X035960Y008381D01*
X035960Y008263D02*
X032275Y008263D01*
X032276Y008263D02*
X032276Y008263D01*
X032256Y008244D02*
X032256Y008244D01*
X031828Y008381D02*
X029893Y008381D01*
X029893Y008263D02*
X031710Y008263D01*
X031591Y008144D02*
X029893Y008144D01*
X029893Y008026D02*
X031473Y008026D01*
X031354Y007907D02*
X029893Y007907D01*
X029893Y007789D02*
X029893Y009115D01*
X029823Y009185D01*
X028497Y009185D01*
X028427Y009115D01*
X028427Y007837D01*
X028075Y008359D01*
X028075Y008862D01*
X028030Y008907D01*
X028054Y008920D01*
X028083Y008950D01*
X028104Y008986D01*
X028115Y009027D01*
X028115Y009244D01*
X027720Y009244D01*
X027720Y009364D01*
X028115Y009364D01*
X028115Y009581D01*
X028104Y009622D01*
X028083Y009658D01*
X028054Y009688D01*
X028017Y009709D01*
X027976Y009720D01*
X027720Y009720D01*
X027720Y009364D01*
X027600Y009364D01*
X027600Y009244D01*
X027205Y009244D01*
X027205Y009027D01*
X027216Y008986D01*
X027237Y008950D01*
X027266Y008920D01*
X027290Y008907D01*
X027245Y008862D01*
X027245Y008250D01*
X027315Y008180D01*
X027713Y008180D01*
X028220Y007428D01*
X028220Y007382D01*
X028257Y007294D01*
X028324Y007227D01*
X028412Y007190D01*
X028508Y007190D01*
X028596Y007227D01*
X028663Y007294D01*
X028700Y007382D01*
X028700Y007478D01*
X028663Y007566D01*
X028596Y007633D01*
X028552Y007652D01*
X028507Y007718D01*
X029823Y007718D01*
X029893Y007789D01*
X030792Y007789D01*
X030792Y007834D02*
X030792Y007026D01*
X030862Y006956D01*
X031355Y006956D01*
X031426Y007078D02*
X031894Y007078D01*
X031894Y007196D02*
X031426Y007196D01*
X031426Y007315D02*
X031894Y007315D01*
X031894Y007433D02*
X031446Y007433D01*
X031564Y007552D02*
X031894Y007552D01*
X031894Y007670D02*
X031683Y007670D01*
X031801Y007789D02*
X031894Y007789D01*
X031351Y007904D02*
X030862Y007904D01*
X030792Y007834D01*
X030792Y007670D02*
X028539Y007670D01*
X028669Y007552D02*
X030792Y007552D01*
X030792Y007433D02*
X028700Y007433D01*
X028672Y007315D02*
X030792Y007315D01*
X030792Y007196D02*
X028522Y007196D01*
X028398Y007196D02*
X028075Y007196D01*
X028075Y007078D02*
X030792Y007078D01*
X030859Y006959D02*
X028075Y006959D01*
X027660Y007104D02*
X027660Y007680D01*
X027900Y007670D02*
X028057Y007670D01*
X027977Y007789D02*
X027875Y007789D01*
X027897Y007907D02*
X027739Y007907D01*
X027817Y008026D02*
X027140Y008026D01*
X027140Y008144D02*
X027738Y008144D01*
X028140Y008263D02*
X028427Y008263D01*
X028427Y008381D02*
X028075Y008381D01*
X028075Y008500D02*
X028427Y008500D01*
X028427Y008618D02*
X028075Y008618D01*
X028075Y008737D02*
X028427Y008737D01*
X028427Y008855D02*
X028075Y008855D01*
X028097Y008974D02*
X028427Y008974D01*
X028427Y009092D02*
X028115Y009092D01*
X028115Y009211D02*
X031847Y009211D01*
X031740Y009104D02*
X031740Y008756D01*
X031955Y008541D01*
X031934Y008491D01*
X031915Y008468D01*
X031351Y007904D01*
X031938Y008500D02*
X029893Y008500D01*
X029893Y008618D02*
X031878Y008618D01*
X031760Y008737D02*
X029893Y008737D01*
X029893Y008855D02*
X031740Y008855D01*
X031740Y008974D02*
X029893Y008974D01*
X029893Y009092D02*
X031740Y009092D01*
X031740Y009104D02*
X031960Y009324D01*
X031960Y009536D01*
X031740Y009756D01*
X031740Y010104D01*
X031906Y010270D01*
X001320Y010270D01*
X001320Y008988D01*
X001340Y009007D01*
X001503Y009075D01*
X001680Y009075D01*
X001843Y009007D01*
X001969Y008882D01*
X002036Y008718D01*
X002036Y008542D01*
X002024Y008512D01*
X002250Y008310D01*
X002257Y008310D01*
X002311Y008256D01*
X002369Y008205D01*
X002369Y008198D01*
X002397Y008170D01*
X002397Y008170D01*
X002486Y007956D01*
X002486Y007795D01*
X002592Y007795D01*
X002660Y007727D01*
X002728Y007795D01*
X003340Y007795D01*
X003410Y007725D01*
X003410Y007630D01*
X003521Y007630D01*
X003524Y007633D01*
X003612Y007670D01*
X003708Y007670D01*
X003796Y007633D01*
X003863Y007566D01*
X003900Y007478D01*
X003900Y007382D01*
X003863Y007294D01*
X003796Y007227D01*
X003708Y007190D01*
X003612Y007190D01*
X003524Y007227D01*
X003521Y007230D01*
X003410Y007230D01*
X003410Y007035D01*
X003340Y006965D01*
X002728Y006965D01*
X002660Y007033D01*
X002592Y006965D01*
X001980Y006965D01*
X001910Y007035D01*
X001910Y007725D01*
X001980Y007795D01*
X002086Y007795D01*
X002086Y007840D01*
X002082Y007876D01*
X002055Y007941D01*
X002034Y007967D01*
X001755Y008216D01*
X001680Y008185D01*
X001503Y008185D01*
X001340Y008253D01*
X001320Y008272D01*
X001320Y005088D01*
X001340Y005107D01*
X001503Y005175D01*
X001680Y005175D01*
X001843Y005107D01*
X001969Y004982D01*
X002036Y004818D01*
X002036Y004799D01*
X002081Y004785D01*
X002085Y004787D01*
X002160Y004760D01*
X002235Y004736D01*
X002237Y004732D01*
X002332Y004698D01*
X002332Y004698D01*
X002594Y004452D01*
X002594Y004452D01*
X002736Y004122D01*
X002736Y004095D01*
X002842Y004095D01*
X002910Y004027D01*
X002978Y004095D01*
X003590Y004095D01*
X003660Y004025D01*
X003660Y003880D01*
X007556Y003880D01*
X007586Y003883D01*
X007642Y003906D01*
X007684Y003948D01*
X007707Y004004D01*
X007710Y004034D01*
X007710Y004394D01*
X007794Y004597D01*
X007794Y004597D01*
X007814Y004616D01*
X007921Y004723D01*
X007931Y004734D01*
X008445Y005248D01*
X008452Y005256D01*
X008459Y005274D01*
X008460Y005284D01*
X008460Y005930D01*
X008315Y005930D01*
X008245Y006000D01*
X008245Y006075D01*
X008196Y006027D01*
X008108Y005990D01*
X008012Y005990D01*
X007924Y006027D01*
X007901Y006050D01*
X007825Y006050D01*
X007825Y006000D01*
X007755Y005930D01*
X007065Y005930D01*
X006995Y006000D01*
X006995Y006612D01*
X007063Y006680D01*
X006995Y006748D01*
X006995Y007360D01*
X007045Y007410D01*
X007009Y008224D01*
X006940Y008253D01*
X006814Y008378D01*
X006747Y008542D01*
X006747Y008718D01*
X006814Y008882D01*
X006940Y009007D01*
X007103Y009075D01*
X007280Y009075D01*
X007443Y009007D01*
X007569Y008882D01*
X007636Y008718D01*
X007636Y008542D01*
X007569Y008378D01*
X007443Y008253D01*
X007409Y008239D01*
X007445Y007430D01*
X007755Y007430D01*
X007825Y007360D01*
X007825Y006748D01*
X007757Y006680D01*
X007825Y006612D01*
X007825Y006410D01*
X007901Y006410D01*
X007924Y006433D01*
X008012Y006470D01*
X008108Y006470D01*
X008196Y006433D01*
X008245Y006385D01*
X008245Y006612D01*
X008313Y006680D01*
X008245Y006748D01*
X008245Y007360D01*
X008315Y007430D01*
X008781Y007430D01*
X008899Y007547D01*
X008899Y007547D01*
X008962Y007611D01*
X008962Y007611D01*
X009247Y007775D01*
X009247Y007775D01*
X009564Y007860D01*
X010595Y007860D01*
X010654Y007918D01*
X010956Y007918D01*
X010956Y008478D01*
X010915Y008378D01*
X010790Y008253D01*
X010626Y008185D01*
X010449Y008185D01*
X010286Y008253D01*
X010161Y008378D01*
X010093Y008542D01*
X010093Y008718D01*
X010161Y008882D01*
X010286Y009007D01*
X010449Y009075D01*
X010626Y009075D01*
X010790Y009007D01*
X010915Y008882D01*
X010956Y008782D01*
X010956Y009339D01*
X010910Y009385D01*
X010910Y010075D01*
X010980Y010145D01*
X011592Y010145D01*
X011660Y010077D01*
X011728Y010145D01*
X012340Y010145D01*
X012410Y010075D01*
X012410Y009910D01*
X013510Y009910D01*
X013510Y010075D01*
X013580Y010145D01*
X014192Y010145D01*
X014260Y010077D01*
X014328Y010145D01*
X014940Y010145D01*
X015010Y010075D01*
X015010Y009385D01*
X014940Y009315D01*
X014814Y009315D01*
X014814Y009145D01*
X014940Y009145D01*
X015010Y009075D01*
X015010Y008910D01*
X015318Y008910D01*
X015517Y008828D01*
X015517Y008828D01*
X015540Y008804D01*
X015540Y008804D01*
X015676Y008668D01*
X015727Y008617D01*
X015727Y008617D01*
X015840Y008345D01*
X015840Y008114D01*
X015840Y008114D01*
X016104Y007851D01*
X016104Y007478D01*
X015840Y007214D01*
X015468Y007214D01*
X015204Y007478D01*
X015204Y007851D01*
X015468Y008114D01*
X015480Y008114D01*
X015480Y008198D01*
X015473Y008272D01*
X015416Y008409D01*
X015369Y008466D01*
X015361Y008475D01*
X015338Y008497D01*
X015311Y008520D01*
X015246Y008547D01*
X015211Y008550D01*
X015010Y008550D01*
X015010Y008385D01*
X014940Y008315D01*
X014328Y008315D01*
X014260Y008383D01*
X014192Y008315D01*
X014066Y008315D01*
X014068Y008299D01*
X014082Y008265D01*
X014094Y008251D01*
X014665Y007680D01*
X015005Y007680D01*
X015075Y007610D01*
X015075Y006998D01*
X015007Y006930D01*
X015075Y006862D01*
X015075Y006736D01*
X015204Y006736D01*
X015204Y006866D01*
X015468Y007130D01*
X015840Y007130D01*
X016104Y006866D01*
X016104Y006494D01*
X015840Y006230D01*
X015468Y006230D01*
X015322Y006376D01*
X015075Y006376D01*
X015075Y006250D01*
X015005Y006180D01*
X014315Y006180D01*
X014245Y006250D01*
X014245Y006862D01*
X014313Y006930D01*
X014245Y006998D01*
X014245Y007000D01*
X014140Y007000D01*
X014140Y005989D01*
X014163Y005966D01*
X014200Y005878D01*
X014200Y005782D01*
X014163Y005694D01*
X014096Y005627D01*
X014008Y005590D01*
X013912Y005590D01*
X013824Y005627D01*
X013757Y005694D01*
X013720Y005782D01*
X013720Y005878D01*
X013757Y005966D01*
X013780Y005989D01*
X013780Y007000D01*
X013725Y007000D01*
X013666Y006942D01*
X012701Y006942D01*
X012631Y007012D01*
X012631Y007348D01*
X012701Y007418D01*
X013666Y007418D01*
X013725Y007360D01*
X014245Y007360D01*
X014245Y007591D01*
X013787Y008049D01*
X013787Y008049D01*
X013775Y008060D01*
X013706Y008227D01*
X013706Y008315D01*
X013580Y008315D01*
X013510Y008385D01*
X013510Y009075D01*
X013580Y009145D01*
X014192Y009145D01*
X014260Y009077D01*
X014328Y009145D01*
X014454Y009145D01*
X014454Y009315D01*
X014328Y009315D01*
X014260Y009383D01*
X014192Y009315D01*
X013580Y009315D01*
X013510Y009385D01*
X013510Y009550D01*
X012410Y009550D01*
X012410Y009385D01*
X012340Y009315D01*
X011728Y009315D01*
X011660Y009383D01*
X011592Y009315D01*
X011316Y009315D01*
X011316Y008901D01*
X011349Y008946D01*
X011403Y009000D01*
X011465Y009045D01*
X011533Y009079D01*
X011606Y009103D01*
X011671Y009113D01*
X011671Y008678D01*
X011767Y008678D01*
X011767Y009113D01*
X011833Y009103D01*
X011905Y009079D01*
X011973Y009045D01*
X012035Y009000D01*
X012089Y008946D01*
X012134Y008884D01*
X012168Y008816D01*
X012192Y008744D01*
X012202Y008678D01*
X011767Y008678D01*
X011767Y008582D01*
X011767Y008147D01*
X011833Y008157D01*
X011905Y008181D01*
X011973Y008215D01*
X012035Y008260D01*
X012089Y008314D01*
X012134Y008376D01*
X012168Y008444D01*
X012192Y008516D01*
X012202Y008582D01*
X011767Y008582D01*
X011671Y008582D01*
X011671Y008147D01*
X011606Y008157D01*
X011533Y008181D01*
X011465Y008215D01*
X011403Y008260D01*
X011349Y008314D01*
X011316Y008359D01*
X011316Y007918D01*
X011619Y007918D01*
X011677Y007860D01*
X011862Y007860D01*
X012036Y007788D01*
X012036Y007788D01*
X012168Y007656D01*
X012168Y007656D01*
X012240Y007482D01*
X012240Y006481D01*
X012244Y006445D01*
X012271Y006379D01*
X012294Y006351D01*
X012591Y006054D01*
X012591Y006180D01*
X013184Y006180D01*
X013777Y006180D01*
X013777Y006319D01*
X013766Y006360D01*
X013745Y006396D01*
X013715Y006426D01*
X013678Y006447D01*
X013673Y006449D01*
X013737Y006512D01*
X013737Y006848D01*
X013666Y006918D01*
X012701Y006918D01*
X012675Y006892D01*
X012608Y006920D01*
X012512Y006920D01*
X012424Y006883D01*
X012357Y006816D01*
X012320Y006728D01*
X012320Y006632D01*
X012357Y006544D01*
X012424Y006477D01*
X012512Y006440D01*
X012608Y006440D01*
X012675Y006468D01*
X012694Y006449D01*
X012689Y006447D01*
X012652Y006426D01*
X012623Y006396D01*
X012601Y006360D01*
X012591Y006319D01*
X012591Y006180D01*
X013184Y006180D01*
X013184Y006180D01*
X013777Y006180D01*
X013777Y006041D01*
X013766Y006000D01*
X013745Y005964D01*
X013715Y005934D01*
X013678Y005913D01*
X013638Y005902D01*
X013184Y005902D01*
X013184Y006180D01*
X013184Y006180D01*
X013184Y005902D01*
X012743Y005902D01*
X013093Y005552D01*
X013100Y005548D01*
X013128Y005542D01*
X013181Y005540D01*
X013243Y005546D01*
X013254Y005537D01*
X013188Y005359D02*
X013158Y005357D01*
X013127Y005358D01*
X013097Y005362D01*
X013067Y005369D01*
X013038Y005379D01*
X013011Y005391D01*
X012984Y005406D01*
X012167Y006223D01*
X012281Y006367D02*
X012605Y006367D01*
X012591Y006248D02*
X012397Y006248D01*
X012515Y006130D02*
X012591Y006130D01*
X013184Y006130D02*
X013184Y006130D01*
X013184Y006180D02*
X013184Y006180D01*
X013777Y006130D02*
X013780Y006130D01*
X013777Y006248D02*
X013780Y006248D01*
X013780Y006367D02*
X013762Y006367D01*
X013780Y006485D02*
X013710Y006485D01*
X013737Y006604D02*
X013780Y006604D01*
X013780Y006722D02*
X013737Y006722D01*
X013737Y006841D02*
X013780Y006841D01*
X013780Y006959D02*
X013684Y006959D01*
X014140Y006959D02*
X014284Y006959D01*
X014245Y006841D02*
X014140Y006841D01*
X014140Y006722D02*
X014245Y006722D01*
X014245Y006604D02*
X014140Y006604D01*
X014140Y006485D02*
X014245Y006485D01*
X014245Y006367D02*
X014140Y006367D01*
X014140Y006248D02*
X014247Y006248D01*
X014140Y006130D02*
X015258Y006130D01*
X015204Y006011D02*
X014140Y006011D01*
X014194Y005893D02*
X015204Y005893D01*
X015204Y005774D02*
X014197Y005774D01*
X014125Y005656D02*
X015204Y005656D01*
X016104Y005656D02*
X021495Y005656D01*
X021423Y005774D02*
X016104Y005774D01*
X016104Y005537D02*
X017677Y005537D01*
X017677Y005419D02*
X016186Y005419D01*
X016214Y005300D02*
X017677Y005300D01*
X017677Y005182D02*
X016214Y005182D01*
X016410Y005063D02*
X017677Y005063D01*
X017677Y004945D02*
X016410Y004945D01*
X016410Y004826D02*
X017677Y004826D01*
X017677Y004708D02*
X016410Y004708D01*
X016410Y004589D02*
X017677Y004589D01*
X017677Y004471D02*
X016410Y004471D01*
X016377Y004352D02*
X017677Y004352D01*
X017688Y004234D02*
X016214Y004234D01*
X016214Y004115D02*
X026706Y004115D01*
X026628Y003997D02*
X016388Y003997D01*
X016410Y003878D02*
X026622Y003878D01*
X026691Y003760D02*
X016410Y003760D01*
X016410Y003523D02*
X030300Y003523D01*
X030300Y003522D02*
X029924Y003522D01*
X029924Y003285D01*
X029935Y003245D01*
X029956Y003208D01*
X029986Y003178D01*
X030023Y003157D01*
X030063Y003146D01*
X030300Y003146D01*
X030300Y003522D01*
X030300Y003642D01*
X030300Y004018D01*
X030063Y004018D01*
X030023Y004007D01*
X029986Y003986D01*
X029956Y003956D01*
X029935Y003919D01*
X029924Y003879D01*
X029924Y003642D01*
X030300Y003642D01*
X030420Y003642D01*
X030420Y004018D01*
X030657Y004018D01*
X030697Y004007D01*
X030734Y003986D01*
X030764Y003956D01*
X030785Y003919D01*
X030796Y003879D01*
X030796Y003642D01*
X030420Y003642D01*
X030420Y003522D01*
X030796Y003522D01*
X030796Y003285D01*
X030785Y003245D01*
X030764Y003208D01*
X030734Y003178D01*
X030697Y003157D01*
X030657Y003146D01*
X030420Y003146D01*
X030420Y003522D01*
X030300Y003522D01*
X030300Y003404D02*
X030420Y003404D01*
X030420Y003286D02*
X030300Y003286D01*
X030300Y003167D02*
X030420Y003167D01*
X030714Y003167D02*
X040370Y003167D01*
X040370Y003286D02*
X035553Y003286D01*
X035564Y003296D02*
X035585Y003333D01*
X035596Y003374D01*
X035596Y003925D01*
X035220Y003925D01*
X035220Y003235D01*
X035457Y003235D01*
X035497Y003245D01*
X035534Y003267D01*
X035564Y003296D01*
X035596Y003404D02*
X040370Y003404D01*
X040370Y003523D02*
X038721Y003523D01*
X038756Y003641D02*
X040370Y003641D01*
X040370Y003760D02*
X038756Y003760D01*
X038756Y003878D02*
X040370Y003878D01*
X040370Y003997D02*
X038756Y003997D01*
X038756Y004115D02*
X040370Y004115D01*
X039188Y004234D02*
X038729Y004234D01*
X039177Y004352D02*
X038173Y004352D01*
X038054Y004471D02*
X039177Y004471D01*
X039177Y004589D02*
X037936Y004589D01*
X037923Y004602D02*
X037923Y004602D01*
X038053Y004472D02*
X038053Y004472D01*
X037538Y004352D02*
X035596Y004352D01*
X035596Y004234D02*
X037719Y004234D01*
X037844Y004115D02*
X035596Y004115D01*
X035596Y004045D02*
X035220Y004045D01*
X035220Y003925D01*
X035100Y003925D01*
X035100Y003235D01*
X034863Y003235D01*
X034823Y003245D01*
X034786Y003267D01*
X034756Y003296D01*
X034735Y003333D01*
X034724Y003374D01*
X034724Y003925D01*
X035100Y003925D01*
X035100Y004045D01*
X034724Y004045D01*
X034724Y004597D01*
X034735Y004637D01*
X034756Y004674D01*
X034786Y004704D01*
X034823Y004725D01*
X034863Y004736D01*
X035100Y004736D01*
X035100Y004045D01*
X035220Y004045D01*
X035220Y004736D01*
X035457Y004736D01*
X035497Y004725D01*
X035534Y004704D01*
X035564Y004674D01*
X035585Y004637D01*
X035596Y004597D01*
X035596Y004045D01*
X035596Y003878D02*
X037964Y003878D01*
X037964Y003760D02*
X035596Y003760D01*
X035596Y003641D02*
X037964Y003641D01*
X037999Y003523D02*
X035596Y003523D01*
X035220Y003523D02*
X035100Y003523D01*
X035100Y003641D02*
X035220Y003641D01*
X035220Y003760D02*
X035100Y003760D01*
X035100Y003878D02*
X035220Y003878D01*
X035220Y003997D02*
X037963Y003997D01*
X037201Y004471D02*
X035596Y004471D01*
X035596Y004589D02*
X036477Y004589D01*
X036462Y004596D02*
X036462Y004596D01*
X036462Y004596D01*
X036350Y004708D02*
X035527Y004708D01*
X035220Y004708D02*
X035100Y004708D01*
X035100Y004589D02*
X035220Y004589D01*
X035220Y004471D02*
X035100Y004471D01*
X035100Y004352D02*
X035220Y004352D01*
X035220Y004234D02*
X035100Y004234D01*
X035100Y004115D02*
X035220Y004115D01*
X035100Y003997D02*
X032220Y003997D01*
X032220Y004045D02*
X032596Y004045D01*
X032596Y004597D01*
X032585Y004637D01*
X032564Y004674D01*
X032534Y004704D01*
X032497Y004725D01*
X032457Y004736D01*
X032220Y004736D01*
X032220Y004045D01*
X032220Y003925D01*
X032220Y003235D01*
X032457Y003235D01*
X032497Y003245D01*
X032534Y003267D01*
X032564Y003296D01*
X032585Y003333D01*
X032596Y003374D01*
X032596Y003925D01*
X032220Y003925D01*
X032100Y003925D01*
X032100Y003235D01*
X031863Y003235D01*
X031823Y003245D01*
X031786Y003267D01*
X031756Y003296D01*
X031735Y003333D01*
X031724Y003374D01*
X031724Y003925D01*
X032100Y003925D01*
X032100Y004045D01*
X031724Y004045D01*
X031724Y004597D01*
X031735Y004637D01*
X031756Y004674D01*
X031786Y004704D01*
X031823Y004725D01*
X031863Y004736D01*
X032100Y004736D01*
X032100Y004045D01*
X032220Y004045D01*
X032220Y004115D02*
X032100Y004115D01*
X032100Y003997D02*
X030715Y003997D01*
X030796Y003878D02*
X031724Y003878D01*
X031724Y003760D02*
X030796Y003760D01*
X030420Y003760D02*
X030300Y003760D01*
X030300Y003878D02*
X030420Y003878D01*
X030420Y003997D02*
X030300Y003997D01*
X030005Y003997D02*
X027720Y003997D01*
X027720Y003996D02*
X028115Y003996D01*
X028115Y003779D01*
X028104Y003738D01*
X028083Y003702D01*
X028054Y003672D01*
X028017Y003651D01*
X027976Y003640D01*
X027720Y003640D01*
X027720Y003996D01*
X027720Y003878D02*
X027600Y003878D01*
X027600Y003760D02*
X027720Y003760D01*
X027720Y003641D02*
X027600Y003641D01*
X027980Y003641D02*
X030300Y003641D01*
X030420Y003641D02*
X031724Y003641D01*
X031724Y003523D02*
X030420Y003523D01*
X030796Y003404D02*
X031724Y003404D01*
X031767Y003286D02*
X030796Y003286D01*
X030006Y003167D02*
X001320Y003167D01*
X001320Y003286D02*
X002210Y003286D01*
X002160Y003404D02*
X001320Y003404D01*
X001320Y003523D02*
X002160Y003523D01*
X002160Y003641D02*
X001320Y003641D01*
X001320Y003760D02*
X002160Y003760D01*
X002160Y003878D02*
X001320Y003878D01*
X001320Y003997D02*
X002160Y003997D01*
X002293Y004115D02*
X001320Y004115D01*
X001320Y004234D02*
X002228Y004234D01*
X002091Y004352D02*
X001841Y004352D01*
X001342Y004352D02*
X001320Y004352D01*
X002448Y004589D02*
X004515Y004589D01*
X004493Y004642D02*
X004561Y004478D01*
X004686Y004353D01*
X004849Y004285D01*
X005026Y004285D01*
X005190Y004353D01*
X005315Y004478D01*
X005383Y004642D01*
X005383Y004818D01*
X005315Y004982D01*
X005190Y005107D01*
X005026Y005175D01*
X004849Y005175D01*
X004686Y005107D01*
X004561Y004982D01*
X004493Y004818D01*
X004493Y004642D01*
X004493Y004708D02*
X002305Y004708D01*
X002033Y004826D02*
X004496Y004826D01*
X004545Y004945D02*
X001984Y004945D01*
X001888Y005063D02*
X004642Y005063D01*
X005234Y005063D02*
X005766Y005063D01*
X005749Y005046D02*
X005704Y004984D01*
X005670Y004916D01*
X005646Y004844D01*
X005636Y004778D01*
X006071Y004778D01*
X006071Y004682D01*
X005636Y004682D01*
X005646Y004616D01*
X005670Y004544D01*
X005704Y004476D01*
X005749Y004414D01*
X005803Y004360D01*
X005865Y004315D01*
X005933Y004281D01*
X006006Y004257D01*
X006071Y004247D01*
X006071Y004682D01*
X006167Y004682D01*
X006167Y004247D01*
X006233Y004257D01*
X006305Y004281D01*
X006373Y004315D01*
X006435Y004360D01*
X006489Y004414D01*
X006534Y004476D01*
X006568Y004544D01*
X006592Y004616D01*
X006602Y004682D01*
X006167Y004682D01*
X006167Y004778D01*
X006071Y004778D01*
X006071Y005213D01*
X006006Y005203D01*
X005933Y005179D01*
X005865Y005145D01*
X005803Y005100D01*
X005749Y005046D01*
X005684Y004945D02*
X005331Y004945D01*
X005380Y004826D02*
X005643Y004826D01*
X005383Y004708D02*
X006071Y004708D01*
X006167Y004708D02*
X006747Y004708D01*
X006747Y004642D02*
X006747Y004818D01*
X006774Y004883D01*
X006096Y005606D01*
X006032Y005670D01*
X006032Y005670D01*
X005960Y005843D01*
X005960Y005930D01*
X005815Y005930D01*
X005745Y006000D01*
X005745Y006612D01*
X005813Y006680D01*
X005745Y006748D01*
X005745Y006930D01*
X005699Y006930D01*
X005696Y006927D01*
X005608Y006890D01*
X005512Y006890D01*
X005424Y006927D01*
X005357Y006994D01*
X005320Y007082D01*
X005320Y007178D01*
X005357Y007266D01*
X005424Y007333D01*
X005512Y007370D01*
X005608Y007370D01*
X005696Y007333D01*
X005699Y007330D01*
X005745Y007330D01*
X005745Y007360D01*
X005815Y007430D01*
X006505Y007430D01*
X006575Y007360D01*
X006575Y006748D01*
X006507Y006680D01*
X006575Y006612D01*
X006575Y006000D01*
X006505Y005930D01*
X006361Y005930D01*
X006361Y005923D01*
X006372Y005897D01*
X006380Y005888D01*
X006383Y005884D01*
X006439Y005828D01*
X006439Y005824D01*
X007064Y005159D01*
X007103Y005175D01*
X007280Y005175D01*
X007443Y005107D01*
X007569Y004982D01*
X007636Y004818D01*
X007636Y004642D01*
X007569Y004478D01*
X007443Y004353D01*
X007280Y004285D01*
X007103Y004285D01*
X006940Y004353D01*
X006814Y004478D01*
X006747Y004642D01*
X006768Y004589D02*
X006583Y004589D01*
X006530Y004471D02*
X006822Y004471D01*
X006942Y004352D02*
X006424Y004352D01*
X006167Y004352D02*
X006071Y004352D01*
X006071Y004471D02*
X006167Y004471D01*
X006167Y004589D02*
X006071Y004589D01*
X006167Y004778D02*
X006602Y004778D01*
X006592Y004844D01*
X006568Y004916D01*
X006534Y004984D01*
X006489Y005046D01*
X006435Y005100D01*
X006373Y005145D01*
X006305Y005179D01*
X006233Y005203D01*
X006167Y005213D01*
X006167Y004778D01*
X006167Y004826D02*
X006071Y004826D01*
X006071Y004945D02*
X006167Y004945D01*
X006167Y005063D02*
X006071Y005063D01*
X006071Y005182D02*
X006167Y005182D01*
X006298Y005182D02*
X006494Y005182D01*
X006472Y005063D02*
X006605Y005063D01*
X006554Y004945D02*
X006716Y004945D01*
X006750Y004826D02*
X006595Y004826D01*
X007042Y005182D02*
X008379Y005182D01*
X008460Y005300D02*
X006931Y005300D01*
X006820Y005419D02*
X008460Y005419D01*
X008460Y005537D02*
X006709Y005537D01*
X006598Y005656D02*
X008460Y005656D01*
X008460Y005774D02*
X006486Y005774D01*
X006376Y005893D02*
X008460Y005893D01*
X008245Y006011D02*
X008158Y006011D01*
X007962Y006011D02*
X007825Y006011D01*
X008060Y006230D02*
X007410Y006230D01*
X007410Y006306D01*
X006995Y006248D02*
X006575Y006248D01*
X006575Y006130D02*
X006995Y006130D01*
X006995Y006011D02*
X006575Y006011D01*
X005960Y005893D02*
X001320Y005893D01*
X001320Y006011D02*
X005745Y006011D01*
X005745Y006130D02*
X001320Y006130D01*
X001320Y006248D02*
X005745Y006248D01*
X005745Y006367D02*
X001320Y006367D01*
X001320Y006485D02*
X005745Y006485D01*
X005745Y006604D02*
X001320Y006604D01*
X001320Y006722D02*
X005771Y006722D01*
X005745Y006841D02*
X001320Y006841D01*
X001320Y006959D02*
X005392Y006959D01*
X005322Y007078D02*
X003410Y007078D01*
X003410Y007196D02*
X003598Y007196D01*
X003722Y007196D02*
X005328Y007196D01*
X005405Y007315D02*
X003872Y007315D01*
X003900Y007433D02*
X007044Y007433D01*
X007039Y007552D02*
X003869Y007552D01*
X003410Y007670D02*
X007034Y007670D01*
X007029Y007789D02*
X003346Y007789D01*
X002722Y007789D02*
X002598Y007789D01*
X002486Y007907D02*
X007023Y007907D01*
X007018Y008026D02*
X002457Y008026D01*
X002408Y008144D02*
X007013Y008144D01*
X006930Y008263D02*
X006437Y008263D01*
X006435Y008260D02*
X006489Y008314D01*
X006534Y008376D01*
X006568Y008444D01*
X006592Y008516D01*
X006602Y008582D01*
X006167Y008582D01*
X006167Y008147D01*
X006233Y008157D01*
X006305Y008181D01*
X006373Y008215D01*
X006435Y008260D01*
X006536Y008381D02*
X006813Y008381D01*
X006764Y008500D02*
X006586Y008500D01*
X006747Y008618D02*
X006167Y008618D01*
X006167Y008582D02*
X006167Y008678D01*
X006071Y008678D01*
X006071Y008582D01*
X005636Y008582D01*
X005646Y008516D01*
X005670Y008444D01*
X005704Y008376D01*
X005749Y008314D01*
X005803Y008260D01*
X005865Y008215D01*
X005933Y008181D01*
X006006Y008157D01*
X006071Y008147D01*
X006071Y008582D01*
X006167Y008582D01*
X006167Y008500D02*
X006071Y008500D01*
X006071Y008618D02*
X005383Y008618D01*
X005383Y008542D02*
X005315Y008378D01*
X005190Y008253D01*
X005026Y008185D01*
X004849Y008185D01*
X004686Y008253D01*
X004561Y008378D01*
X004493Y008542D01*
X004493Y008718D01*
X004561Y008882D01*
X004686Y009007D01*
X004849Y009075D01*
X005026Y009075D01*
X005190Y009007D01*
X005315Y008882D01*
X005383Y008718D01*
X005383Y008542D01*
X005365Y008500D02*
X005652Y008500D01*
X005702Y008381D02*
X005316Y008381D01*
X005200Y008263D02*
X005801Y008263D01*
X006071Y008263D02*
X006167Y008263D01*
X006167Y008381D02*
X006071Y008381D01*
X006071Y008678D02*
X005636Y008678D01*
X005646Y008744D01*
X005670Y008816D01*
X005704Y008884D01*
X005749Y008946D01*
X005803Y009000D01*
X005865Y009045D01*
X005933Y009079D01*
X006006Y009103D01*
X006071Y009113D01*
X006071Y008678D01*
X006071Y008737D02*
X006167Y008737D01*
X006167Y008678D02*
X006167Y009113D01*
X006233Y009103D01*
X006305Y009079D01*
X006373Y009045D01*
X006435Y009000D01*
X006489Y008946D01*
X006534Y008884D01*
X006568Y008816D01*
X006592Y008744D01*
X006602Y008678D01*
X006167Y008678D01*
X006167Y008855D02*
X006071Y008855D01*
X006071Y008974D02*
X006167Y008974D01*
X006167Y009092D02*
X006071Y009092D01*
X005972Y009092D02*
X001320Y009092D01*
X001320Y009211D02*
X010956Y009211D01*
X010956Y009329D02*
X001320Y009329D01*
X001320Y009448D02*
X010910Y009448D01*
X010910Y009566D02*
X001320Y009566D01*
X001320Y009685D02*
X010910Y009685D01*
X010910Y009803D02*
X001320Y009803D01*
X001320Y009922D02*
X010910Y009922D01*
X010910Y010040D02*
X001320Y010040D01*
X001320Y010159D02*
X031795Y010159D01*
X031740Y010040D02*
X026852Y010040D01*
X026994Y009922D02*
X031740Y009922D01*
X031740Y009803D02*
X027078Y009803D01*
X027053Y009863D02*
X027053Y009863D01*
X027127Y009685D02*
X027263Y009685D01*
X027266Y009688D02*
X027237Y009658D01*
X027216Y009622D01*
X027205Y009581D01*
X027205Y009364D01*
X027600Y009364D01*
X027600Y009720D01*
X027344Y009720D01*
X027303Y009709D01*
X027266Y009688D01*
X027205Y009566D02*
X027140Y009566D01*
X027140Y009448D02*
X027205Y009448D01*
X027140Y009329D02*
X027600Y009329D01*
X027600Y009448D02*
X027720Y009448D01*
X027720Y009566D02*
X027600Y009566D01*
X027600Y009685D02*
X027720Y009685D01*
X028057Y009685D02*
X031812Y009685D01*
X031930Y009566D02*
X028115Y009566D01*
X028115Y009448D02*
X031960Y009448D01*
X031960Y009329D02*
X027720Y009329D01*
X027205Y009211D02*
X027140Y009211D01*
X027140Y009092D02*
X027205Y009092D01*
X027223Y008974D02*
X027140Y008974D01*
X027140Y008855D02*
X027245Y008855D01*
X027245Y008737D02*
X027140Y008737D01*
X027140Y008618D02*
X027245Y008618D01*
X027245Y008500D02*
X027140Y008500D01*
X027140Y008381D02*
X027245Y008381D01*
X027245Y008263D02*
X027140Y008263D01*
X027140Y007907D02*
X027581Y007907D01*
X027445Y007789D02*
X027140Y007789D01*
X027140Y007670D02*
X027420Y007670D01*
X027453Y007552D02*
X027140Y007552D01*
X027140Y007433D02*
X027268Y007433D01*
X027245Y007315D02*
X027115Y007315D01*
X027083Y007196D02*
X027245Y007196D01*
X027245Y007078D02*
X027020Y007078D01*
X026962Y006977D02*
X026962Y006977D01*
X026944Y006959D02*
X027245Y006959D01*
X027245Y006841D02*
X026854Y006841D01*
X026854Y006722D02*
X027305Y006722D01*
X027245Y006604D02*
X026854Y006604D01*
X026752Y007022D02*
X026410Y006680D01*
X026404Y006680D01*
X025910Y006680D02*
X025910Y007807D01*
X025730Y007789D02*
X024237Y007789D01*
X024237Y007848D02*
X024166Y007918D01*
X023201Y007918D01*
X023143Y007860D01*
X023066Y007860D01*
X023063Y007866D01*
X022996Y007933D01*
X022908Y007970D01*
X022812Y007970D01*
X022724Y007933D01*
X022657Y007866D01*
X022620Y007778D01*
X022620Y007682D01*
X022657Y007594D01*
X022724Y007527D01*
X022784Y007502D01*
X022785Y007500D01*
X022788Y007500D01*
X022812Y007490D01*
X022908Y007490D01*
X022932Y007500D01*
X023143Y007500D01*
X023201Y007442D01*
X024166Y007442D01*
X024237Y007512D01*
X024237Y007848D01*
X024177Y007907D02*
X025722Y007907D01*
X025690Y008026D02*
X021845Y008026D01*
X021900Y008144D02*
X025640Y008144D01*
X025566Y008263D02*
X021886Y008263D01*
X021798Y008381D02*
X025454Y008381D01*
X025336Y008500D02*
X025069Y008500D01*
X025144Y008618D02*
X025233Y008618D01*
X025244Y008591D02*
X025244Y008591D01*
X025319Y008516D02*
X025319Y008516D01*
X025499Y008591D02*
X025646Y008444D01*
X025184Y008737D02*
X025146Y008737D01*
X025135Y008855D02*
X025074Y008855D01*
X025106Y008974D02*
X021630Y008974D01*
X021503Y009092D02*
X022410Y009092D01*
X022410Y009211D02*
X021410Y009211D01*
X021410Y009329D02*
X022410Y009329D01*
X022410Y009448D02*
X021410Y009448D01*
X021410Y009566D02*
X022410Y009566D01*
X022410Y009685D02*
X021410Y009685D01*
X021382Y009803D02*
X022438Y009803D01*
X022823Y009922D02*
X015010Y009922D01*
X015010Y010040D02*
X023016Y010040D01*
X022889Y009988D02*
X022889Y009988D01*
X023345Y009930D02*
X026569Y009930D01*
X026607Y009928D01*
X026645Y009922D01*
X026683Y009913D01*
X026719Y009900D01*
X026753Y009884D01*
X026786Y009864D01*
X026817Y009841D01*
X026845Y009815D01*
X026871Y009787D01*
X026894Y009756D01*
X026914Y009723D01*
X026930Y009689D01*
X026943Y009653D01*
X026952Y009615D01*
X026958Y009577D01*
X026960Y009539D01*
X026960Y007524D01*
X027079Y007181D02*
X027079Y007181D01*
X026960Y007524D02*
X026958Y007473D01*
X026953Y007423D01*
X026944Y007373D01*
X026931Y007324D01*
X026915Y007276D01*
X026896Y007229D01*
X026873Y007183D01*
X026847Y007140D01*
X026818Y007098D01*
X026786Y007058D01*
X026752Y007021D01*
X025730Y007078D02*
X025694Y007078D01*
X025730Y007196D02*
X025600Y007196D01*
X025575Y007315D02*
X025730Y007315D01*
X025730Y007433D02*
X025575Y007433D01*
X025575Y007552D02*
X025730Y007552D01*
X025730Y007670D02*
X025515Y007670D01*
X025910Y007807D02*
X025908Y007866D01*
X025902Y007925D01*
X025893Y007983D01*
X025879Y008040D01*
X025862Y008097D01*
X025841Y008152D01*
X025817Y008206D01*
X025789Y008258D01*
X025758Y008308D01*
X025724Y008355D01*
X025686Y008401D01*
X025646Y008444D01*
X024910Y008680D02*
X021953Y008680D01*
X021492Y008618D02*
X020466Y008618D01*
X020466Y008500D02*
X024751Y008500D01*
X024910Y009092D02*
X023910Y009092D01*
X023910Y009211D02*
X024910Y009211D01*
X025286Y009106D02*
X025286Y009430D01*
X023534Y009430D01*
X023345Y009930D02*
X023296Y009928D01*
X023247Y009922D01*
X023199Y009913D01*
X023152Y009899D01*
X023106Y009883D01*
X023062Y009862D01*
X023019Y009838D01*
X022978Y009811D01*
X022940Y009780D01*
X022904Y009747D01*
X022903Y009747D02*
X022786Y009430D01*
X021953Y008680D02*
X021903Y008682D01*
X021852Y008687D01*
X021803Y008696D01*
X021754Y008709D01*
X021706Y008725D01*
X021659Y008744D01*
X021614Y008766D01*
X021571Y008792D01*
X021529Y008821D01*
X021490Y008853D01*
X021453Y008887D01*
X021160Y009180D01*
X021160Y009304D01*
X021034Y009430D01*
X021160Y009430D01*
X020286Y009430D02*
X020286Y007804D01*
X020160Y007804D01*
X020160Y007680D01*
X021636Y007680D01*
X021660Y007704D01*
X021660Y008180D01*
X021434Y008263D02*
X020466Y008263D01*
X020466Y008381D02*
X021522Y008381D01*
X021420Y008144D02*
X020541Y008144D01*
X020575Y008026D02*
X021475Y008026D01*
X021143Y007907D02*
X020575Y007907D01*
X019745Y007907D02*
X019143Y007907D01*
X019143Y007789D02*
X019143Y009115D01*
X019073Y009185D01*
X017747Y009185D01*
X017677Y009115D01*
X017677Y007789D01*
X017747Y007718D01*
X019073Y007718D01*
X019143Y007789D01*
X019745Y007789D01*
X019745Y007670D02*
X016104Y007670D01*
X016104Y007552D02*
X019745Y007552D01*
X019810Y007433D02*
X016059Y007433D01*
X015941Y007315D02*
X019745Y007315D01*
X019745Y007196D02*
X015075Y007196D01*
X015075Y007078D02*
X015415Y007078D01*
X015297Y006959D02*
X015036Y006959D01*
X015075Y006841D02*
X015204Y006841D01*
X015530Y006556D02*
X015654Y006680D01*
X015530Y006556D02*
X014660Y006556D01*
X015075Y006367D02*
X015331Y006367D01*
X015450Y006248D02*
X015073Y006248D01*
X016104Y006604D02*
X019253Y006604D01*
X019220Y006722D02*
X016104Y006722D01*
X016104Y006841D02*
X019246Y006841D01*
X019386Y006959D02*
X016011Y006959D01*
X015893Y007078D02*
X019745Y007078D01*
X019745Y006959D02*
X019534Y006959D01*
X019460Y006730D02*
X019834Y006730D01*
X020510Y007433D02*
X024745Y007433D01*
X024745Y007552D02*
X024237Y007552D01*
X024237Y007670D02*
X024805Y007670D01*
X023684Y007680D02*
X022860Y007680D01*
X022860Y007730D01*
X023022Y007907D02*
X023190Y007907D01*
X022698Y007907D02*
X022130Y007907D01*
X022189Y007789D02*
X022624Y007789D01*
X022625Y007670D02*
X022189Y007670D01*
X022189Y007552D02*
X022699Y007552D01*
X023131Y007315D02*
X022189Y007315D01*
X022189Y007196D02*
X023071Y007196D01*
X022953Y007078D02*
X022189Y007078D01*
X023684Y007680D02*
X023684Y007730D01*
X021349Y008737D02*
X020466Y008737D01*
X020466Y008855D02*
X021230Y008855D01*
X021112Y008974D02*
X020466Y008974D01*
X020106Y008974D02*
X019143Y008974D01*
X019143Y009092D02*
X019910Y009092D01*
X019910Y009211D02*
X017115Y009211D01*
X017115Y009244D02*
X016720Y009244D01*
X016720Y009364D01*
X017115Y009364D01*
X017115Y009581D01*
X017104Y009622D01*
X017083Y009658D01*
X017054Y009688D01*
X017017Y009709D01*
X016976Y009720D01*
X016720Y009720D01*
X016720Y009364D01*
X016600Y009364D01*
X016600Y009244D01*
X016205Y009244D01*
X016205Y009027D01*
X016216Y008986D01*
X016237Y008950D01*
X016266Y008920D01*
X016290Y008907D01*
X016245Y008862D01*
X016245Y008250D01*
X016315Y008180D01*
X017005Y008180D01*
X017075Y008250D01*
X017075Y008376D01*
X017123Y008376D01*
X017157Y008294D01*
X017224Y008227D01*
X017312Y008190D01*
X017408Y008190D01*
X017496Y008227D01*
X017563Y008294D01*
X017600Y008382D01*
X017600Y008478D01*
X017563Y008566D01*
X017540Y008589D01*
X017540Y008631D01*
X017435Y008736D01*
X017075Y008736D01*
X017075Y008862D01*
X017030Y008907D01*
X017054Y008920D01*
X017083Y008950D01*
X017104Y008986D01*
X017115Y009027D01*
X017115Y009244D01*
X017115Y009092D02*
X017677Y009092D01*
X017677Y008974D02*
X017097Y008974D01*
X017075Y008855D02*
X017677Y008855D01*
X017677Y008737D02*
X017075Y008737D01*
X017360Y008556D02*
X016660Y008556D01*
X016245Y008500D02*
X015776Y008500D01*
X015727Y008618D02*
X016245Y008618D01*
X016245Y008737D02*
X015608Y008737D01*
X015466Y008624D02*
X015496Y008594D01*
X015335Y008500D02*
X015010Y008500D01*
X015006Y008381D02*
X015428Y008381D01*
X015474Y008263D02*
X014084Y008263D01*
X013967Y008124D02*
X013946Y008147D01*
X013928Y008172D01*
X013913Y008199D01*
X013901Y008227D01*
X013893Y008257D01*
X013888Y008287D01*
X013886Y008318D01*
X013886Y008730D01*
X013510Y008737D02*
X012193Y008737D01*
X012149Y008855D02*
X013510Y008855D01*
X013510Y008974D02*
X012061Y008974D01*
X011866Y009092D02*
X013527Y009092D01*
X014245Y009092D02*
X014275Y009092D01*
X014454Y009211D02*
X011316Y009211D01*
X011316Y009092D02*
X011572Y009092D01*
X011671Y009092D02*
X011767Y009092D01*
X011767Y008974D02*
X011671Y008974D01*
X011671Y008855D02*
X011767Y008855D01*
X011767Y008737D02*
X011671Y008737D01*
X011767Y008618D02*
X013510Y008618D01*
X013510Y008500D02*
X012186Y008500D01*
X012136Y008381D02*
X013514Y008381D01*
X013426Y008263D02*
X013706Y008263D01*
X013741Y008144D02*
X013573Y008144D01*
X013563Y008166D02*
X013600Y008078D01*
X013600Y007982D01*
X013573Y007918D01*
X013666Y007918D01*
X013737Y007848D01*
X013737Y007512D01*
X013666Y007442D01*
X012701Y007442D01*
X012631Y007512D01*
X012631Y007848D01*
X012701Y007918D01*
X013139Y007918D01*
X013144Y007924D01*
X013120Y007982D01*
X013120Y008078D01*
X013157Y008166D01*
X013224Y008233D01*
X013312Y008270D01*
X013408Y008270D01*
X013496Y008233D01*
X013563Y008166D01*
X013294Y008263D02*
X012037Y008263D01*
X011767Y008263D02*
X011671Y008263D01*
X011671Y008381D02*
X011767Y008381D01*
X011767Y008500D02*
X011671Y008500D01*
X010956Y008381D02*
X010916Y008381D01*
X010956Y008263D02*
X010800Y008263D01*
X010956Y008144D02*
X007413Y008144D01*
X007418Y008026D02*
X010956Y008026D01*
X010643Y007907D02*
X007424Y007907D01*
X007429Y007789D02*
X009297Y007789D01*
X009065Y007670D02*
X007434Y007670D01*
X007440Y007552D02*
X008903Y007552D01*
X008784Y007433D02*
X007445Y007433D01*
X007825Y007315D02*
X008245Y007315D01*
X008245Y007196D02*
X007825Y007196D01*
X007825Y007078D02*
X008245Y007078D01*
X008245Y006959D02*
X007825Y006959D01*
X007825Y006841D02*
X008245Y006841D01*
X008271Y006722D02*
X007799Y006722D01*
X007825Y006604D02*
X008245Y006604D01*
X008245Y006485D02*
X007825Y006485D01*
X008660Y006306D02*
X009351Y006997D01*
X009478Y006869D02*
X009546Y006925D01*
X009706Y006991D01*
X009793Y007000D01*
X010595Y007000D01*
X010647Y006949D01*
X010642Y006947D01*
X010605Y006926D01*
X010575Y006896D01*
X010554Y006860D01*
X010543Y006819D01*
X010543Y006680D01*
X010543Y006541D01*
X010554Y006500D01*
X010575Y006464D01*
X010605Y006434D01*
X010642Y006413D01*
X010647Y006411D01*
X010583Y006348D01*
X010583Y006012D01*
X010654Y005942D01*
X011619Y005942D01*
X011657Y005980D01*
X011701Y005980D01*
X012745Y004936D01*
X012745Y004498D01*
X012790Y004453D01*
X012766Y004440D01*
X012737Y004410D01*
X012716Y004374D01*
X012705Y004333D01*
X012705Y004116D01*
X013100Y004116D01*
X013100Y003996D01*
X012705Y003996D01*
X012705Y003810D01*
X009610Y003810D01*
X009610Y003975D01*
X009540Y004045D01*
X008928Y004045D01*
X008860Y003977D01*
X008792Y004045D01*
X008653Y004045D01*
X008645Y004276D01*
X008663Y004294D01*
X008700Y004382D01*
X008700Y004478D01*
X008663Y004566D01*
X008596Y004633D01*
X008508Y004670D01*
X008433Y004670D01*
X008787Y005024D01*
X008791Y005029D01*
X008860Y005194D01*
X008860Y005930D01*
X009005Y005930D01*
X009075Y006000D01*
X009075Y006467D01*
X009478Y006869D01*
X009449Y006841D02*
X010549Y006841D01*
X010543Y006722D02*
X009331Y006722D01*
X009212Y006604D02*
X010543Y006604D01*
X010543Y006680D02*
X011136Y006680D01*
X011136Y006680D01*
X010543Y006680D01*
X011136Y006680D02*
X011729Y006680D01*
X011729Y006819D01*
X011719Y006860D01*
X011697Y006896D01*
X011668Y006926D01*
X011631Y006947D01*
X011626Y006949D01*
X011689Y007012D01*
X011689Y007348D01*
X011619Y007418D01*
X010654Y007418D01*
X010595Y007360D01*
X009633Y007360D01*
X009337Y007237D01*
X009276Y007177D01*
X009075Y006976D01*
X009075Y007215D01*
X009101Y007240D01*
X009188Y007317D01*
X009389Y007432D01*
X009612Y007492D01*
X009728Y007500D01*
X010595Y007500D01*
X010654Y007442D01*
X011619Y007442D01*
X011677Y007500D01*
X011768Y007500D01*
X011790Y007498D01*
X011830Y007481D01*
X011861Y007450D01*
X011878Y007410D01*
X011880Y007388D01*
X011880Y006373D01*
X011884Y006363D01*
X011867Y006380D01*
X011657Y006380D01*
X011626Y006411D01*
X011631Y006413D01*
X011668Y006434D01*
X011697Y006464D01*
X011719Y006500D01*
X011729Y006541D01*
X011729Y006680D01*
X011136Y006680D01*
X011136Y006680D01*
X010636Y006959D02*
X009628Y006959D01*
X009177Y007078D02*
X009075Y007078D01*
X009075Y007196D02*
X009295Y007196D01*
X009276Y007177D02*
X009276Y007177D01*
X009337Y007237D02*
X009337Y007237D01*
X009186Y007315D02*
X009523Y007315D01*
X009391Y007433D02*
X011868Y007433D01*
X012060Y007388D02*
X012058Y007421D01*
X012053Y007453D01*
X012044Y007484D01*
X012031Y007515D01*
X012015Y007543D01*
X011996Y007570D01*
X011974Y007594D01*
X011950Y007616D01*
X011923Y007635D01*
X011895Y007651D01*
X011864Y007664D01*
X011833Y007673D01*
X011801Y007678D01*
X011768Y007680D01*
X011136Y007680D01*
X009728Y007680D01*
X008973Y007367D02*
X008660Y007054D01*
X009793Y007180D02*
X011136Y007180D01*
X011689Y007196D02*
X011880Y007196D01*
X011880Y007078D02*
X011689Y007078D01*
X011636Y006959D02*
X011880Y006959D01*
X011880Y006841D02*
X011724Y006841D01*
X011729Y006722D02*
X011880Y006722D01*
X011880Y006604D02*
X011729Y006604D01*
X011710Y006485D02*
X011880Y006485D01*
X011880Y006367D02*
X011883Y006367D01*
X012060Y006481D02*
X012060Y007388D01*
X012240Y007433D02*
X014245Y007433D01*
X014245Y007552D02*
X013737Y007552D01*
X013737Y007670D02*
X014165Y007670D01*
X014047Y007789D02*
X013737Y007789D01*
X013677Y007907D02*
X013928Y007907D01*
X013810Y008026D02*
X013600Y008026D01*
X013967Y008123D02*
X014660Y007430D01*
X014660Y007304D01*
X014660Y007180D01*
X013960Y007180D01*
X013184Y007180D01*
X012631Y007196D02*
X012240Y007196D01*
X012240Y007078D02*
X012631Y007078D01*
X012684Y006959D02*
X012240Y006959D01*
X012240Y006841D02*
X012381Y006841D01*
X012320Y006722D02*
X012240Y006722D01*
X012240Y006604D02*
X012332Y006604D01*
X012416Y006485D02*
X012240Y006485D01*
X012060Y006481D02*
X012062Y006445D01*
X012067Y006410D01*
X012076Y006375D01*
X012088Y006342D01*
X012103Y006309D01*
X012121Y006279D01*
X012143Y006250D01*
X012167Y006224D01*
X013184Y006011D02*
X013184Y006011D01*
X012752Y005893D02*
X013726Y005893D01*
X013723Y005774D02*
X012871Y005774D01*
X012989Y005656D02*
X013795Y005656D01*
X013960Y005830D02*
X013960Y007180D01*
X015075Y007315D02*
X015367Y007315D01*
X015249Y007433D02*
X015075Y007433D01*
X015075Y007552D02*
X015204Y007552D01*
X015204Y007670D02*
X015015Y007670D01*
X015204Y007789D02*
X014556Y007789D01*
X014438Y007907D02*
X015260Y007907D01*
X015379Y008026D02*
X014319Y008026D01*
X014201Y008144D02*
X015480Y008144D01*
X015660Y008198D02*
X015660Y007670D01*
X015654Y007664D01*
X016048Y007907D02*
X017677Y007907D01*
X017677Y007789D02*
X016104Y007789D01*
X015929Y008026D02*
X017677Y008026D01*
X017677Y008144D02*
X015840Y008144D01*
X015840Y008263D02*
X016245Y008263D01*
X016245Y008381D02*
X015825Y008381D01*
X015466Y008624D02*
X015440Y008648D01*
X015412Y008669D01*
X015381Y008687D01*
X015349Y008703D01*
X015316Y008714D01*
X015281Y008723D01*
X015246Y008728D01*
X015211Y008730D01*
X014634Y008730D01*
X014634Y009730D01*
X015010Y009685D02*
X016263Y009685D01*
X016266Y009688D02*
X016237Y009658D01*
X016216Y009622D01*
X016205Y009581D01*
X016205Y009364D01*
X016600Y009364D01*
X016600Y009720D01*
X016344Y009720D01*
X016303Y009709D01*
X016266Y009688D01*
X016205Y009566D02*
X015010Y009566D01*
X015010Y009448D02*
X016205Y009448D01*
X016600Y009448D02*
X016720Y009448D01*
X016720Y009566D02*
X016600Y009566D01*
X016600Y009685D02*
X016720Y009685D01*
X017057Y009685D02*
X019910Y009685D01*
X019910Y009566D02*
X017115Y009566D01*
X017115Y009448D02*
X019910Y009448D01*
X019910Y009329D02*
X016720Y009329D01*
X016600Y009329D02*
X014954Y009329D01*
X014814Y009211D02*
X016205Y009211D01*
X016205Y009092D02*
X014993Y009092D01*
X015010Y008974D02*
X016223Y008974D01*
X016245Y008855D02*
X015451Y008855D01*
X014314Y009329D02*
X014206Y009329D01*
X013566Y009329D02*
X012354Y009329D01*
X012410Y009448D02*
X013510Y009448D01*
X013886Y009730D02*
X012034Y009730D01*
X011286Y009730D02*
X011136Y009730D01*
X011136Y007680D01*
X011630Y007907D02*
X012690Y007907D01*
X012631Y007789D02*
X012035Y007789D01*
X012154Y007670D02*
X012631Y007670D01*
X012631Y007552D02*
X012211Y007552D01*
X012240Y007315D02*
X012631Y007315D01*
X011880Y007315D02*
X011689Y007315D01*
X011316Y008026D02*
X013120Y008026D01*
X013147Y008144D02*
X011316Y008144D01*
X011316Y008263D02*
X011401Y008263D01*
X010276Y008263D02*
X007453Y008263D01*
X007570Y008381D02*
X010160Y008381D01*
X010111Y008500D02*
X007619Y008500D01*
X007636Y008618D02*
X010093Y008618D01*
X010101Y008737D02*
X007629Y008737D01*
X007580Y008855D02*
X010150Y008855D01*
X010252Y008974D02*
X007477Y008974D01*
X006906Y008974D02*
X006461Y008974D01*
X006549Y008855D02*
X006803Y008855D01*
X006754Y008737D02*
X006593Y008737D01*
X005777Y008974D02*
X005223Y008974D01*
X005326Y008855D02*
X005690Y008855D01*
X005645Y008737D02*
X005375Y008737D01*
X004652Y008974D02*
X001877Y008974D01*
X001980Y008855D02*
X004550Y008855D01*
X004501Y008737D02*
X002029Y008737D01*
X002036Y008618D02*
X004493Y008618D01*
X004511Y008500D02*
X002038Y008500D01*
X002171Y008381D02*
X004560Y008381D01*
X004676Y008263D02*
X002305Y008263D01*
X001836Y008144D02*
X001320Y008144D01*
X001320Y008026D02*
X001969Y008026D01*
X002070Y007907D02*
X001320Y007907D01*
X001320Y007789D02*
X001974Y007789D01*
X001910Y007670D02*
X001320Y007670D01*
X001320Y007552D02*
X001910Y007552D01*
X001910Y007433D02*
X001320Y007433D01*
X001320Y007315D02*
X001910Y007315D01*
X001910Y007196D02*
X001320Y007196D01*
X001320Y007078D02*
X001910Y007078D01*
X001330Y008263D02*
X001320Y008263D01*
X006266Y009092D02*
X010956Y009092D01*
X010956Y008974D02*
X010823Y008974D01*
X010926Y008855D02*
X010956Y008855D01*
X011316Y008974D02*
X011377Y008974D01*
X011606Y009329D02*
X011714Y009329D01*
X012410Y009922D02*
X013510Y009922D01*
X013510Y010040D02*
X012410Y010040D01*
X015010Y009803D02*
X019938Y009803D01*
X020634Y009803D02*
X020686Y009803D01*
X020106Y008855D02*
X019143Y008855D01*
X019143Y008737D02*
X020106Y008737D01*
X020106Y008618D02*
X019143Y008618D01*
X019143Y008500D02*
X020106Y008500D01*
X020106Y008381D02*
X019143Y008381D01*
X019143Y008263D02*
X020106Y008263D01*
X019779Y008144D02*
X019143Y008144D01*
X019143Y008026D02*
X019745Y008026D01*
X017677Y008263D02*
X017532Y008263D01*
X017599Y008381D02*
X017677Y008381D01*
X017677Y008500D02*
X017591Y008500D01*
X017540Y008618D02*
X017677Y008618D01*
X017360Y008556D02*
X017360Y008430D01*
X017188Y008263D02*
X017075Y008263D01*
X015660Y008198D02*
X015658Y008242D01*
X015653Y008285D01*
X015645Y008328D01*
X015633Y008371D01*
X015617Y008412D01*
X015599Y008452D01*
X015578Y008490D01*
X015553Y008527D01*
X015526Y008561D01*
X015496Y008593D01*
X014262Y008381D02*
X014258Y008381D01*
X013184Y006680D02*
X012560Y006680D01*
X010602Y006367D02*
X009075Y006367D01*
X009075Y006248D02*
X010583Y006248D01*
X010583Y006130D02*
X009075Y006130D01*
X009075Y006011D02*
X010584Y006011D01*
X011789Y005893D02*
X008860Y005893D01*
X008860Y005774D02*
X011907Y005774D01*
X012026Y005656D02*
X008860Y005656D01*
X008860Y005537D02*
X012144Y005537D01*
X012263Y005419D02*
X008860Y005419D01*
X008860Y005300D02*
X012381Y005300D01*
X012500Y005182D02*
X011898Y005182D01*
X011905Y005179D02*
X011833Y005203D01*
X011767Y005213D01*
X011767Y004778D01*
X011671Y004778D01*
X011671Y004682D01*
X011236Y004682D01*
X011246Y004616D01*
X011270Y004544D01*
X011304Y004476D01*
X011349Y004414D01*
X011403Y004360D01*
X011465Y004315D01*
X011533Y004281D01*
X011606Y004257D01*
X011671Y004247D01*
X011671Y004682D01*
X011767Y004682D01*
X011767Y004247D01*
X011833Y004257D01*
X011905Y004281D01*
X011973Y004315D01*
X012035Y004360D01*
X012089Y004414D01*
X012134Y004476D01*
X012168Y004544D01*
X012192Y004616D01*
X012202Y004682D01*
X011767Y004682D01*
X011767Y004778D01*
X012202Y004778D01*
X012192Y004844D01*
X012168Y004916D01*
X012134Y004984D01*
X012089Y005046D01*
X012035Y005100D01*
X011973Y005145D01*
X011905Y005179D01*
X011767Y005182D02*
X011671Y005182D01*
X011671Y005213D02*
X011606Y005203D01*
X011533Y005179D01*
X011465Y005145D01*
X011403Y005100D01*
X011349Y005046D01*
X011304Y004984D01*
X011270Y004916D01*
X011246Y004844D01*
X011236Y004778D01*
X011671Y004778D01*
X011671Y005213D01*
X011540Y005182D02*
X008855Y005182D01*
X008806Y005063D02*
X010242Y005063D01*
X010286Y005107D02*
X010161Y004982D01*
X010093Y004818D01*
X010093Y004642D01*
X010161Y004478D01*
X010286Y004353D01*
X010449Y004285D01*
X010626Y004285D01*
X010790Y004353D01*
X010915Y004478D01*
X010983Y004642D01*
X010983Y004818D01*
X010915Y004982D01*
X010790Y005107D01*
X010626Y005175D01*
X010449Y005175D01*
X010286Y005107D01*
X010145Y004945D02*
X008707Y004945D01*
X008787Y005024D02*
X008787Y005024D01*
X008791Y005029D02*
X008791Y005029D01*
X008589Y004826D02*
X010096Y004826D01*
X010093Y004708D02*
X008470Y004708D01*
X008640Y004589D02*
X010115Y004589D01*
X010168Y004471D02*
X008700Y004471D01*
X008687Y004352D02*
X010288Y004352D01*
X010788Y004352D02*
X011415Y004352D01*
X011308Y004471D02*
X010908Y004471D01*
X010961Y004589D02*
X011255Y004589D01*
X010983Y004708D02*
X011671Y004708D01*
X011767Y004708D02*
X012745Y004708D01*
X012745Y004826D02*
X012195Y004826D01*
X012154Y004945D02*
X012737Y004945D01*
X012618Y005063D02*
X012072Y005063D01*
X011767Y005063D02*
X011671Y005063D01*
X011671Y004945D02*
X011767Y004945D01*
X011767Y004826D02*
X011671Y004826D01*
X011366Y005063D02*
X010834Y005063D01*
X010931Y004945D02*
X011284Y004945D01*
X011243Y004826D02*
X010980Y004826D01*
X011671Y004589D02*
X011767Y004589D01*
X011767Y004471D02*
X011671Y004471D01*
X011671Y004352D02*
X011767Y004352D01*
X012024Y004352D02*
X012710Y004352D01*
X012705Y004234D02*
X008646Y004234D01*
X008650Y004115D02*
X013100Y004115D01*
X013100Y003997D02*
X009588Y003997D01*
X009610Y003878D02*
X012705Y003878D01*
X013220Y003996D02*
X013220Y004116D01*
X013615Y004116D01*
X013615Y004192D01*
X013920Y003887D01*
X013920Y003882D01*
X013950Y003810D01*
X013615Y003810D01*
X013615Y003996D01*
X013220Y003996D01*
X013220Y003997D02*
X013811Y003997D01*
X013922Y003878D02*
X013615Y003878D01*
X013692Y004115D02*
X013220Y004115D01*
X012773Y004471D02*
X012130Y004471D01*
X012183Y004589D02*
X012745Y004589D01*
X013160Y004804D02*
X013286Y004804D01*
X013411Y005350D02*
X013453Y005344D01*
X013494Y005334D01*
X013535Y005320D01*
X013574Y005304D01*
X013612Y005284D01*
X013648Y005262D01*
X013682Y005236D01*
X013714Y005208D01*
X013714Y005209D02*
X013845Y004937D01*
X013984Y005063D02*
X014910Y005063D01*
X014910Y004945D02*
X014163Y004945D01*
X013927Y005182D02*
X015854Y005182D01*
X015286Y004730D02*
X014288Y004730D01*
X014287Y004730D02*
X014238Y004735D01*
X014188Y004743D01*
X014140Y004756D01*
X014092Y004771D01*
X014046Y004791D01*
X014002Y004814D01*
X013959Y004840D01*
X013919Y004869D01*
X013880Y004902D01*
X013845Y004937D01*
X013411Y005351D02*
X013188Y005359D01*
X013769Y006011D02*
X013780Y006011D01*
X010563Y006485D02*
X009094Y006485D01*
X008973Y007367D02*
X009020Y007411D01*
X009069Y007453D01*
X009121Y007491D01*
X009175Y007526D01*
X009232Y007558D01*
X009290Y007586D01*
X009349Y007611D01*
X009410Y007632D01*
X009472Y007649D01*
X009535Y007663D01*
X009599Y007672D01*
X009664Y007678D01*
X009728Y007680D01*
X006995Y007315D02*
X006575Y007315D01*
X006575Y007196D02*
X006995Y007196D01*
X006995Y007078D02*
X006575Y007078D01*
X006575Y006959D02*
X006995Y006959D01*
X006995Y006841D02*
X006575Y006841D01*
X006549Y006722D02*
X007021Y006722D01*
X006995Y006604D02*
X006575Y006604D01*
X006575Y006485D02*
X006995Y006485D01*
X006995Y006367D02*
X006575Y006367D01*
X005989Y005774D02*
X001320Y005774D01*
X001320Y005656D02*
X006046Y005656D01*
X006160Y005537D02*
X001320Y005537D01*
X001320Y005419D02*
X006272Y005419D01*
X006383Y005300D02*
X001320Y005300D01*
X001320Y005182D02*
X005940Y005182D01*
X005655Y004589D02*
X005361Y004589D01*
X005308Y004471D02*
X005708Y004471D01*
X005815Y004352D02*
X005188Y004352D01*
X004688Y004352D02*
X002637Y004352D01*
X002688Y004234D02*
X007710Y004234D01*
X007710Y004352D02*
X007441Y004352D01*
X007561Y004471D02*
X007742Y004471D01*
X007791Y004589D02*
X007615Y004589D01*
X007636Y004708D02*
X007905Y004708D01*
X008023Y004826D02*
X007633Y004826D01*
X007584Y004945D02*
X008142Y004945D01*
X008260Y005063D02*
X007488Y005063D01*
X008129Y004352D02*
X008233Y004352D01*
X008286Y004234D02*
X008110Y004234D01*
X008110Y004115D02*
X008290Y004115D01*
X008132Y003997D02*
X008110Y003997D01*
X008110Y003878D02*
X008091Y003878D01*
X008110Y003760D02*
X008042Y003760D01*
X008026Y003720D02*
X008026Y003720D01*
X008026Y003720D01*
X007947Y003641D02*
X008110Y003641D01*
X008110Y003523D02*
X007769Y003523D01*
X007870Y003564D02*
X007870Y003564D01*
X008110Y003404D02*
X003660Y003404D01*
X003610Y003286D02*
X008110Y003286D01*
X008486Y003630D02*
X008460Y004430D01*
X007710Y004115D02*
X002736Y004115D01*
X003660Y003997D02*
X007704Y003997D01*
X008840Y003997D02*
X008880Y003997D01*
X009234Y003630D02*
X015286Y003630D01*
X014910Y003404D02*
X009610Y003404D01*
X009610Y003286D02*
X014910Y003286D01*
X016410Y003286D02*
X029924Y003286D01*
X029924Y003404D02*
X016410Y003404D01*
X023104Y005586D02*
X023760Y004930D01*
X023786Y004930D01*
X024534Y004930D02*
X025455Y005635D01*
X025340Y005774D02*
X023187Y005774D01*
X023289Y005656D02*
X025185Y005656D01*
X025031Y005537D02*
X023408Y005537D01*
X023526Y005419D02*
X024876Y005419D01*
X025313Y005300D02*
X025970Y005300D01*
X025954Y005419D02*
X025468Y005419D01*
X025455Y005635D02*
X025482Y005653D01*
X025510Y005669D01*
X025540Y005680D01*
X025570Y005689D01*
X025602Y005694D01*
X025634Y005696D01*
X025407Y005826D02*
X025407Y005826D01*
X025405Y005823D02*
X025405Y005823D01*
X025573Y006248D02*
X026200Y006248D01*
X026081Y006367D02*
X025851Y006367D01*
X025160Y006430D02*
X025160Y006556D01*
X023684Y006130D02*
X023684Y006130D01*
X024137Y005300D02*
X024183Y005300D01*
X024910Y004945D02*
X027245Y004945D01*
X027245Y005063D02*
X025004Y005063D01*
X025159Y005182D02*
X027685Y005182D01*
X027771Y005300D02*
X026838Y005300D01*
X026854Y005419D02*
X027856Y005419D01*
X027941Y005537D02*
X026854Y005537D01*
X026854Y005656D02*
X028027Y005656D01*
X028112Y005774D02*
X026854Y005774D01*
X026854Y005893D02*
X028197Y005893D01*
X028258Y005977D02*
X028258Y005977D01*
X028311Y006011D02*
X028036Y006011D01*
X028075Y006130D02*
X031764Y006130D01*
X031764Y006248D02*
X028075Y006248D01*
X027284Y006011D02*
X026869Y006011D01*
X026958Y006130D02*
X027245Y006130D01*
X028519Y005656D02*
X030160Y005656D01*
X030160Y005537D02*
X029893Y005537D01*
X029893Y005419D02*
X029980Y005419D01*
X029964Y005300D02*
X029893Y005300D01*
X029893Y005182D02*
X029964Y005182D01*
X029964Y005063D02*
X029893Y005063D01*
X029893Y004945D02*
X029964Y004945D01*
X029964Y004826D02*
X029893Y004826D01*
X029893Y004708D02*
X030010Y004708D01*
X029893Y004589D02*
X031724Y004589D01*
X031724Y004471D02*
X029893Y004471D01*
X029893Y004352D02*
X031724Y004352D01*
X031724Y004234D02*
X029882Y004234D01*
X029924Y003878D02*
X028115Y003878D01*
X028110Y003760D02*
X029924Y003760D01*
X028438Y004234D02*
X028115Y004234D01*
X028110Y004352D02*
X028427Y004352D01*
X028427Y004471D02*
X028047Y004471D01*
X028075Y004589D02*
X028427Y004589D01*
X028427Y004708D02*
X028075Y004708D01*
X028075Y004826D02*
X028427Y004826D01*
X028427Y004945D02*
X028075Y004945D01*
X028093Y005063D02*
X028427Y005063D01*
X028427Y005182D02*
X028178Y005182D01*
X028263Y005300D02*
X028427Y005300D01*
X028427Y005419D02*
X028349Y005419D01*
X027245Y004826D02*
X024910Y004826D01*
X024910Y004708D02*
X027207Y004708D01*
X027116Y004589D02*
X024910Y004589D01*
X027534Y004804D02*
X027660Y004804D01*
X027720Y004115D02*
X031724Y004115D01*
X032100Y004234D02*
X032220Y004234D01*
X032220Y004352D02*
X032100Y004352D01*
X032100Y004471D02*
X032220Y004471D01*
X032220Y004589D02*
X032100Y004589D01*
X032100Y004708D02*
X032220Y004708D01*
X032527Y004708D02*
X034793Y004708D01*
X034724Y004589D02*
X032596Y004589D01*
X032596Y004471D02*
X034724Y004471D01*
X034724Y004352D02*
X032596Y004352D01*
X032596Y004234D02*
X034724Y004234D01*
X034724Y004115D02*
X032596Y004115D01*
X032596Y003878D02*
X034724Y003878D01*
X034724Y003760D02*
X032596Y003760D01*
X032596Y003641D02*
X034724Y003641D01*
X034724Y003523D02*
X032596Y003523D01*
X032596Y003404D02*
X034724Y003404D01*
X034767Y003286D02*
X032553Y003286D01*
X032220Y003286D02*
X032100Y003286D01*
X032100Y003404D02*
X032220Y003404D01*
X032220Y003523D02*
X032100Y003523D01*
X032100Y003641D02*
X032220Y003641D01*
X032220Y003760D02*
X032100Y003760D01*
X032100Y003878D02*
X032220Y003878D01*
X035100Y003404D02*
X035220Y003404D01*
X035220Y003286D02*
X035100Y003286D01*
X036296Y004761D02*
X036296Y004761D01*
X036231Y004826D02*
X030756Y004826D01*
X030756Y004945D02*
X036113Y004945D01*
X034818Y005182D02*
X032502Y005182D01*
X032556Y005300D02*
X034764Y005300D01*
X034764Y005419D02*
X032556Y005419D01*
X032556Y005537D02*
X034764Y005537D01*
X037453Y004826D02*
X039177Y004826D01*
X039177Y004708D02*
X037740Y004708D01*
X037605Y004785D02*
X037605Y004785D01*
X038664Y004945D02*
X039177Y004945D01*
X039177Y005063D02*
X038791Y005063D01*
X038796Y005182D02*
X039177Y005182D01*
X039177Y005300D02*
X038796Y005300D01*
X031818Y005182D02*
X030756Y005182D01*
X030756Y005300D02*
X031764Y005300D01*
X031764Y005419D02*
X030740Y005419D01*
X030560Y005537D02*
X031764Y005537D01*
X031764Y005656D02*
X030560Y005656D01*
X030710Y004708D02*
X031793Y004708D01*
X028248Y007315D02*
X028075Y007315D01*
X028052Y007433D02*
X028217Y007433D01*
X028137Y007552D02*
X027867Y007552D01*
X028380Y007907D02*
X028427Y007907D01*
X028427Y008026D02*
X028300Y008026D01*
X028220Y008144D02*
X028427Y008144D01*
X025500Y008591D02*
X025464Y008629D01*
X025431Y008669D01*
X025402Y008712D01*
X025375Y008757D01*
X025352Y008803D01*
X025332Y008851D01*
X025316Y008901D01*
X025303Y008951D01*
X025293Y009002D01*
X025288Y009054D01*
X025286Y009106D01*
X026034Y009430D02*
X026660Y009430D01*
X032473Y009211D02*
X032790Y009211D01*
X032700Y009092D02*
X032580Y009092D01*
X032580Y008974D02*
X032700Y008974D01*
X032700Y008855D02*
X032580Y008855D01*
X032560Y008737D02*
X032703Y008737D01*
X032821Y008618D02*
X032442Y008618D01*
X034380Y008500D02*
X034940Y008500D01*
X034969Y008470D02*
X035120Y008470D01*
X035120Y008890D01*
X035200Y008890D01*
X035200Y008970D01*
X035620Y008970D01*
X035620Y009121D01*
X035351Y009390D01*
X035200Y009390D01*
X035200Y008970D01*
X035120Y008970D01*
X035120Y009390D01*
X034969Y009390D01*
X034700Y009121D01*
X034700Y008970D01*
X035120Y008970D01*
X035120Y008890D01*
X034700Y008890D01*
X034700Y008739D01*
X034969Y008470D01*
X035120Y008500D02*
X035200Y008500D01*
X035200Y008470D02*
X035351Y008470D01*
X035620Y008739D01*
X035620Y008890D01*
X035200Y008890D01*
X035200Y008470D01*
X035200Y008618D02*
X035120Y008618D01*
X035120Y008737D02*
X035200Y008737D01*
X035200Y008855D02*
X035120Y008855D01*
X035120Y008974D02*
X035200Y008974D01*
X035200Y009092D02*
X035120Y009092D01*
X035120Y009211D02*
X035200Y009211D01*
X035200Y009329D02*
X035120Y009329D01*
X034908Y009329D02*
X034412Y009329D01*
X034530Y009211D02*
X034790Y009211D01*
X034700Y009092D02*
X034620Y009092D01*
X034620Y008974D02*
X034700Y008974D01*
X034700Y008855D02*
X034620Y008855D01*
X034617Y008737D02*
X034703Y008737D01*
X034821Y008618D02*
X034499Y008618D01*
X035380Y008500D02*
X035960Y008500D01*
X035878Y008618D02*
X035499Y008618D01*
X035617Y008737D02*
X035760Y008737D01*
X035740Y008855D02*
X035620Y008855D01*
X035620Y008974D02*
X035740Y008974D01*
X035740Y009092D02*
X035620Y009092D01*
X035530Y009211D02*
X035847Y009211D01*
X035965Y009329D02*
X035412Y009329D01*
X033755Y009685D02*
X033565Y009685D01*
X033620Y009803D02*
X033700Y009803D01*
X033200Y009803D02*
X033120Y009803D01*
X033120Y009685D02*
X033200Y009685D01*
X033200Y009566D02*
X033120Y009566D01*
X032700Y010040D02*
X032580Y010040D01*
X032525Y010159D02*
X032738Y010159D01*
X033582Y010159D02*
X033738Y010159D01*
X033700Y010040D02*
X033620Y010040D01*
X034582Y010159D02*
X034738Y010159D01*
X034700Y010040D02*
X034620Y010040D01*
X009793Y007180D02*
X009744Y007178D01*
X009695Y007172D01*
X009647Y007163D01*
X009600Y007149D01*
X009553Y007132D01*
X009509Y007112D01*
X009466Y007088D01*
X009425Y007060D01*
X009386Y007030D01*
X009350Y006997D01*
X004568Y004471D02*
X002574Y004471D01*
X002862Y003286D02*
X002958Y003286D01*
D23*
X008460Y004430D03*
X013960Y005830D03*
X012560Y006680D03*
X013360Y008030D03*
X017360Y008430D03*
X021660Y008180D03*
X022860Y007730D03*
X025660Y006830D03*
X028460Y007430D03*
X027660Y007680D03*
X030660Y008430D03*
X028410Y009430D03*
X026660Y009430D03*
X024910Y008680D03*
X022860Y006730D03*
X021660Y005830D03*
X022410Y005680D03*
X023660Y005680D03*
X019460Y006730D03*
X014160Y003930D03*
X008060Y006230D03*
X005560Y007130D03*
X003660Y007430D03*
X026860Y003930D03*
X034660Y007430D03*
X039160Y007180D03*
D24*
X036211Y007430D02*
X036160Y007481D01*
X036160Y008930D01*
X032160Y008930D02*
X032160Y008576D01*
X032158Y008541D01*
X032153Y008507D01*
X032145Y008473D01*
X032133Y008441D01*
X032118Y008409D01*
X032100Y008379D01*
X032080Y008351D01*
X032056Y008326D01*
X031160Y007430D01*
X031109Y007430D01*
X032211Y007430D02*
X032211Y005926D01*
X032160Y005875D01*
X030360Y005875D01*
X030360Y005078D01*
X028531Y005875D02*
X028505Y005873D01*
X028479Y005868D01*
X028454Y005859D01*
X028430Y005847D01*
X028408Y005832D01*
X028389Y005814D01*
X028372Y005794D01*
X028372Y005793D02*
X027660Y004804D01*
X027534Y004804D02*
X026860Y003930D01*
X028531Y005875D02*
X030360Y005875D01*
X035109Y005926D02*
X035160Y005875D01*
X035465Y005875D01*
X036496Y004844D01*
X036892Y004680D02*
X037067Y004680D01*
X037912Y004330D02*
X038360Y003882D01*
X037911Y004330D02*
X037863Y004376D01*
X037811Y004420D01*
X037758Y004460D01*
X037702Y004497D01*
X037645Y004531D01*
X037585Y004562D01*
X037524Y004589D01*
X037461Y004613D01*
X037398Y004633D01*
X037333Y004650D01*
X037267Y004663D01*
X037201Y004672D01*
X037134Y004678D01*
X037067Y004680D01*
X036892Y004680D02*
X036848Y004682D01*
X036805Y004687D01*
X036762Y004695D01*
X036719Y004707D01*
X036678Y004723D01*
X036638Y004741D01*
X036600Y004762D01*
X036563Y004787D01*
X036529Y004814D01*
X036497Y004844D01*
X035109Y005926D02*
X035109Y007430D01*
X034660Y007430D01*
X032160Y008930D02*
X032160Y009930D01*
X027786Y008430D02*
X027660Y008556D01*
X027786Y008430D02*
X028460Y007430D01*
X021636Y006180D02*
X021636Y005830D01*
X014160Y003930D02*
X013286Y004804D01*
X013160Y004804D02*
X011784Y006180D01*
X011136Y006180D01*
X008660Y006306D02*
X008660Y005284D01*
X008587Y005107D02*
X008014Y004534D01*
X007910Y004284D02*
X007910Y004034D01*
X007908Y003997D01*
X007902Y003960D01*
X007893Y003925D01*
X007879Y003890D01*
X007863Y003857D01*
X007842Y003826D01*
X007819Y003797D01*
X007793Y003771D01*
X007764Y003748D01*
X007733Y003727D01*
X007700Y003711D01*
X007665Y003697D01*
X007630Y003688D01*
X007593Y003682D01*
X007556Y003680D01*
X003284Y003680D01*
X002536Y003680D02*
X002536Y003943D01*
X002534Y003994D01*
X002528Y004045D01*
X002519Y004095D01*
X002505Y004144D01*
X002488Y004192D01*
X002467Y004239D01*
X002443Y004283D01*
X002415Y004326D01*
X002384Y004367D01*
X002350Y004405D01*
X002313Y004440D01*
X002274Y004473D01*
X002232Y004502D01*
X002189Y004528D01*
X002143Y004551D01*
X002096Y004570D01*
X002095Y004571D02*
X001591Y004730D01*
X006160Y005937D02*
X006160Y006306D01*
X006160Y005937D02*
X006162Y005907D01*
X006167Y005877D01*
X006175Y005847D01*
X006187Y005819D01*
X006202Y005793D01*
X006219Y005768D01*
X006239Y005745D01*
X007191Y004730D01*
X008014Y004534D02*
X007990Y004509D01*
X007970Y004481D01*
X007952Y004451D01*
X007937Y004419D01*
X007925Y004387D01*
X007917Y004353D01*
X007912Y004319D01*
X007910Y004284D01*
X008587Y005107D02*
X008605Y005128D01*
X008622Y005151D01*
X008635Y005176D01*
X008646Y005201D01*
X008654Y005228D01*
X008658Y005256D01*
X008660Y005284D01*
X007410Y007054D02*
X007254Y007210D01*
X007191Y008630D01*
X003660Y007430D02*
X003034Y007430D01*
X003034Y007380D01*
X002286Y007380D02*
X002286Y007840D01*
X002284Y007877D01*
X002279Y007915D01*
X002270Y007951D01*
X002257Y007986D01*
X002241Y008020D01*
X002222Y008052D01*
X002199Y008082D01*
X002174Y008110D01*
X001591Y008630D01*
X005560Y007130D02*
X006084Y007130D01*
X006160Y007054D01*
X013184Y007680D02*
X013360Y007856D01*
X013360Y008030D01*
M02*
