%
M48
M72
T01C0.0120
T02C0.0400
T03C0.0433
T04C0.0827
%
T01
X8460Y4430
X13960Y5830
X12560Y6680
X13360Y8030
X17360Y8430
X21660Y8180
X22860Y7730
X25660Y6830
X28460Y7430
X27660Y7680
X30660Y8430
X28410Y9430
X26660Y9430
X24910Y8680
X22860Y6730
X21660Y5830
X22410Y5680
X23660Y5680
X19460Y6730
X14160Y3930
X8060Y6230
X5560Y7130
X3660Y7430
X26860Y3930
X34660Y7430
X39160Y7180
T02
X32160Y9930
X33160Y9930
X34160Y9930
X35160Y9930
X36160Y9930
X36160Y8930
X35160Y8930
X34160Y8930
X33160Y8930
X32160Y8930
T03
X1591Y8630
X4938Y8630
X6119Y8630
X7191Y8630
X10538Y8630
X11719Y8630
X15654Y7664
X15654Y6680
X15654Y5696
X11719Y4730
X10538Y4730
X7191Y4730
X6119Y4730
X4938Y4730
X1591Y4730
X26404Y5696
X26404Y6680
X26404Y7664
X37154Y7664
X37154Y6680
X37154Y5696
T04
X18410Y4908
X29160Y4908
X39910Y4908
X39910Y8452
X29160Y8452
X18410Y8452
M30
