G75*
%MOIN*%
%OFA0B0*%
%FSLAX24Y24*%
%IPPOS*%
%LPD*%
%AMOC8*
5,1,8,0,0,1.08239X$1,22.5*
%
%ADD10C,0.0000*%
%ADD11C,0.1660*%
%ADD12C,0.3195*%
%ADD13C,0.2762*%
%ADD14C,0.0160*%
D10*
X004060Y005430D02*
X004060Y013304D01*
X054651Y013304D01*
X054651Y005430D01*
X004060Y005430D01*
D11*
X005241Y010351D03*
X053351Y010351D03*
D12*
X048420Y009367D03*
X037670Y009367D03*
X026920Y009367D03*
D13*
X017670Y007417D03*
X012070Y007417D03*
X012070Y011317D03*
X017670Y011317D03*
D14*
X004240Y011295D02*
X053094Y011295D01*
X053158Y011321D02*
X052802Y011174D01*
X052529Y010901D01*
X052381Y010544D01*
X052381Y010158D01*
X052529Y009802D01*
X052802Y009529D01*
X053158Y009381D01*
X053544Y009381D01*
X053901Y009529D01*
X054174Y009802D01*
X054321Y010158D01*
X054321Y010544D01*
X054174Y010901D01*
X053901Y011174D01*
X053544Y011321D01*
X053158Y011321D01*
X052764Y011136D02*
X004240Y011136D01*
X004240Y010978D02*
X052606Y010978D01*
X052495Y010819D02*
X004240Y010819D01*
X004240Y010661D02*
X052430Y010661D01*
X052381Y010502D02*
X004240Y010502D01*
X004240Y010344D02*
X052381Y010344D01*
X052381Y010185D02*
X004240Y010185D01*
X004240Y010027D02*
X052436Y010027D01*
X052502Y009868D02*
X004240Y009868D01*
X004240Y009710D02*
X052621Y009710D01*
X052780Y009551D02*
X004240Y009551D01*
X004240Y009393D02*
X053131Y009393D01*
X053571Y009393D02*
X054471Y009393D01*
X054471Y009551D02*
X053923Y009551D01*
X054081Y009710D02*
X054471Y009710D01*
X054471Y009868D02*
X054201Y009868D01*
X054267Y010027D02*
X054471Y010027D01*
X054471Y010185D02*
X054321Y010185D01*
X054321Y010344D02*
X054471Y010344D01*
X054471Y010502D02*
X054321Y010502D01*
X054273Y010661D02*
X054471Y010661D01*
X054471Y010819D02*
X054207Y010819D01*
X054097Y010978D02*
X054471Y010978D01*
X054471Y011136D02*
X053938Y011136D01*
X053609Y011295D02*
X054471Y011295D01*
X054471Y011453D02*
X004240Y011453D01*
X004240Y011612D02*
X054471Y011612D01*
X054471Y011770D02*
X004240Y011770D01*
X004240Y011929D02*
X054471Y011929D01*
X054471Y012087D02*
X004240Y012087D01*
X004240Y012246D02*
X054471Y012246D01*
X054471Y012404D02*
X004240Y012404D01*
X004240Y012563D02*
X054471Y012563D01*
X054471Y012721D02*
X004240Y012721D01*
X004240Y012880D02*
X054471Y012880D01*
X054471Y013038D02*
X004240Y013038D01*
X004240Y013124D02*
X054471Y013124D01*
X054471Y005610D01*
X004240Y005610D01*
X004240Y013124D01*
X004240Y009234D02*
X054471Y009234D01*
X054471Y009076D02*
X004240Y009076D01*
X004240Y008917D02*
X054471Y008917D01*
X054471Y008759D02*
X004240Y008759D01*
X004240Y008600D02*
X054471Y008600D01*
X054471Y008442D02*
X004240Y008442D01*
X004240Y008283D02*
X054471Y008283D01*
X054471Y008125D02*
X004240Y008125D01*
X004240Y007966D02*
X054471Y007966D01*
X054471Y007808D02*
X004240Y007808D01*
X004240Y007649D02*
X054471Y007649D01*
X054471Y007491D02*
X004240Y007491D01*
X004240Y007332D02*
X054471Y007332D01*
X054471Y007174D02*
X004240Y007174D01*
X004240Y007015D02*
X054471Y007015D01*
X054471Y006857D02*
X004240Y006857D01*
X004240Y006698D02*
X054471Y006698D01*
X054471Y006540D02*
X004240Y006540D01*
X004240Y006381D02*
X054471Y006381D01*
X054471Y006223D02*
X004240Y006223D01*
X004240Y006064D02*
X054471Y006064D01*
X054471Y005906D02*
X004240Y005906D01*
X004240Y005747D02*
X054471Y005747D01*
M02*
