G75*
%MOIN*%
%OFA0B0*%
%FSLAX24Y24*%
%IPPOS*%
%LPD*%
%AMOC8*
5,1,8,0,0,1.08239X$1,22.5*
%
%ADD10C,0.0000*%
%ADD11R,0.0010X0.0140*%
%ADD12R,0.0010X0.0010*%
%ADD13R,0.0010X0.0070*%
%ADD14R,0.0010X0.0030*%
%ADD15R,0.0010X0.0210*%
%ADD16R,0.0010X0.0120*%
%ADD17R,0.0010X0.0130*%
%ADD18R,0.0010X0.0170*%
%ADD19R,0.0010X0.0150*%
%ADD20R,0.0010X0.0180*%
%ADD21R,0.0010X0.0260*%
%ADD22R,0.0010X0.0190*%
%ADD23R,0.0010X0.0160*%
%ADD24R,0.0010X0.0290*%
%ADD25R,0.0010X0.0310*%
%ADD26R,0.0010X0.0220*%
%ADD27R,0.0010X0.0230*%
%ADD28R,0.0010X0.0330*%
%ADD29R,0.0010X0.0240*%
%ADD30R,0.0010X0.0250*%
%ADD31R,0.0010X0.0340*%
%ADD32R,0.0010X0.0270*%
%ADD33R,0.0010X0.0350*%
%ADD34R,0.0010X0.0450*%
%ADD35R,0.0010X0.0370*%
%ADD36R,0.0010X0.0420*%
%ADD37R,0.0010X0.0430*%
%ADD38R,0.0010X0.0460*%
%ADD39R,0.0010X0.0390*%
%ADD40R,0.0010X0.0400*%
%ADD41R,0.0010X0.0440*%
%ADD42R,0.0010X0.0200*%
%ADD43R,0.0010X0.0110*%
%ADD44R,0.0010X0.0020*%
%ADD45R,0.0010X0.0300*%
%ADD46R,0.0010X0.0410*%
%ADD47R,0.0010X0.0380*%
%ADD48R,0.0010X0.0320*%
%ADD49R,0.0010X0.0360*%
%ADD50R,0.0010X0.0100*%
%ADD51R,0.0010X0.0280*%
%ADD52R,0.0010X0.0090*%
%ADD53R,0.0010X0.0060*%
%ADD54R,0.0010X0.0050*%
%ADD55R,0.0160X0.0010*%
%ADD56R,0.0010X0.0490*%
%ADD57R,0.0010X0.0500*%
%ADD58C,0.1700*%
%ADD59C,0.3235*%
%ADD60C,0.2802*%
D10*
X004060Y005430D02*
X004060Y013304D01*
X054651Y013304D01*
X054651Y005430D01*
X004060Y005430D01*
D11*
X051900Y007445D03*
X051890Y007835D03*
X052310Y008365D03*
X052320Y008365D03*
X052330Y008365D03*
X052350Y008365D03*
X052370Y008355D03*
X052380Y008355D03*
X052390Y008355D03*
X052420Y008345D03*
X052430Y008345D03*
X052450Y008345D03*
X052470Y008335D03*
X052480Y008335D03*
X052490Y008335D03*
X052430Y008565D03*
X052420Y008565D03*
X052410Y008565D03*
X052400Y008565D03*
X052370Y008555D03*
X052360Y008555D03*
X052350Y008555D03*
X052340Y008555D03*
X052310Y008545D03*
X052300Y008545D03*
X052290Y008545D03*
X052440Y008575D03*
X052450Y008575D03*
X052460Y008575D03*
X052470Y008575D03*
X054030Y008535D03*
X054050Y008545D03*
X054070Y008545D03*
X054080Y008545D03*
X054110Y008555D03*
X054120Y008555D03*
X054130Y008555D03*
X054150Y008555D03*
X054170Y008565D03*
X054180Y008565D03*
X054190Y008565D03*
X054200Y008565D03*
X054220Y008575D03*
X054230Y008575D03*
X054250Y008575D03*
X054210Y008345D03*
X054200Y008345D03*
X054190Y008345D03*
X054160Y008355D03*
X054150Y008355D03*
X054130Y008355D03*
X054110Y008365D03*
X054090Y008365D03*
X054080Y008365D03*
X054230Y008335D03*
X054250Y008335D03*
X054260Y008335D03*
X054140Y007215D03*
X054130Y007215D03*
X053380Y007265D03*
D12*
X053650Y007370D03*
X054100Y007280D03*
X054100Y007260D03*
X054100Y007240D03*
X054100Y007220D03*
X054100Y007200D03*
X054100Y007180D03*
X054100Y007160D03*
X054100Y007140D03*
X054280Y007280D03*
X054280Y007400D03*
X053660Y007900D03*
X053660Y007920D03*
X054470Y008130D03*
X054470Y008170D03*
X054470Y008210D03*
X054470Y008250D03*
X054470Y008290D03*
X054470Y008330D03*
X053590Y008330D03*
X053590Y008290D03*
X053590Y008250D03*
X053590Y008210D03*
X053590Y008410D03*
X053590Y008450D03*
X053590Y008490D03*
X053590Y008530D03*
X053590Y008570D03*
X053590Y008610D03*
X053590Y008650D03*
X053590Y008690D03*
X053590Y008730D03*
X053590Y008770D03*
X053590Y008810D03*
X053590Y008850D03*
X054470Y008810D03*
X054470Y008770D03*
X054470Y008730D03*
X054470Y008690D03*
X054470Y008650D03*
X054470Y008610D03*
X054470Y008570D03*
X052500Y007940D03*
X051900Y008100D03*
X051900Y008120D03*
X051900Y008140D03*
X051900Y008160D03*
X051900Y008180D03*
X051900Y008200D03*
X051900Y008220D03*
X051900Y008240D03*
X051900Y008260D03*
X051900Y008400D03*
X051900Y008420D03*
X051900Y008440D03*
X051900Y008460D03*
X051900Y008480D03*
X051900Y008500D03*
X051900Y008520D03*
X051900Y008660D03*
X051900Y008680D03*
X051900Y008700D03*
X051900Y008720D03*
X051900Y008740D03*
X051900Y008760D03*
X051900Y008780D03*
X051900Y008800D03*
X051890Y007490D03*
X051900Y007300D03*
X051900Y007280D03*
X051900Y007260D03*
X051900Y007240D03*
X051900Y007220D03*
X051900Y007200D03*
X051900Y007180D03*
X051900Y007160D03*
X051890Y007010D03*
X052500Y007000D03*
X052500Y006980D03*
X052500Y006960D03*
X052500Y007020D03*
X052500Y007040D03*
X052500Y007060D03*
X052500Y007080D03*
X052500Y007100D03*
X052580Y006900D03*
X052580Y006880D03*
X052580Y006860D03*
X052500Y006840D03*
X052500Y006820D03*
X052500Y006800D03*
X052500Y006780D03*
X052500Y006760D03*
X052500Y006740D03*
X052500Y006720D03*
X052500Y006700D03*
X052500Y006680D03*
X051900Y006680D03*
X051900Y006700D03*
X051900Y006720D03*
X051900Y006740D03*
X051900Y006760D03*
X051900Y006780D03*
X051900Y006800D03*
X051900Y006820D03*
X051900Y006600D03*
X051900Y006580D03*
X051900Y006560D03*
X051900Y006540D03*
X051900Y006520D03*
X051900Y006500D03*
X051900Y006480D03*
X051900Y006460D03*
X051900Y006440D03*
X051890Y006230D03*
X051890Y006210D03*
X052010Y006170D03*
X051900Y006080D03*
X051900Y006060D03*
X051900Y006040D03*
X051900Y006020D03*
X051900Y006000D03*
X051900Y005980D03*
X051900Y005960D03*
X051900Y005940D03*
X051900Y005920D03*
X051900Y005860D03*
X051900Y005840D03*
X051900Y005820D03*
X051900Y005800D03*
X051900Y005780D03*
X051900Y005760D03*
X051900Y005740D03*
X051900Y005720D03*
X052330Y005650D03*
X052330Y005630D03*
X052510Y005590D03*
X052500Y005720D03*
X052500Y005740D03*
X052500Y005760D03*
X052500Y005780D03*
X052500Y005800D03*
X052500Y005820D03*
X052500Y005840D03*
X052500Y005860D03*
X052400Y006160D03*
X052320Y006220D03*
X052320Y006240D03*
X052320Y006260D03*
X052320Y006280D03*
X052320Y006300D03*
X052320Y006320D03*
X052320Y006340D03*
X052320Y006360D03*
X052320Y006380D03*
X053650Y006570D03*
X053660Y006560D03*
X053650Y006590D03*
X053650Y006650D03*
X052370Y007370D03*
D13*
X052510Y007440D03*
X051890Y007440D03*
X052810Y006940D03*
D14*
X051890Y006980D03*
X053650Y006620D03*
X051890Y006260D03*
X053650Y007340D03*
X053450Y007680D03*
X053450Y007720D03*
X053450Y007760D03*
X053450Y007800D03*
D15*
X053350Y008040D03*
X053820Y008460D03*
X053830Y008460D03*
X053840Y008460D03*
X052080Y008460D03*
X052060Y008460D03*
X051900Y007840D03*
X052460Y007440D03*
X053350Y007270D03*
X053670Y007350D03*
X054060Y007440D03*
X054270Y007340D03*
X053350Y006930D03*
X052850Y006930D03*
X052690Y006770D03*
X051930Y006970D03*
X052010Y006290D03*
X051920Y006240D03*
X052020Y006040D03*
X052030Y006030D03*
X052280Y006040D03*
X052290Y006030D03*
X052400Y006040D03*
X052180Y006240D03*
X052330Y005770D03*
D16*
X052440Y005635D03*
X052450Y005635D03*
X051900Y006975D03*
X052200Y008385D03*
X052220Y008385D03*
X052230Y008385D03*
X052280Y008375D03*
X052240Y008535D03*
X052220Y008535D03*
X052200Y008525D03*
X053960Y008525D03*
X053970Y008525D03*
X053980Y008525D03*
X054000Y008535D03*
X054020Y008535D03*
X053990Y008385D03*
X053980Y008385D03*
X054040Y008375D03*
X054060Y008375D03*
D17*
X054070Y008370D03*
X054050Y008370D03*
X054030Y008380D03*
X054020Y008380D03*
X054010Y008380D03*
X054000Y008380D03*
X053970Y008390D03*
X054100Y008360D03*
X054120Y008360D03*
X054140Y008360D03*
X054170Y008350D03*
X054180Y008350D03*
X054220Y008340D03*
X054240Y008340D03*
X054270Y008330D03*
X054280Y008330D03*
X054010Y008530D03*
X053990Y008530D03*
X054040Y008540D03*
X054060Y008540D03*
X054090Y008550D03*
X054100Y008550D03*
X054140Y008560D03*
X054160Y008560D03*
X054210Y008570D03*
X054240Y008580D03*
X054260Y008580D03*
X053380Y008040D03*
X053670Y007910D03*
X052510Y008330D03*
X052500Y008330D03*
X052460Y008340D03*
X052440Y008340D03*
X052410Y008350D03*
X052400Y008350D03*
X052360Y008360D03*
X052340Y008360D03*
X052300Y008370D03*
X052290Y008370D03*
X052270Y008370D03*
X052260Y008380D03*
X052250Y008380D03*
X052240Y008380D03*
X052210Y008390D03*
X052190Y008390D03*
X052180Y008520D03*
X052190Y008530D03*
X052210Y008530D03*
X052230Y008530D03*
X052250Y008530D03*
X052260Y008540D03*
X052270Y008540D03*
X052280Y008540D03*
X052320Y008550D03*
X052330Y008550D03*
X052380Y008560D03*
X052480Y008580D03*
X052500Y008580D03*
X052500Y007440D03*
X052820Y006940D03*
X053380Y006940D03*
X054280Y006620D03*
X051900Y006240D03*
X052420Y005640D03*
X052430Y005640D03*
D18*
X052300Y005780D03*
X052290Y005780D03*
X052280Y005780D03*
X052250Y005790D03*
X052190Y005790D03*
X052170Y005790D03*
X052110Y005790D03*
X052090Y005790D03*
X052030Y005790D03*
X052010Y005790D03*
X051950Y005790D03*
X051930Y005790D03*
X051920Y006000D03*
X051910Y006000D03*
X052080Y006020D03*
X052100Y006020D03*
X052120Y006020D03*
X052140Y006020D03*
X052160Y006020D03*
X052180Y006020D03*
X052320Y006020D03*
X052340Y006020D03*
X052350Y006020D03*
X052360Y006020D03*
X052510Y006150D03*
X052370Y006290D03*
X052340Y006300D03*
X052130Y006300D03*
X052120Y006300D03*
X052110Y006310D03*
X052090Y006310D03*
X052060Y006320D03*
X052050Y006310D03*
X052060Y006520D03*
X052070Y006520D03*
X052080Y006520D03*
X052090Y006520D03*
X052100Y006520D03*
X052110Y006520D03*
X052120Y006520D03*
X052140Y006520D03*
X052150Y006520D03*
X052160Y006520D03*
X052170Y006520D03*
X052180Y006520D03*
X052190Y006520D03*
X052200Y006520D03*
X052220Y006520D03*
X052230Y006520D03*
X052240Y006520D03*
X052250Y006520D03*
X052260Y006520D03*
X052270Y006520D03*
X052280Y006520D03*
X052300Y006520D03*
X052310Y006520D03*
X052320Y006520D03*
X052330Y006520D03*
X052340Y006520D03*
X052350Y006520D03*
X052360Y006520D03*
X052380Y006520D03*
X052390Y006520D03*
X052400Y006520D03*
X052410Y006520D03*
X052420Y006520D03*
X052430Y006520D03*
X052440Y006520D03*
X052460Y006520D03*
X052470Y006520D03*
X052480Y006520D03*
X052490Y006520D03*
X052500Y006520D03*
X052510Y006520D03*
X052520Y006520D03*
X052540Y006520D03*
X052550Y006520D03*
X052560Y006520D03*
X052570Y006520D03*
X052580Y006520D03*
X052590Y006520D03*
X052600Y006520D03*
X052620Y006520D03*
X052630Y006520D03*
X052640Y006520D03*
X052650Y006520D03*
X052660Y006520D03*
X052670Y006520D03*
X052680Y006520D03*
X052700Y006520D03*
X052750Y006730D03*
X052770Y006730D03*
X052790Y006730D03*
X052850Y006730D03*
X052970Y006730D03*
X052980Y006730D03*
X052990Y006730D03*
X053000Y006730D03*
X053010Y006730D03*
X053030Y006730D03*
X053050Y006730D03*
X053070Y006730D03*
X053090Y006730D03*
X053110Y006730D03*
X053130Y006730D03*
X053150Y006730D03*
X053170Y006730D03*
X053190Y006730D03*
X053200Y006730D03*
X053210Y006730D03*
X053220Y006730D03*
X053230Y006730D03*
X053370Y006930D03*
X053220Y007000D03*
X053210Y007000D03*
X053200Y007000D03*
X053040Y007000D03*
X053030Y007000D03*
X053020Y007000D03*
X053010Y007000D03*
X053000Y007000D03*
X052990Y007000D03*
X052980Y007000D03*
X052830Y006930D03*
X052720Y007000D03*
X052710Y007000D03*
X052490Y007030D03*
X052470Y007030D03*
X052450Y007030D03*
X052430Y007030D03*
X052410Y007030D03*
X052390Y007030D03*
X052370Y007030D03*
X052350Y007030D03*
X052330Y007030D03*
X052310Y007030D03*
X052290Y007030D03*
X052270Y007030D03*
X052250Y007030D03*
X052230Y007030D03*
X052210Y007030D03*
X052190Y007030D03*
X052170Y007030D03*
X052150Y007030D03*
X052130Y007030D03*
X052110Y007030D03*
X052090Y007030D03*
X052070Y007030D03*
X052050Y007030D03*
X052040Y007020D03*
X051910Y006970D03*
X052060Y006760D03*
X052080Y006760D03*
X052090Y006760D03*
X052100Y006760D03*
X052110Y006760D03*
X052120Y006760D03*
X052130Y006760D03*
X052140Y006760D03*
X052150Y006760D03*
X052160Y006760D03*
X052170Y006760D03*
X052180Y006760D03*
X052190Y006760D03*
X052200Y006760D03*
X052210Y006760D03*
X052220Y006760D03*
X052230Y006760D03*
X052240Y006760D03*
X052250Y006760D03*
X052260Y006760D03*
X052270Y006760D03*
X052280Y006760D03*
X052290Y006760D03*
X052300Y006760D03*
X052310Y006760D03*
X052320Y006760D03*
X052330Y006760D03*
X052340Y006760D03*
X052350Y006760D03*
X052360Y006760D03*
X052370Y006760D03*
X052380Y006760D03*
X052390Y006760D03*
X052400Y006760D03*
X052410Y006760D03*
X052420Y006760D03*
X052430Y006760D03*
X052440Y006760D03*
X052450Y006760D03*
X052460Y006760D03*
X052470Y006760D03*
X052480Y006760D03*
X052490Y006760D03*
X052700Y006740D03*
X052710Y006740D03*
X052040Y006520D03*
X052030Y006520D03*
X052020Y006520D03*
X052010Y006520D03*
X052000Y006520D03*
X051990Y006520D03*
X051980Y006520D03*
X051960Y006520D03*
X051950Y006520D03*
X051940Y006520D03*
X051930Y006520D03*
X051920Y006520D03*
X051910Y006520D03*
X053680Y007000D03*
X053690Y007000D03*
X053700Y007000D03*
X053710Y007000D03*
X053720Y007000D03*
X053740Y007000D03*
X053750Y007000D03*
X053760Y007000D03*
X053770Y007000D03*
X053780Y007000D03*
X053790Y007000D03*
X053800Y007000D03*
X053820Y007000D03*
X053830Y007000D03*
X053840Y007000D03*
X053850Y007000D03*
X053860Y007000D03*
X053870Y007000D03*
X053880Y007000D03*
X053900Y007000D03*
X053910Y007000D03*
X053920Y007000D03*
X053930Y007000D03*
X053940Y007000D03*
X053950Y007000D03*
X053960Y007000D03*
X053980Y007000D03*
X053990Y007000D03*
X054000Y007000D03*
X054010Y007000D03*
X054020Y007000D03*
X054030Y007000D03*
X054040Y007000D03*
X054060Y007000D03*
X054070Y007000D03*
X054080Y007000D03*
X054090Y007000D03*
X054100Y007000D03*
X054110Y007000D03*
X054120Y007000D03*
X054140Y007000D03*
X054150Y007000D03*
X054160Y007000D03*
X054170Y007000D03*
X054180Y007000D03*
X054190Y007000D03*
X054200Y007000D03*
X054220Y007000D03*
X054230Y007000D03*
X054240Y007000D03*
X054250Y007000D03*
X054260Y007000D03*
X054270Y007000D03*
X054340Y007000D03*
X054350Y007000D03*
X054360Y007000D03*
X054380Y007000D03*
X054390Y007000D03*
X054400Y007000D03*
X054410Y007000D03*
X054420Y007000D03*
X054430Y007000D03*
X054440Y007000D03*
X054460Y007000D03*
X054470Y007000D03*
X054150Y006740D03*
X054140Y006740D03*
X054110Y006750D03*
X054090Y006750D03*
X054080Y006760D03*
X054070Y006760D03*
X054060Y006760D03*
X054050Y006760D03*
X054040Y006760D03*
X054030Y006760D03*
X054020Y006760D03*
X054010Y006760D03*
X054000Y006760D03*
X053990Y006760D03*
X053980Y006760D03*
X053970Y006760D03*
X053960Y006760D03*
X053950Y006760D03*
X053940Y006760D03*
X053930Y006760D03*
X053920Y006760D03*
X053910Y006760D03*
X053900Y006760D03*
X053890Y006760D03*
X053880Y006760D03*
X053860Y006760D03*
X053850Y006750D03*
X053830Y006750D03*
X053790Y006740D03*
X053780Y006740D03*
X053780Y006500D03*
X053790Y006500D03*
X053810Y006490D03*
X053830Y006490D03*
X053890Y006490D03*
X054050Y006490D03*
X054070Y006490D03*
X054150Y006500D03*
X054170Y007230D03*
X054180Y007240D03*
X054170Y007450D03*
X054110Y007470D03*
X054090Y007470D03*
X054080Y007460D03*
X053790Y007470D03*
X053770Y007230D03*
X053370Y007270D03*
X053240Y007220D03*
X053230Y007220D03*
X053220Y007220D03*
X053220Y007480D03*
X053210Y007480D03*
X053200Y007480D03*
X053190Y007480D03*
X052490Y007450D03*
X052340Y007500D03*
X052320Y007500D03*
X052290Y007510D03*
X052280Y007510D03*
X052270Y007510D03*
X052250Y007510D03*
X052240Y007510D03*
X052230Y007510D03*
X052220Y007510D03*
X052210Y007510D03*
X052190Y007510D03*
X052170Y007510D03*
X052160Y007510D03*
X052150Y007510D03*
X052140Y007510D03*
X052130Y007510D03*
X052120Y007510D03*
X052110Y007510D03*
X052100Y007510D03*
X052090Y007510D03*
X051910Y007450D03*
X052060Y007240D03*
X052070Y007240D03*
X052080Y007240D03*
X052090Y007240D03*
X052320Y007240D03*
X052330Y007240D03*
X052340Y007240D03*
X052310Y007700D03*
X052300Y007700D03*
X052290Y007700D03*
X052280Y007700D03*
X052270Y007700D03*
X052260Y007700D03*
X052250Y007700D03*
X052240Y007700D03*
X052230Y007700D03*
X052220Y007700D03*
X052210Y007700D03*
X052200Y007700D03*
X052190Y007700D03*
X052180Y007700D03*
X052170Y007700D03*
X052160Y007700D03*
X052150Y007700D03*
X052140Y007700D03*
X052130Y007700D03*
X052120Y007700D03*
X052110Y007700D03*
X052100Y007700D03*
X052050Y007710D03*
X052020Y007720D03*
X052010Y007950D03*
X052020Y007960D03*
X052030Y007960D03*
X052050Y007970D03*
X052070Y007970D03*
X052090Y007970D03*
X052110Y007970D03*
X052150Y007980D03*
X052160Y007980D03*
X052180Y007980D03*
X052190Y007980D03*
X052200Y007980D03*
X052210Y007980D03*
X052220Y007980D03*
X052230Y007980D03*
X052240Y007980D03*
X052290Y007970D03*
X052310Y007970D03*
X052330Y007970D03*
X052370Y007960D03*
X052380Y007960D03*
X052360Y008180D03*
X052350Y008180D03*
X052340Y008180D03*
X052320Y008180D03*
X052310Y008180D03*
X052300Y008180D03*
X052290Y008180D03*
X052280Y008180D03*
X052270Y008180D03*
X052260Y008180D03*
X052240Y008180D03*
X052230Y008180D03*
X052220Y008180D03*
X052210Y008180D03*
X052200Y008180D03*
X052190Y008180D03*
X052180Y008180D03*
X052160Y008180D03*
X052150Y008180D03*
X052140Y008180D03*
X052130Y008180D03*
X052120Y008180D03*
X052110Y008180D03*
X052100Y008180D03*
X052080Y008180D03*
X052070Y008180D03*
X052060Y008180D03*
X052050Y008180D03*
X052040Y008180D03*
X052020Y008180D03*
X052010Y008190D03*
X052000Y008180D03*
X051990Y008180D03*
X051980Y008180D03*
X051970Y008180D03*
X051960Y008180D03*
X051940Y008180D03*
X051930Y008190D03*
X051920Y008180D03*
X051950Y008460D03*
X051960Y008460D03*
X051980Y008460D03*
X051980Y008730D03*
X051990Y008730D03*
X052000Y008730D03*
X052010Y008730D03*
X052020Y008730D03*
X052030Y008730D03*
X052040Y008730D03*
X052050Y008730D03*
X052070Y008730D03*
X052090Y008730D03*
X052110Y008730D03*
X052130Y008730D03*
X052150Y008730D03*
X052210Y008730D03*
X052230Y008730D03*
X051970Y008730D03*
X051960Y008730D03*
X051950Y008730D03*
X051940Y008730D03*
X051930Y008730D03*
X051920Y008730D03*
X051910Y008730D03*
X053190Y008250D03*
X053210Y008250D03*
X053230Y008250D03*
X053680Y008180D03*
X053690Y008190D03*
X053700Y008180D03*
X053720Y008180D03*
X053730Y008180D03*
X053740Y008180D03*
X053750Y008180D03*
X053760Y008180D03*
X053770Y008190D03*
X053780Y008180D03*
X053800Y008180D03*
X053810Y008180D03*
X053820Y008180D03*
X053830Y008180D03*
X053840Y008180D03*
X053860Y008180D03*
X053870Y008180D03*
X053880Y008180D03*
X053890Y008180D03*
X053900Y008180D03*
X053910Y008180D03*
X053920Y008180D03*
X053940Y008180D03*
X053950Y008180D03*
X053960Y008180D03*
X053970Y008180D03*
X053980Y008180D03*
X053990Y008180D03*
X054000Y008180D03*
X054020Y008180D03*
X054030Y008180D03*
X054040Y008180D03*
X054050Y008180D03*
X054060Y008180D03*
X054070Y008180D03*
X054080Y008180D03*
X054100Y008180D03*
X054110Y008180D03*
X054120Y008180D03*
X054130Y007970D03*
X054150Y007970D03*
X054210Y007970D03*
X054230Y007970D03*
X054070Y007970D03*
X054050Y007970D03*
X053990Y007970D03*
X053970Y007970D03*
X053910Y007970D03*
X053890Y007970D03*
X053830Y007970D03*
X053820Y007960D03*
X053810Y007960D03*
X053800Y007960D03*
X053820Y007700D03*
X053840Y007700D03*
X053890Y007690D03*
X053910Y007690D03*
X053970Y007690D03*
X053990Y007690D03*
X054050Y007690D03*
X054070Y007690D03*
X054130Y007690D03*
X054150Y007690D03*
X054210Y007690D03*
X054230Y007690D03*
X053590Y007740D03*
X053580Y007740D03*
X053570Y007740D03*
X053560Y007740D03*
X053550Y007740D03*
X053540Y007740D03*
X053520Y007740D03*
X053510Y007740D03*
X053500Y007740D03*
X053490Y007740D03*
X053480Y007740D03*
X053470Y007740D03*
X053460Y007740D03*
X053380Y007740D03*
X053360Y007740D03*
X053350Y007740D03*
X053340Y007740D03*
X053330Y007740D03*
X053320Y007740D03*
X053310Y007740D03*
X053300Y007740D03*
X053280Y007740D03*
X053270Y007740D03*
X053260Y007740D03*
X053250Y007740D03*
X053240Y007740D03*
X053230Y007740D03*
X053220Y007740D03*
X053200Y007740D03*
X053190Y007740D03*
X053180Y007740D03*
X053170Y007740D03*
X053160Y007740D03*
X053150Y007740D03*
X053140Y007740D03*
X053120Y007740D03*
X053110Y007740D03*
X053100Y007740D03*
X053090Y007740D03*
X053080Y007740D03*
X053070Y007740D03*
X053060Y007740D03*
X053040Y007740D03*
X053030Y007740D03*
X053020Y007740D03*
X053010Y007740D03*
X053000Y007740D03*
X052990Y007740D03*
X052980Y007740D03*
X052960Y007740D03*
X052950Y007740D03*
X052940Y007740D03*
X052930Y007740D03*
X052920Y007740D03*
X052910Y007740D03*
X052900Y007740D03*
X052880Y007740D03*
X052870Y007740D03*
X052860Y007740D03*
X052850Y007740D03*
X052840Y007740D03*
X052830Y007740D03*
X052820Y007740D03*
X052800Y007740D03*
X052790Y007740D03*
X052380Y007720D03*
X052350Y007710D03*
X053210Y007990D03*
X053230Y007990D03*
X053250Y007990D03*
X053720Y008460D03*
X053740Y008460D03*
X053740Y008730D03*
X053750Y008730D03*
X053760Y008730D03*
X053770Y008730D03*
X053780Y008730D03*
X053790Y008730D03*
X053800Y008730D03*
X053810Y008730D03*
X053830Y008730D03*
X053850Y008730D03*
X053870Y008730D03*
X053890Y008730D03*
X053910Y008730D03*
X053970Y008730D03*
X053990Y008730D03*
X053730Y008730D03*
X053720Y008730D03*
X053710Y008730D03*
X053700Y008730D03*
X053690Y008730D03*
X053680Y008730D03*
X053670Y008730D03*
D19*
X054250Y008740D03*
X053710Y008460D03*
X053700Y008460D03*
X053690Y008460D03*
X053680Y008460D03*
X053670Y008460D03*
X054090Y008180D03*
X054170Y008180D03*
X054250Y008180D03*
X053680Y007910D03*
X053680Y007690D03*
X053690Y007690D03*
X053700Y007690D03*
X053710Y007690D03*
X053720Y007690D03*
X053740Y007690D03*
X053810Y007480D03*
X053820Y007480D03*
X053830Y007480D03*
X053840Y007480D03*
X053850Y007480D03*
X053800Y007470D03*
X053780Y007220D03*
X053800Y007210D03*
X053810Y007210D03*
X053820Y007210D03*
X053830Y007210D03*
X053840Y007210D03*
X054110Y007210D03*
X054120Y007210D03*
X054150Y007220D03*
X054160Y007220D03*
X054150Y007470D03*
X054140Y007470D03*
X054130Y007470D03*
X054120Y007470D03*
X053380Y007490D03*
X053370Y007490D03*
X053360Y007490D03*
X053340Y007490D03*
X053320Y007490D03*
X052510Y007840D03*
X052360Y007710D03*
X052040Y007710D03*
X052060Y007970D03*
X052330Y008180D03*
X052410Y008180D03*
X052490Y008180D03*
X051940Y008460D03*
X051930Y008460D03*
X051920Y008460D03*
X051910Y008460D03*
X052390Y008560D03*
X052490Y008580D03*
X052490Y008740D03*
X051960Y007230D03*
X051950Y007230D03*
X051940Y007230D03*
X051930Y007230D03*
X051920Y007230D03*
X051910Y007230D03*
X051910Y006750D03*
X051920Y006750D03*
X051940Y006750D03*
X051960Y006750D03*
X052740Y006730D03*
X053330Y006720D03*
X053340Y006720D03*
X053350Y006720D03*
X053360Y006720D03*
X053370Y006720D03*
X053380Y006720D03*
X053840Y006490D03*
X054060Y006490D03*
X054080Y006490D03*
X054100Y006490D03*
X052100Y006310D03*
X052420Y005790D03*
X052440Y005790D03*
X052450Y005790D03*
X052460Y005790D03*
X052470Y005790D03*
X052480Y005790D03*
D20*
X052310Y005775D03*
X052270Y005785D03*
X052330Y006015D03*
X052370Y006015D03*
X052380Y006025D03*
X052390Y006025D03*
X052170Y006015D03*
X052150Y006015D03*
X052130Y006015D03*
X052110Y006015D03*
X052060Y006025D03*
X052150Y006285D03*
X052070Y006315D03*
X052040Y006315D03*
X052030Y006305D03*
X052380Y006285D03*
X052390Y006285D03*
X052070Y006765D03*
X052050Y006765D03*
X052700Y006995D03*
X052840Y006935D03*
X052940Y006985D03*
X052950Y006985D03*
X052960Y006995D03*
X052970Y006995D03*
X053230Y006995D03*
X053250Y006985D03*
X053240Y006735D03*
X052960Y006735D03*
X053870Y006755D03*
X054160Y006725D03*
X054160Y006515D03*
X053870Y007225D03*
X053770Y007455D03*
X054180Y007445D03*
X053830Y007695D03*
X053260Y007995D03*
X053670Y008185D03*
X053710Y008185D03*
X053790Y008185D03*
X053240Y008245D03*
X053730Y008455D03*
X053750Y008455D03*
X053760Y008455D03*
X053430Y008625D03*
X053420Y008625D03*
X053410Y008625D03*
X053400Y008625D03*
X053390Y008625D03*
X053380Y008625D03*
X053370Y008625D03*
X053360Y008625D03*
X053350Y008625D03*
X053340Y008625D03*
X053330Y008625D03*
X053320Y008625D03*
X053310Y008625D03*
X053300Y008625D03*
X053290Y008625D03*
X053280Y008625D03*
X053270Y008625D03*
X053260Y008625D03*
X053250Y008625D03*
X053240Y008625D03*
X053230Y008625D03*
X053220Y008625D03*
X053210Y008625D03*
X053200Y008625D03*
X053190Y008625D03*
X053180Y008625D03*
X053170Y008625D03*
X053160Y008625D03*
X053150Y008625D03*
X053140Y008625D03*
X053130Y008625D03*
X053120Y008625D03*
X053110Y008625D03*
X053100Y008625D03*
X053090Y008625D03*
X053080Y008625D03*
X053070Y008625D03*
X053060Y008625D03*
X053050Y008625D03*
X053040Y008625D03*
X053030Y008625D03*
X053020Y008625D03*
X053010Y008625D03*
X053000Y008625D03*
X052990Y008625D03*
X052980Y008625D03*
X052970Y008625D03*
X052960Y008625D03*
X052950Y008625D03*
X052940Y008625D03*
X052930Y008625D03*
X052920Y008625D03*
X052910Y008625D03*
X052900Y008625D03*
X052890Y008625D03*
X052880Y008625D03*
X052870Y008625D03*
X052860Y008625D03*
X052850Y008625D03*
X052840Y008625D03*
X052830Y008625D03*
X052820Y008625D03*
X052810Y008625D03*
X052800Y008625D03*
X052790Y008625D03*
X052000Y008455D03*
X051990Y008455D03*
X051970Y008455D03*
X051950Y008185D03*
X051910Y008185D03*
X052030Y008185D03*
X052390Y007945D03*
X052390Y007725D03*
X052370Y007715D03*
X052030Y007715D03*
X052010Y007725D03*
X052050Y007505D03*
X052060Y007505D03*
X052070Y007505D03*
X052080Y007505D03*
X052040Y007495D03*
X052040Y007245D03*
X052050Y007245D03*
X052350Y007245D03*
X052360Y007245D03*
X052480Y007445D03*
X052330Y007505D03*
X052310Y007505D03*
X052300Y007505D03*
X053230Y007475D03*
X053240Y007475D03*
X053250Y007475D03*
X053250Y007225D03*
D21*
X053920Y007275D03*
X052490Y007835D03*
X051910Y007835D03*
X052650Y008235D03*
X052680Y008225D03*
X052690Y008225D03*
X052700Y008225D03*
X052700Y008685D03*
X052690Y008685D03*
X052680Y008685D03*
X052660Y008685D03*
X053950Y008455D03*
X054410Y008235D03*
X054450Y008225D03*
X054460Y008225D03*
X054460Y008685D03*
X054450Y008685D03*
X054440Y008685D03*
X054420Y008685D03*
X053740Y007905D03*
X053730Y007905D03*
D22*
X053690Y007910D03*
X053800Y007710D03*
X053810Y007700D03*
X054070Y007450D03*
X053880Y007230D03*
X053360Y007270D03*
X053260Y007230D03*
X053260Y007470D03*
X052500Y007830D03*
X052350Y007500D03*
X052360Y007490D03*
X052020Y007490D03*
X051920Y007450D03*
X052030Y007020D03*
X051920Y006970D03*
X052040Y006770D03*
X052590Y006880D03*
X052690Y006980D03*
X052950Y006740D03*
X053250Y006740D03*
X053770Y006720D03*
X053770Y006520D03*
X052400Y006270D03*
X052160Y006270D03*
X052020Y006300D03*
X051910Y006240D03*
X052040Y006030D03*
X052050Y006020D03*
X052070Y006020D03*
X052090Y006020D03*
X052300Y006030D03*
X052310Y006020D03*
X052320Y005770D03*
X053360Y008040D03*
X053370Y008040D03*
X053250Y008240D03*
X053770Y008460D03*
X053780Y008460D03*
X052020Y008460D03*
X052010Y008460D03*
D23*
X052790Y008255D03*
X052800Y008255D03*
X052810Y008255D03*
X052820Y008255D03*
X052830Y008255D03*
X052840Y008255D03*
X052850Y008255D03*
X052860Y008255D03*
X052870Y008255D03*
X052880Y008255D03*
X052900Y008255D03*
X052910Y008255D03*
X052920Y008255D03*
X052930Y008255D03*
X052940Y008255D03*
X052950Y008255D03*
X052960Y008255D03*
X052970Y008255D03*
X052980Y008255D03*
X052990Y008255D03*
X053000Y008255D03*
X053010Y008255D03*
X053020Y008255D03*
X053030Y008255D03*
X053040Y008255D03*
X053050Y008255D03*
X053060Y008255D03*
X053070Y008255D03*
X053080Y008255D03*
X053090Y008255D03*
X053100Y008255D03*
X053110Y008255D03*
X053120Y008255D03*
X053130Y008255D03*
X053140Y008255D03*
X053150Y008255D03*
X053160Y008255D03*
X053170Y008255D03*
X053180Y008255D03*
X053200Y008255D03*
X053220Y008255D03*
X053330Y008255D03*
X053340Y008255D03*
X053350Y008255D03*
X053360Y008255D03*
X053370Y008255D03*
X053380Y008255D03*
X053390Y008255D03*
X053400Y008255D03*
X053410Y008255D03*
X053420Y008255D03*
X053430Y008255D03*
X053440Y008255D03*
X053450Y008255D03*
X053460Y008255D03*
X053470Y008255D03*
X053480Y008255D03*
X053490Y008255D03*
X053500Y008255D03*
X053510Y008255D03*
X053520Y008255D03*
X053530Y008255D03*
X053540Y008255D03*
X053550Y008255D03*
X053560Y008255D03*
X053570Y008255D03*
X053580Y008255D03*
X053850Y008185D03*
X053930Y008185D03*
X054010Y008185D03*
X054130Y008175D03*
X054140Y008175D03*
X054150Y008175D03*
X054160Y008175D03*
X054180Y008175D03*
X054190Y008175D03*
X054200Y008175D03*
X054210Y008175D03*
X054220Y008175D03*
X054230Y008175D03*
X054240Y008175D03*
X054260Y008175D03*
X054270Y008175D03*
X054280Y008175D03*
X054270Y007965D03*
X054260Y007965D03*
X054250Y007965D03*
X054240Y007965D03*
X054220Y007965D03*
X054200Y007965D03*
X054190Y007965D03*
X054180Y007965D03*
X054170Y007965D03*
X054160Y007965D03*
X054140Y007965D03*
X054120Y007965D03*
X054110Y007965D03*
X054100Y007965D03*
X054090Y007965D03*
X054080Y007965D03*
X054060Y007965D03*
X054040Y007965D03*
X054030Y007965D03*
X054020Y007965D03*
X054010Y007965D03*
X054000Y007965D03*
X053980Y007965D03*
X053960Y007965D03*
X053950Y007965D03*
X053940Y007965D03*
X053930Y007965D03*
X053920Y007965D03*
X053900Y007965D03*
X053880Y007965D03*
X053870Y007965D03*
X053860Y007965D03*
X053850Y007965D03*
X053840Y007965D03*
X053850Y007695D03*
X053860Y007695D03*
X053870Y007695D03*
X053880Y007695D03*
X053900Y007695D03*
X053920Y007695D03*
X053930Y007695D03*
X053940Y007695D03*
X053950Y007695D03*
X053960Y007695D03*
X053980Y007695D03*
X054000Y007695D03*
X054010Y007695D03*
X054020Y007695D03*
X054030Y007695D03*
X054040Y007695D03*
X054060Y007695D03*
X054080Y007695D03*
X054090Y007695D03*
X054100Y007695D03*
X054110Y007695D03*
X054120Y007695D03*
X054140Y007695D03*
X054160Y007695D03*
X054170Y007695D03*
X054180Y007695D03*
X054190Y007695D03*
X054200Y007695D03*
X054220Y007695D03*
X054240Y007695D03*
X054250Y007695D03*
X054260Y007695D03*
X054270Y007695D03*
X053730Y007685D03*
X053670Y007685D03*
X053530Y007745D03*
X053370Y007745D03*
X053290Y007745D03*
X053210Y007745D03*
X053130Y007745D03*
X053050Y007745D03*
X052970Y007745D03*
X052890Y007745D03*
X052810Y007745D03*
X052810Y007985D03*
X052820Y007985D03*
X052830Y007985D03*
X052840Y007985D03*
X052850Y007985D03*
X052860Y007985D03*
X052870Y007985D03*
X052880Y007985D03*
X052890Y007985D03*
X052900Y007985D03*
X052910Y007985D03*
X052920Y007985D03*
X052930Y007985D03*
X052940Y007985D03*
X052950Y007985D03*
X052960Y007985D03*
X052970Y007985D03*
X052980Y007985D03*
X052990Y007985D03*
X053000Y007985D03*
X053010Y007985D03*
X053020Y007985D03*
X053030Y007985D03*
X053040Y007985D03*
X053050Y007985D03*
X053060Y007985D03*
X053070Y007985D03*
X053080Y007985D03*
X053090Y007985D03*
X053100Y007985D03*
X053110Y007985D03*
X053120Y007985D03*
X053130Y007985D03*
X053140Y007985D03*
X053150Y007985D03*
X053160Y007985D03*
X053170Y007985D03*
X053180Y007985D03*
X053190Y007985D03*
X053200Y007985D03*
X053220Y007985D03*
X053240Y007985D03*
X052800Y007985D03*
X052790Y007985D03*
X052510Y008175D03*
X052500Y008175D03*
X052480Y008175D03*
X052470Y008175D03*
X052460Y008175D03*
X052450Y008175D03*
X052440Y008175D03*
X052430Y008175D03*
X052420Y008175D03*
X052400Y008175D03*
X052390Y008175D03*
X052380Y008175D03*
X052370Y008175D03*
X052250Y008185D03*
X052170Y008185D03*
X052090Y008185D03*
X052100Y007975D03*
X052120Y007975D03*
X052130Y007975D03*
X052140Y007975D03*
X052170Y007975D03*
X052250Y007975D03*
X052260Y007975D03*
X052270Y007975D03*
X052280Y007975D03*
X052300Y007975D03*
X052320Y007975D03*
X052340Y007965D03*
X052350Y007965D03*
X052360Y007965D03*
X052340Y007705D03*
X052330Y007705D03*
X052320Y007705D03*
X052090Y007705D03*
X052080Y007705D03*
X052070Y007705D03*
X052060Y007705D03*
X052040Y007965D03*
X052080Y007975D03*
X052180Y007515D03*
X052200Y007515D03*
X052260Y007515D03*
X052260Y007235D03*
X052270Y007235D03*
X052280Y007235D03*
X052290Y007235D03*
X052300Y007235D03*
X052310Y007235D03*
X052250Y007235D03*
X052240Y007235D03*
X052230Y007235D03*
X052220Y007235D03*
X052210Y007235D03*
X052200Y007235D03*
X052190Y007235D03*
X052180Y007235D03*
X052170Y007235D03*
X052160Y007235D03*
X052150Y007235D03*
X052140Y007235D03*
X052130Y007235D03*
X052120Y007235D03*
X052110Y007235D03*
X052100Y007235D03*
X052100Y007025D03*
X052120Y007025D03*
X052140Y007025D03*
X052160Y007025D03*
X052180Y007025D03*
X052200Y007025D03*
X052220Y007025D03*
X052240Y007025D03*
X052260Y007025D03*
X052280Y007025D03*
X052300Y007025D03*
X052320Y007025D03*
X052340Y007025D03*
X052360Y007025D03*
X052380Y007025D03*
X052400Y007025D03*
X052420Y007025D03*
X052440Y007025D03*
X052460Y007025D03*
X052480Y007025D03*
X052480Y007235D03*
X052490Y007235D03*
X052500Y007235D03*
X052510Y007235D03*
X052520Y007235D03*
X052530Y007235D03*
X052540Y007235D03*
X052550Y007235D03*
X052560Y007235D03*
X052570Y007235D03*
X052580Y007235D03*
X052590Y007235D03*
X052600Y007235D03*
X052610Y007235D03*
X052620Y007235D03*
X052630Y007235D03*
X052640Y007235D03*
X052650Y007235D03*
X052660Y007235D03*
X052670Y007235D03*
X052680Y007235D03*
X052690Y007235D03*
X052700Y007235D03*
X052790Y007215D03*
X052800Y007215D03*
X052810Y007215D03*
X052820Y007215D03*
X052830Y007215D03*
X052840Y007215D03*
X052850Y007215D03*
X052860Y007215D03*
X052870Y007215D03*
X052880Y007215D03*
X052890Y007215D03*
X052900Y007215D03*
X052910Y007215D03*
X052920Y007215D03*
X052930Y007215D03*
X052940Y007215D03*
X052950Y007215D03*
X052960Y007215D03*
X052970Y007215D03*
X052980Y007215D03*
X052990Y007215D03*
X053000Y007215D03*
X053010Y007215D03*
X053020Y007215D03*
X053030Y007215D03*
X053040Y007215D03*
X053050Y007215D03*
X053060Y007215D03*
X053070Y007215D03*
X053080Y007215D03*
X053090Y007215D03*
X053100Y007215D03*
X053110Y007215D03*
X053120Y007215D03*
X053130Y007215D03*
X053140Y007215D03*
X053150Y007215D03*
X053160Y007215D03*
X053170Y007215D03*
X053180Y007215D03*
X053190Y007215D03*
X053200Y007215D03*
X053210Y007215D03*
X053190Y007005D03*
X053180Y007005D03*
X053170Y007005D03*
X053160Y007005D03*
X053150Y007005D03*
X053140Y007005D03*
X053130Y007005D03*
X053120Y007005D03*
X053110Y007005D03*
X053100Y007005D03*
X053090Y007005D03*
X053080Y007005D03*
X053070Y007005D03*
X053060Y007005D03*
X053050Y007005D03*
X053240Y006995D03*
X053180Y006725D03*
X053160Y006725D03*
X053140Y006725D03*
X053120Y006725D03*
X053100Y006725D03*
X053080Y006725D03*
X053060Y006725D03*
X053040Y006725D03*
X053020Y006725D03*
X052860Y006725D03*
X052840Y006725D03*
X052830Y006725D03*
X052820Y006725D03*
X052810Y006725D03*
X052800Y006725D03*
X052780Y006725D03*
X052760Y006725D03*
X052730Y006735D03*
X052720Y006735D03*
X052690Y006525D03*
X052610Y006525D03*
X052530Y006525D03*
X052450Y006525D03*
X052370Y006525D03*
X052290Y006525D03*
X052210Y006525D03*
X052130Y006525D03*
X052050Y006525D03*
X051970Y006525D03*
X051970Y006755D03*
X051950Y006755D03*
X051930Y006755D03*
X052060Y007025D03*
X052080Y007025D03*
X052450Y007235D03*
X052460Y007235D03*
X052470Y007235D03*
X052730Y007005D03*
X052740Y007005D03*
X052750Y007005D03*
X052790Y007485D03*
X052800Y007485D03*
X052810Y007485D03*
X052820Y007485D03*
X052830Y007485D03*
X052840Y007485D03*
X052850Y007485D03*
X052860Y007485D03*
X052870Y007485D03*
X052880Y007485D03*
X052890Y007485D03*
X052900Y007485D03*
X052910Y007485D03*
X052920Y007485D03*
X052930Y007485D03*
X052940Y007485D03*
X052950Y007485D03*
X052960Y007485D03*
X052970Y007485D03*
X052980Y007485D03*
X052990Y007485D03*
X053000Y007485D03*
X053010Y007485D03*
X053020Y007485D03*
X053030Y007485D03*
X053040Y007485D03*
X053050Y007485D03*
X053060Y007485D03*
X053070Y007485D03*
X053080Y007485D03*
X053090Y007485D03*
X053100Y007485D03*
X053110Y007485D03*
X053120Y007485D03*
X053130Y007485D03*
X053140Y007485D03*
X053150Y007485D03*
X053160Y007485D03*
X053170Y007485D03*
X053180Y007485D03*
X053330Y007485D03*
X053350Y007485D03*
X053780Y007465D03*
X053790Y007215D03*
X053850Y007215D03*
X053860Y007215D03*
X054100Y007465D03*
X054160Y007465D03*
X054130Y006995D03*
X054050Y006995D03*
X053970Y006995D03*
X053890Y006995D03*
X053810Y006995D03*
X053730Y006995D03*
X053670Y006995D03*
X053800Y006745D03*
X053810Y006745D03*
X053820Y006745D03*
X053840Y006755D03*
X054100Y006755D03*
X054120Y006745D03*
X054130Y006745D03*
X054130Y006495D03*
X054140Y006495D03*
X054120Y006495D03*
X054110Y006495D03*
X054090Y006485D03*
X053900Y006485D03*
X053880Y006485D03*
X053870Y006485D03*
X053860Y006485D03*
X053850Y006485D03*
X053820Y006495D03*
X053800Y006495D03*
X054210Y006995D03*
X054370Y006995D03*
X054450Y006995D03*
X052360Y006295D03*
X052350Y006295D03*
X052330Y006295D03*
X052140Y006295D03*
X052080Y006315D03*
X051950Y006005D03*
X051940Y006005D03*
X051930Y006005D03*
X051940Y005785D03*
X051960Y005785D03*
X051970Y005785D03*
X051980Y005785D03*
X051990Y005785D03*
X052000Y005785D03*
X052020Y005785D03*
X052040Y005785D03*
X052050Y005785D03*
X052060Y005785D03*
X052070Y005785D03*
X052080Y005785D03*
X052100Y005785D03*
X052120Y005785D03*
X052130Y005785D03*
X052140Y005785D03*
X052150Y005785D03*
X052160Y005785D03*
X052180Y005785D03*
X052200Y005785D03*
X052210Y005785D03*
X052220Y005785D03*
X052230Y005785D03*
X052240Y005785D03*
X052260Y005785D03*
X052430Y005795D03*
X052490Y005795D03*
X051920Y005785D03*
X051910Y005785D03*
X052060Y008735D03*
X052080Y008735D03*
X052100Y008735D03*
X052120Y008735D03*
X052140Y008735D03*
X052160Y008735D03*
X052170Y008735D03*
X052180Y008735D03*
X052190Y008735D03*
X052200Y008735D03*
X052220Y008735D03*
X052240Y008735D03*
X052250Y008735D03*
X052260Y008735D03*
X052270Y008735D03*
X052280Y008735D03*
X052290Y008735D03*
X052300Y008735D03*
X052310Y008735D03*
X052320Y008735D03*
X052330Y008735D03*
X052340Y008735D03*
X052350Y008735D03*
X052360Y008735D03*
X052370Y008735D03*
X052380Y008735D03*
X052390Y008735D03*
X052400Y008735D03*
X052410Y008735D03*
X052420Y008735D03*
X052430Y008735D03*
X052440Y008735D03*
X052450Y008735D03*
X052460Y008735D03*
X052470Y008735D03*
X052480Y008735D03*
X052500Y008735D03*
X053820Y008735D03*
X053840Y008735D03*
X053860Y008735D03*
X053880Y008735D03*
X053900Y008735D03*
X053920Y008735D03*
X053930Y008735D03*
X053940Y008735D03*
X053950Y008735D03*
X053960Y008735D03*
X053980Y008735D03*
X054000Y008735D03*
X054010Y008735D03*
X054020Y008735D03*
X054030Y008735D03*
X054040Y008735D03*
X054050Y008735D03*
X054060Y008735D03*
X054070Y008735D03*
X054080Y008735D03*
X054090Y008735D03*
X054100Y008735D03*
X054110Y008735D03*
X054120Y008735D03*
X054130Y008735D03*
X054140Y008735D03*
X054150Y008735D03*
X054160Y008735D03*
X054170Y008735D03*
X054180Y008735D03*
X054190Y008735D03*
X054200Y008735D03*
X054210Y008735D03*
X054220Y008735D03*
X054230Y008735D03*
X054240Y008735D03*
X054260Y008735D03*
D24*
X054310Y008670D03*
X054330Y008670D03*
X054330Y008250D03*
X054340Y008240D03*
X054350Y008240D03*
X054360Y008240D03*
X054320Y008240D03*
X052590Y008240D03*
X052580Y008240D03*
X052560Y008240D03*
X052540Y008240D03*
X052540Y008670D03*
X052550Y008670D03*
X052530Y008670D03*
X051920Y007840D03*
X053930Y007290D03*
X053940Y007300D03*
X053980Y007340D03*
X054010Y007380D03*
X054240Y007340D03*
X052610Y006870D03*
X054240Y006620D03*
X052490Y006150D03*
X052410Y005730D03*
X052400Y005720D03*
X052390Y005720D03*
X052380Y005720D03*
X052370Y005720D03*
X052360Y005720D03*
X052340Y005720D03*
D25*
X052250Y006080D03*
X052480Y006150D03*
X053970Y007330D03*
X053990Y007360D03*
X053700Y007350D03*
X052470Y007840D03*
X051930Y007840D03*
D26*
X051930Y007445D03*
X052470Y007445D03*
X053790Y007725D03*
X053340Y008045D03*
X053850Y008455D03*
X053860Y008455D03*
X053880Y008455D03*
X052100Y008455D03*
X052090Y008455D03*
X052070Y008455D03*
X053900Y007255D03*
X053260Y006965D03*
X053670Y006625D03*
X054270Y006615D03*
D27*
X053340Y006930D03*
X052860Y006930D03*
X051950Y006970D03*
X051940Y006970D03*
X052020Y007270D03*
X052450Y007440D03*
X053340Y007270D03*
X054050Y007420D03*
X053890Y008460D03*
X053870Y008460D03*
X052120Y008460D03*
X052110Y008460D03*
X051930Y006240D03*
X052010Y006040D03*
X052500Y006150D03*
D28*
X052240Y006100D03*
X054220Y006620D03*
X054230Y006620D03*
X052630Y006870D03*
X054220Y007340D03*
X051940Y007840D03*
D29*
X051940Y007445D03*
X051950Y007445D03*
X053330Y007275D03*
X053680Y007345D03*
X054040Y007415D03*
X053720Y007905D03*
X053710Y007905D03*
X053330Y008045D03*
X053900Y008455D03*
X053910Y008455D03*
X053930Y008455D03*
X052140Y008455D03*
X052130Y008455D03*
D30*
X052150Y008460D03*
X052160Y008460D03*
X052170Y008460D03*
X053920Y008460D03*
X053940Y008460D03*
X051960Y007440D03*
X053320Y007280D03*
X053910Y007270D03*
X054260Y007340D03*
X053330Y006930D03*
X052600Y006880D03*
X051970Y006970D03*
X051960Y006970D03*
X053680Y006620D03*
X054260Y006620D03*
X052270Y006050D03*
X051940Y006240D03*
D31*
X053710Y006625D03*
X053710Y007345D03*
X053720Y007345D03*
X052450Y007835D03*
X052440Y007835D03*
X051950Y007835D03*
D32*
X052620Y008230D03*
X052640Y008230D03*
X052660Y008230D03*
X052670Y008230D03*
X052670Y008680D03*
X052650Y008680D03*
X052640Y008680D03*
X052630Y008680D03*
X052620Y008680D03*
X052610Y008680D03*
X054380Y008680D03*
X054390Y008680D03*
X054400Y008680D03*
X054410Y008680D03*
X054430Y008680D03*
X054430Y008230D03*
X054440Y008230D03*
X054420Y008230D03*
X054400Y008230D03*
X054380Y008230D03*
X054030Y007400D03*
X054020Y007390D03*
X054250Y007340D03*
X054250Y006620D03*
X053690Y006620D03*
X052260Y006070D03*
X051950Y006240D03*
D33*
X052220Y006110D03*
X052230Y006100D03*
X052460Y006150D03*
X053720Y006620D03*
X053730Y006620D03*
X054210Y006620D03*
X052640Y006870D03*
X054210Y007340D03*
X051960Y007840D03*
D34*
X052000Y006160D03*
X051970Y006150D03*
X051960Y006150D03*
D35*
X053740Y006620D03*
X054180Y006620D03*
X054200Y006620D03*
X052650Y006870D03*
X053740Y007340D03*
X054200Y007340D03*
X052430Y007840D03*
X052420Y007840D03*
X051980Y007840D03*
X051970Y007840D03*
D36*
X051970Y007365D03*
X052410Y007365D03*
X053290Y007355D03*
X053300Y007355D03*
X053310Y007355D03*
X053320Y006855D03*
X053300Y006855D03*
X052900Y006855D03*
X052890Y006855D03*
X052880Y006855D03*
X051980Y006885D03*
X052410Y006155D03*
X052420Y006155D03*
X052190Y006135D03*
X053300Y008125D03*
X053310Y008125D03*
X053320Y008125D03*
D37*
X053290Y008120D03*
X053280Y008120D03*
X053270Y008120D03*
X053750Y007820D03*
X053760Y007830D03*
X053770Y007830D03*
X053780Y007830D03*
X053280Y007350D03*
X053270Y007350D03*
X052400Y007370D03*
X052390Y007370D03*
X052380Y007370D03*
X052000Y007370D03*
X051990Y007370D03*
X051980Y007370D03*
X051990Y006890D03*
X052000Y006890D03*
X052010Y006890D03*
X052020Y006890D03*
X052910Y006860D03*
X052920Y006860D03*
X052930Y006860D03*
X053270Y006860D03*
X053280Y006860D03*
X053290Y006860D03*
X053310Y006860D03*
D38*
X051990Y006155D03*
X051980Y006155D03*
D39*
X052200Y006130D03*
X052210Y006120D03*
X052440Y006150D03*
X053750Y006620D03*
X054170Y006620D03*
X052660Y006870D03*
X052410Y007840D03*
X051990Y007840D03*
D40*
X052000Y007835D03*
X052400Y007835D03*
D41*
X052010Y007375D03*
D42*
X052030Y007495D03*
X052030Y007255D03*
X052370Y007255D03*
X052370Y007485D03*
X053360Y006935D03*
X053260Y006745D03*
X052940Y006745D03*
X052030Y006775D03*
X052170Y006265D03*
X053890Y007235D03*
X053700Y007905D03*
X053790Y007945D03*
X053260Y008235D03*
X053790Y008455D03*
X053800Y008455D03*
X053810Y008455D03*
X052050Y008455D03*
X052040Y008455D03*
X052030Y008455D03*
D43*
X052180Y008390D03*
X053960Y008390D03*
X053660Y007350D03*
X053390Y006940D03*
X053660Y006630D03*
X052460Y005630D03*
D44*
X052330Y005595D03*
D45*
X052350Y005725D03*
X053700Y006625D03*
X052620Y006875D03*
X053950Y007305D03*
X053960Y007315D03*
X054000Y007365D03*
X054290Y008245D03*
X054300Y008245D03*
X054310Y008245D03*
X054300Y008665D03*
X054290Y008665D03*
X054280Y008665D03*
X054270Y008665D03*
X052520Y008665D03*
X052510Y008665D03*
X052520Y008245D03*
X052530Y008245D03*
X052550Y008245D03*
D46*
X052440Y007360D03*
X052430Y007360D03*
X052420Y007360D03*
X052670Y006870D03*
X052680Y006870D03*
X052870Y006850D03*
X052430Y006150D03*
D47*
X052450Y006155D03*
X053760Y006615D03*
X054190Y006615D03*
X054190Y007345D03*
X053760Y007345D03*
X053750Y007345D03*
D48*
X054230Y007345D03*
X052460Y007835D03*
D49*
X053730Y007345D03*
X052470Y006155D03*
D50*
X052470Y005625D03*
X053390Y008035D03*
D51*
X052630Y008235D03*
X052610Y008235D03*
X052600Y008235D03*
X052570Y008245D03*
X052570Y008675D03*
X052580Y008675D03*
X052590Y008675D03*
X052600Y008675D03*
X052560Y008675D03*
X054320Y008675D03*
X054340Y008675D03*
X054350Y008675D03*
X054360Y008675D03*
X054370Y008675D03*
X054370Y008235D03*
X054390Y008235D03*
X052480Y007835D03*
X053690Y007345D03*
D52*
X053390Y007270D03*
X054280Y007340D03*
X052480Y005620D03*
D53*
X052490Y005615D03*
D54*
X052500Y005600D03*
D55*
X052890Y008255D03*
D56*
X053440Y008620D03*
X053460Y008620D03*
X053480Y008620D03*
X053500Y008620D03*
X053520Y008620D03*
X053540Y008620D03*
X053560Y008620D03*
X053580Y008620D03*
D57*
X053570Y008615D03*
X053550Y008625D03*
X053530Y008625D03*
X053510Y008615D03*
X053490Y008615D03*
X053470Y008625D03*
X053450Y008625D03*
D58*
X053351Y010351D03*
X005241Y010351D03*
D59*
X026920Y009367D03*
X037670Y009367D03*
X048420Y009367D03*
D60*
X017670Y007417D03*
X012070Y007417D03*
X012070Y011317D03*
X017670Y011317D03*
M02*
